<svg width="600" height="332" viewBox="0 0 600 332" fill="none" xmlns="http://www.w3.org/2000/svg">
<rect x="249" y="146" width="103" height="88" rx="8" fill="#B9DEFF"/>
<rect x="250" y="27" width="101" height="86" rx="7" fill="#EAF4FF" stroke="#0385FF" stroke-width="2"/>
<rect x="99" y="219" width="101" height="86" rx="7" fill="#EAF4FF" stroke="#0385FF" stroke-width="2"/>
<rect x="401" y="219" width="101" height="86" rx="7" fill="#EAF4FF" stroke="#0385FF" stroke-width="2"/>
<path d="M265.352 200.364H267.733L270.58 205.511H270.693L273.54 200.364H275.92L271.688 207.659V212H269.585V207.659L265.352 200.364ZM279.504 212.17C278.652 212.17 277.913 211.983 277.288 211.608C276.663 211.233 276.179 210.708 275.834 210.034C275.493 209.36 275.322 208.572 275.322 207.67C275.322 206.769 275.493 205.979 275.834 205.301C276.179 204.623 276.663 204.097 277.288 203.722C277.913 203.347 278.652 203.159 279.504 203.159C280.357 203.159 281.095 203.347 281.72 203.722C282.345 204.097 282.828 204.623 283.169 205.301C283.514 205.979 283.686 206.769 283.686 207.67C283.686 208.572 283.514 209.36 283.169 210.034C282.828 210.708 282.345 211.233 281.72 211.608C281.095 211.983 280.357 212.17 279.504 212.17ZM279.516 210.523C279.978 210.523 280.364 210.396 280.675 210.142C280.985 209.884 281.216 209.54 281.368 209.108C281.523 208.676 281.601 208.195 281.601 207.665C281.601 207.131 281.523 206.648 281.368 206.216C281.216 205.78 280.985 205.434 280.675 205.176C280.364 204.919 279.978 204.79 279.516 204.79C279.042 204.79 278.648 204.919 278.334 205.176C278.023 205.434 277.79 205.78 277.635 206.216C277.483 206.648 277.408 207.131 277.408 207.665C277.408 208.195 277.483 208.676 277.635 209.108C277.79 209.54 278.023 209.884 278.334 210.142C278.648 210.396 279.042 210.523 279.516 210.523ZM290.994 208.33V203.273H293.051V212H291.057V210.449H290.966C290.769 210.937 290.445 211.337 289.994 211.648C289.547 211.958 288.996 212.114 288.341 212.114C287.769 212.114 287.263 211.987 286.824 211.733C286.388 211.475 286.047 211.102 285.801 210.614C285.555 210.121 285.432 209.527 285.432 208.83V203.273H287.489V208.511C287.489 209.064 287.64 209.504 287.943 209.83C288.246 210.155 288.644 210.318 289.136 210.318C289.439 210.318 289.733 210.244 290.017 210.097C290.301 209.949 290.534 209.729 290.716 209.438C290.902 209.142 290.994 208.773 290.994 208.33ZM295.166 212V203.273H297.161V204.727H297.251C297.411 204.223 297.683 203.835 298.07 203.562C298.46 203.286 298.905 203.148 299.405 203.148C299.518 203.148 299.645 203.153 299.786 203.165C299.929 203.172 300.049 203.186 300.143 203.205V205.097C300.056 205.066 299.918 205.04 299.729 205.017C299.543 204.991 299.363 204.977 299.189 204.977C298.814 204.977 298.477 205.059 298.178 205.222C297.882 205.381 297.649 205.602 297.479 205.886C297.308 206.17 297.223 206.498 297.223 206.869V212H295.166ZM307.064 212H304.814L308.911 200.364H311.513L315.615 212H313.365L310.257 202.75H310.166L307.064 212ZM307.138 207.438H313.274V209.131H307.138V207.438ZM317.057 215.273V203.273H319.08V204.716H319.199C319.305 204.504 319.455 204.278 319.648 204.04C319.841 203.797 320.102 203.591 320.432 203.42C320.761 203.246 321.182 203.159 321.693 203.159C322.367 203.159 322.975 203.331 323.517 203.676C324.063 204.017 324.494 204.523 324.812 205.193C325.134 205.86 325.295 206.678 325.295 207.648C325.295 208.606 325.138 209.42 324.824 210.091C324.509 210.761 324.081 211.273 323.54 211.625C322.998 211.977 322.384 212.153 321.699 212.153C321.199 212.153 320.784 212.07 320.455 211.903C320.125 211.737 319.86 211.536 319.659 211.301C319.462 211.062 319.309 210.837 319.199 210.625H319.114V215.273H317.057ZM319.074 207.636C319.074 208.201 319.153 208.695 319.312 209.119C319.475 209.544 319.708 209.875 320.011 210.114C320.318 210.348 320.689 210.466 321.125 210.466C321.58 210.466 321.96 210.345 322.267 210.102C322.574 209.856 322.805 209.521 322.96 209.097C323.119 208.669 323.199 208.182 323.199 207.636C323.199 207.095 323.121 206.614 322.966 206.193C322.811 205.773 322.58 205.443 322.273 205.205C321.966 204.966 321.583 204.847 321.125 204.847C320.686 204.847 320.312 204.962 320.006 205.193C319.699 205.424 319.466 205.748 319.307 206.165C319.152 206.581 319.074 207.072 319.074 207.636ZM327.057 215.273V203.273H329.08V204.716H329.199C329.305 204.504 329.455 204.278 329.648 204.04C329.841 203.797 330.102 203.591 330.432 203.42C330.761 203.246 331.182 203.159 331.693 203.159C332.367 203.159 332.975 203.331 333.517 203.676C334.063 204.017 334.494 204.523 334.812 205.193C335.134 205.86 335.295 206.678 335.295 207.648C335.295 208.606 335.138 209.42 334.824 210.091C334.509 210.761 334.081 211.273 333.54 211.625C332.998 211.977 332.384 212.153 331.699 212.153C331.199 212.153 330.784 212.07 330.455 211.903C330.125 211.737 329.86 211.536 329.659 211.301C329.462 211.062 329.309 210.837 329.199 210.625H329.114V215.273H327.057ZM329.074 207.636C329.074 208.201 329.153 208.695 329.312 209.119C329.475 209.544 329.708 209.875 330.011 210.114C330.318 210.348 330.689 210.466 331.125 210.466C331.58 210.466 331.96 210.345 332.267 210.102C332.574 209.856 332.805 209.521 332.96 209.097C333.119 208.669 333.199 208.182 333.199 207.636C333.199 207.095 333.121 206.614 332.966 206.193C332.811 205.773 332.58 205.443 332.273 205.205C331.966 204.966 331.583 204.847 331.125 204.847C330.686 204.847 330.312 204.962 330.006 205.193C329.699 205.424 329.466 205.748 329.307 206.165C329.152 206.581 329.074 207.072 329.074 207.636Z" fill="#005481"/>
<path d="M268.302 92H264.359V80.3636H268.381C269.537 80.3636 270.529 80.5966 271.359 81.0625C272.192 81.5246 272.832 82.1894 273.279 83.0568C273.726 83.9242 273.95 84.9621 273.95 86.1705C273.95 87.3826 273.724 88.4242 273.273 89.2955C272.826 90.1667 272.181 90.8352 271.336 91.3011C270.495 91.767 269.484 92 268.302 92ZM266.467 90.1761H268.2C269.01 90.1761 269.686 90.0284 270.228 89.733C270.77 89.4337 271.177 88.9886 271.45 88.3977C271.722 87.803 271.859 87.0606 271.859 86.1705C271.859 85.2803 271.722 84.5417 271.45 83.9545C271.177 83.3636 270.773 82.9223 270.239 82.6307C269.709 82.3352 269.05 82.1875 268.262 82.1875H266.467V90.1761ZM278.373 92.1761C277.82 92.1761 277.322 92.0777 276.879 91.8807C276.439 91.6799 276.091 91.3845 275.833 90.9943C275.579 90.6042 275.452 90.1231 275.452 89.5511C275.452 89.0587 275.543 88.6515 275.725 88.3295C275.907 88.0076 276.155 87.75 276.469 87.5568C276.784 87.3636 277.138 87.2178 277.532 87.1193C277.93 87.017 278.341 86.9432 278.765 86.8977C279.276 86.8447 279.691 86.7973 280.009 86.7557C280.327 86.7102 280.558 86.642 280.702 86.5511C280.85 86.4564 280.924 86.3106 280.924 86.1136V86.0795C280.924 85.6515 280.797 85.3201 280.543 85.0852C280.29 84.8504 279.924 84.733 279.447 84.733C278.943 84.733 278.543 84.8428 278.248 85.0625C277.956 85.2822 277.759 85.5417 277.657 85.8409L275.737 85.5682C275.888 85.0379 276.138 84.5947 276.487 84.2386C276.835 83.8788 277.261 83.6098 277.765 83.4318C278.269 83.25 278.826 83.1591 279.435 83.1591C279.856 83.1591 280.274 83.2083 280.691 83.3068C281.108 83.4053 281.488 83.5682 281.833 83.7955C282.178 84.0189 282.454 84.3239 282.663 84.7102C282.875 85.0966 282.981 85.5795 282.981 86.1591V92H281.004V90.8011H280.935C280.81 91.0436 280.634 91.2708 280.407 91.483C280.183 91.6913 279.901 91.8598 279.56 91.9886C279.223 92.1136 278.827 92.1761 278.373 92.1761ZM278.907 90.6648C279.32 90.6648 279.678 90.5833 279.981 90.4205C280.284 90.2538 280.517 90.0341 280.68 89.7614C280.846 89.4886 280.93 89.1913 280.93 88.8693V87.8409C280.865 87.8939 280.755 87.9432 280.6 87.9886C280.449 88.0341 280.278 88.0739 280.089 88.108C279.899 88.142 279.712 88.1723 279.526 88.1989C279.341 88.2254 279.18 88.2481 279.043 88.267C278.737 88.3087 278.462 88.3769 278.219 88.4716C277.977 88.5663 277.786 88.6989 277.646 88.8693C277.505 89.036 277.435 89.2519 277.435 89.517C277.435 89.8958 277.574 90.1818 277.85 90.375C278.127 90.5682 278.479 90.6648 278.907 90.6648ZM289.407 83.2727V84.8636H284.39V83.2727H289.407ZM285.629 81.1818H287.685V89.375C287.685 89.6515 287.727 89.8636 287.81 90.0114C287.897 90.1553 288.011 90.2538 288.151 90.3068C288.291 90.3598 288.447 90.3864 288.617 90.3864C288.746 90.3864 288.863 90.3769 288.969 90.358C289.079 90.339 289.163 90.322 289.219 90.3068L289.566 91.9148C289.456 91.9527 289.299 91.9943 289.094 92.0398C288.894 92.0852 288.647 92.1117 288.356 92.1193C287.841 92.1345 287.377 92.0568 286.964 91.8864C286.551 91.7121 286.223 91.4432 285.981 91.0795C285.742 90.7159 285.625 90.2614 285.629 89.7159V81.1818ZM293.638 92.1761C293.085 92.1761 292.587 92.0777 292.144 91.8807C291.705 91.6799 291.356 91.3845 291.099 90.9943C290.845 90.6042 290.718 90.1231 290.718 89.5511C290.718 89.0587 290.809 88.6515 290.991 88.3295C291.173 88.0076 291.421 87.75 291.735 87.5568C292.049 87.3636 292.404 87.2178 292.798 87.1193C293.195 87.017 293.606 86.9432 294.031 86.8977C294.542 86.8447 294.957 86.7973 295.275 86.7557C295.593 86.7102 295.824 86.642 295.968 86.5511C296.116 86.4564 296.19 86.3106 296.19 86.1136V86.0795C296.19 85.6515 296.063 85.3201 295.809 85.0852C295.555 84.8504 295.19 84.733 294.712 84.733C294.209 84.733 293.809 84.8428 293.513 85.0625C293.222 85.2822 293.025 85.5417 292.923 85.8409L291.002 85.5682C291.154 85.0379 291.404 84.5947 291.752 84.2386C292.101 83.8788 292.527 83.6098 293.031 83.4318C293.534 83.25 294.091 83.1591 294.701 83.1591C295.121 83.1591 295.54 83.2083 295.957 83.3068C296.373 83.4053 296.754 83.5682 297.099 83.7955C297.443 84.0189 297.72 84.3239 297.928 84.7102C298.14 85.0966 298.246 85.5795 298.246 86.1591V92H296.269V90.8011H296.201C296.076 91.0436 295.9 91.2708 295.673 91.483C295.449 91.6913 295.167 91.8598 294.826 91.9886C294.489 92.1136 294.093 92.1761 293.638 92.1761ZM294.173 90.6648C294.585 90.6648 294.943 90.5833 295.246 90.4205C295.549 90.2538 295.782 90.0341 295.945 89.7614C296.112 89.4886 296.195 89.1913 296.195 88.8693V87.8409C296.131 87.8939 296.021 87.9432 295.866 87.9886C295.714 88.0341 295.544 88.0739 295.354 88.108C295.165 88.142 294.978 88.1723 294.792 88.1989C294.606 88.2254 294.445 88.2481 294.309 88.267C294.002 88.3087 293.728 88.3769 293.485 88.4716C293.243 88.5663 293.051 88.6989 292.911 88.8693C292.771 89.036 292.701 89.2519 292.701 89.517C292.701 89.8958 292.839 90.1818 293.116 90.375C293.392 90.5682 293.745 90.6648 294.173 90.6648ZM300.406 92V80.3636H302.462V84.7159H302.548C302.654 84.5038 302.803 84.2784 302.996 84.0398C303.19 83.7973 303.451 83.5909 303.781 83.4205C304.11 83.2462 304.531 83.1591 305.042 83.1591C305.716 83.1591 306.324 83.3314 306.866 83.6761C307.411 84.017 307.843 84.5227 308.161 85.1932C308.483 85.8598 308.644 86.678 308.644 87.6477C308.644 88.6061 308.487 89.4205 308.173 90.0909C307.858 90.7614 307.43 91.2727 306.888 91.625C306.347 91.9773 305.733 92.1534 305.048 92.1534C304.548 92.1534 304.133 92.0701 303.803 91.9034C303.474 91.7367 303.209 91.536 303.008 91.3011C302.811 91.0625 302.657 90.8371 302.548 90.625H302.428V92H300.406ZM302.423 87.6364C302.423 88.2008 302.502 88.6951 302.661 89.1193C302.824 89.5436 303.057 89.875 303.36 90.1136C303.667 90.3485 304.038 90.4659 304.474 90.4659C304.928 90.4659 305.309 90.3447 305.616 90.1023C305.923 89.8561 306.154 89.5208 306.309 89.0966C306.468 88.6686 306.548 88.1818 306.548 87.6364C306.548 87.0947 306.47 86.6136 306.315 86.1932C306.159 85.7727 305.928 85.4432 305.621 85.2045C305.315 84.9659 304.932 84.8466 304.474 84.8466C304.034 84.8466 303.661 84.9621 303.354 85.1932C303.048 85.4242 302.815 85.7481 302.656 86.1648C302.5 86.5814 302.423 87.072 302.423 87.6364ZM312.904 92.1761C312.351 92.1761 311.853 92.0777 311.41 91.8807C310.97 91.6799 310.622 91.3845 310.364 90.9943C310.111 90.6042 309.984 90.1231 309.984 89.5511C309.984 89.0587 310.075 88.6515 310.256 88.3295C310.438 88.0076 310.686 87.75 311.001 87.5568C311.315 87.3636 311.669 87.2178 312.063 87.1193C312.461 87.017 312.872 86.9432 313.296 86.8977C313.808 86.8447 314.222 86.7973 314.54 86.7557C314.859 86.7102 315.09 86.642 315.234 86.5511C315.381 86.4564 315.455 86.3106 315.455 86.1136V86.0795C315.455 85.6515 315.328 85.3201 315.075 85.0852C314.821 84.8504 314.455 84.733 313.978 84.733C313.474 84.733 313.075 84.8428 312.779 85.0625C312.487 85.2822 312.29 85.5417 312.188 85.8409L310.268 85.5682C310.419 85.0379 310.669 84.5947 311.018 84.2386C311.366 83.8788 311.792 83.6098 312.296 83.4318C312.8 83.25 313.357 83.1591 313.967 83.1591C314.387 83.1591 314.806 83.2083 315.222 83.3068C315.639 83.4053 316.02 83.5682 316.364 83.7955C316.709 84.0189 316.986 84.3239 317.194 84.7102C317.406 85.0966 317.512 85.5795 317.512 86.1591V92H315.535V90.8011H315.467C315.342 91.0436 315.165 91.2708 314.938 91.483C314.715 91.6913 314.433 91.8598 314.092 91.9886C313.754 92.1136 313.359 92.1761 312.904 92.1761ZM313.438 90.6648C313.851 90.6648 314.209 90.5833 314.512 90.4205C314.815 90.2538 315.048 90.0341 315.211 89.7614C315.378 89.4886 315.461 89.1913 315.461 88.8693V87.8409C315.397 87.8939 315.287 87.9432 315.131 87.9886C314.98 88.0341 314.809 88.0739 314.62 88.108C314.431 88.142 314.243 88.1723 314.058 88.1989C313.872 88.2254 313.711 88.2481 313.575 88.267C313.268 88.3087 312.993 88.3769 312.751 88.4716C312.508 88.5663 312.317 88.6989 312.177 88.8693C312.037 89.036 311.967 89.2519 311.967 89.517C311.967 89.8958 312.105 90.1818 312.381 90.375C312.658 90.5682 313.01 90.6648 313.438 90.6648ZM326.478 85.5795L324.603 85.7841C324.55 85.5947 324.457 85.4167 324.325 85.25C324.196 85.0833 324.022 84.9489 323.802 84.8466C323.582 84.7443 323.313 84.6932 322.995 84.6932C322.567 84.6932 322.207 84.786 321.915 84.9716C321.628 85.1572 321.486 85.3977 321.489 85.6932C321.486 85.947 321.578 86.1534 321.768 86.3125C321.961 86.4716 322.279 86.6023 322.722 86.7045L324.211 87.0227C325.037 87.2008 325.65 87.483 326.052 87.8693C326.457 88.2557 326.662 88.7614 326.665 89.3864C326.662 89.9356 326.501 90.4205 326.183 90.8409C325.868 91.2576 325.431 91.5833 324.87 91.8182C324.309 92.053 323.665 92.1705 322.938 92.1705C321.87 92.1705 321.01 91.947 320.359 91.5C319.707 91.0492 319.319 90.4223 319.194 89.6193L321.2 89.4261C321.29 89.8201 321.484 90.1174 321.779 90.3182C322.075 90.5189 322.459 90.6193 322.933 90.6193C323.421 90.6193 323.813 90.5189 324.109 90.3182C324.408 90.1174 324.558 89.8693 324.558 89.5739C324.558 89.3239 324.461 89.1174 324.268 88.9545C324.078 88.7917 323.783 88.6667 323.381 88.5795L321.893 88.267C321.056 88.0928 320.436 87.7992 320.035 87.3864C319.633 86.9697 319.434 86.4432 319.438 85.8068C319.434 85.2689 319.58 84.803 319.876 84.4091C320.175 84.0114 320.59 83.7045 321.12 83.4886C321.654 83.2689 322.27 83.1591 322.967 83.1591C323.989 83.1591 324.794 83.3769 325.381 83.8125C325.972 84.2481 326.338 84.8371 326.478 85.5795ZM332.225 92.1705C331.35 92.1705 330.594 91.9886 329.958 91.625C329.326 91.2576 328.839 90.7386 328.498 90.0682C328.157 89.3939 327.987 88.6004 327.987 87.6875C327.987 86.7898 328.157 86.0019 328.498 85.3239C328.843 84.642 329.324 84.1117 329.941 83.733C330.558 83.3504 331.284 83.1591 332.117 83.1591C332.655 83.1591 333.163 83.2462 333.64 83.4205C334.121 83.5909 334.545 83.8561 334.913 84.2159C335.284 84.5758 335.576 85.0341 335.788 85.5909C336 86.1439 336.106 86.803 336.106 87.5682V88.1989H328.952V86.8125H334.134C334.13 86.4186 334.045 86.0682 333.879 85.7614C333.712 85.4508 333.479 85.2064 333.18 85.0284C332.884 84.8504 332.54 84.7614 332.146 84.7614C331.725 84.7614 331.356 84.8636 331.038 85.0682C330.719 85.2689 330.471 85.5341 330.293 85.8636C330.119 86.1894 330.03 86.5473 330.026 86.9375V88.1477C330.026 88.6553 330.119 89.0909 330.305 89.4545C330.49 89.8144 330.75 90.0909 331.083 90.2841C331.416 90.4735 331.807 90.5682 332.254 90.5682C332.553 90.5682 332.824 90.5265 333.066 90.4432C333.308 90.3561 333.519 90.2292 333.697 90.0625C333.875 89.8958 334.009 89.6894 334.1 89.4432L336.021 89.6591C335.899 90.1667 335.668 90.6098 335.327 90.9886C334.99 91.3636 334.558 91.6553 334.032 91.8636C333.505 92.0682 332.903 92.1705 332.225 92.1705Z" fill="#005481"/>
<path d="M135.303 276.29H133.178C133.118 275.941 133.006 275.633 132.843 275.364C132.68 275.091 132.478 274.86 132.235 274.67C131.993 274.481 131.716 274.339 131.406 274.244C131.099 274.146 130.767 274.097 130.411 274.097C129.779 274.097 129.218 274.256 128.729 274.574C128.241 274.888 127.858 275.35 127.582 275.96C127.305 276.566 127.167 277.307 127.167 278.182C127.167 279.072 127.305 279.822 127.582 280.432C127.862 281.038 128.245 281.496 128.729 281.807C129.218 282.114 129.777 282.267 130.406 282.267C130.754 282.267 131.08 282.222 131.383 282.131C131.69 282.036 131.964 281.898 132.207 281.716C132.453 281.534 132.659 281.311 132.826 281.045C132.996 280.78 133.114 280.477 133.178 280.136L135.303 280.148C135.224 280.701 135.051 281.22 134.786 281.705C134.525 282.189 134.182 282.617 133.758 282.989C133.334 283.356 132.837 283.644 132.269 283.852C131.701 284.057 131.07 284.159 130.377 284.159C129.354 284.159 128.442 283.922 127.638 283.449C126.835 282.975 126.203 282.292 125.741 281.398C125.279 280.504 125.048 279.432 125.048 278.182C125.048 276.928 125.281 275.856 125.746 274.966C126.212 274.072 126.847 273.388 127.65 272.915C128.453 272.441 129.362 272.205 130.377 272.205C131.025 272.205 131.627 272.295 132.184 272.477C132.741 272.659 133.237 272.926 133.673 273.278C134.108 273.627 134.466 274.055 134.746 274.562C135.031 275.066 135.216 275.642 135.303 276.29ZM139.654 284.176C139.101 284.176 138.603 284.078 138.16 283.881C137.72 283.68 137.372 283.384 137.114 282.994C136.861 282.604 136.734 282.123 136.734 281.551C136.734 281.059 136.825 280.652 137.006 280.33C137.188 280.008 137.436 279.75 137.751 279.557C138.065 279.364 138.419 279.218 138.813 279.119C139.211 279.017 139.622 278.943 140.046 278.898C140.558 278.845 140.972 278.797 141.29 278.756C141.609 278.71 141.84 278.642 141.984 278.551C142.131 278.456 142.205 278.311 142.205 278.114V278.08C142.205 277.652 142.078 277.32 141.825 277.085C141.571 276.85 141.205 276.733 140.728 276.733C140.224 276.733 139.825 276.843 139.529 277.062C139.237 277.282 139.04 277.542 138.938 277.841L137.018 277.568C137.169 277.038 137.419 276.595 137.768 276.239C138.116 275.879 138.542 275.61 139.046 275.432C139.55 275.25 140.107 275.159 140.717 275.159C141.137 275.159 141.556 275.208 141.972 275.307C142.389 275.405 142.77 275.568 143.114 275.795C143.459 276.019 143.736 276.324 143.944 276.71C144.156 277.097 144.262 277.58 144.262 278.159V284H142.285V282.801H142.217C142.092 283.044 141.915 283.271 141.688 283.483C141.465 283.691 141.183 283.86 140.842 283.989C140.504 284.114 140.109 284.176 139.654 284.176ZM140.188 282.665C140.601 282.665 140.959 282.583 141.262 282.42C141.565 282.254 141.798 282.034 141.961 281.761C142.128 281.489 142.211 281.191 142.211 280.869V279.841C142.147 279.894 142.037 279.943 141.881 279.989C141.73 280.034 141.559 280.074 141.37 280.108C141.181 280.142 140.993 280.172 140.808 280.199C140.622 280.225 140.461 280.248 140.325 280.267C140.018 280.309 139.743 280.377 139.501 280.472C139.258 280.566 139.067 280.699 138.927 280.869C138.787 281.036 138.717 281.252 138.717 281.517C138.717 281.896 138.855 282.182 139.131 282.375C139.408 282.568 139.76 282.665 140.188 282.665ZM150.137 284.17C149.266 284.17 148.518 283.979 147.893 283.597C147.272 283.214 146.792 282.686 146.455 282.011C146.122 281.333 145.955 280.553 145.955 279.67C145.955 278.784 146.126 278.002 146.467 277.324C146.808 276.642 147.289 276.112 147.91 275.733C148.535 275.35 149.273 275.159 150.126 275.159C150.834 275.159 151.461 275.29 152.006 275.551C152.556 275.809 152.993 276.174 153.319 276.648C153.645 277.117 153.83 277.667 153.876 278.295H151.91C151.83 277.875 151.641 277.525 151.342 277.244C151.046 276.96 150.65 276.818 150.154 276.818C149.734 276.818 149.364 276.932 149.046 277.159C148.728 277.383 148.48 277.705 148.302 278.125C148.128 278.545 148.04 279.049 148.04 279.636C148.04 280.231 148.128 280.742 148.302 281.17C148.476 281.595 148.72 281.922 149.035 282.153C149.353 282.381 149.726 282.494 150.154 282.494C150.457 282.494 150.728 282.437 150.967 282.324C151.209 282.206 151.412 282.038 151.575 281.818C151.737 281.598 151.849 281.331 151.91 281.017H153.876C153.826 281.634 153.645 282.182 153.33 282.659C153.016 283.133 152.588 283.504 152.046 283.773C151.504 284.038 150.868 284.17 150.137 284.17ZM157.621 278.886V284H155.565V272.364H157.576V276.756H157.678C157.883 276.263 158.199 275.875 158.627 275.591C159.059 275.303 159.608 275.159 160.275 275.159C160.881 275.159 161.409 275.286 161.86 275.54C162.311 275.794 162.659 276.165 162.906 276.653C163.156 277.142 163.281 277.739 163.281 278.443V284H161.224V278.761C161.224 278.174 161.072 277.718 160.769 277.392C160.47 277.062 160.049 276.898 159.508 276.898C159.144 276.898 158.818 276.977 158.531 277.136C158.246 277.292 158.023 277.517 157.86 277.812C157.701 278.108 157.621 278.466 157.621 278.886ZM169.241 284.17C168.366 284.17 167.61 283.989 166.974 283.625C166.341 283.258 165.854 282.739 165.513 282.068C165.173 281.394 165.002 280.6 165.002 279.688C165.002 278.79 165.173 278.002 165.513 277.324C165.858 276.642 166.339 276.112 166.957 275.733C167.574 275.35 168.299 275.159 169.133 275.159C169.671 275.159 170.178 275.246 170.656 275.42C171.137 275.591 171.561 275.856 171.928 276.216C172.299 276.576 172.591 277.034 172.803 277.591C173.015 278.144 173.121 278.803 173.121 279.568V280.199H165.968V278.812H171.15C171.146 278.419 171.061 278.068 170.894 277.761C170.728 277.451 170.495 277.206 170.195 277.028C169.9 276.85 169.555 276.761 169.161 276.761C168.741 276.761 168.371 276.864 168.053 277.068C167.735 277.269 167.487 277.534 167.309 277.864C167.135 278.189 167.046 278.547 167.042 278.938V280.148C167.042 280.655 167.135 281.091 167.32 281.455C167.506 281.814 167.765 282.091 168.099 282.284C168.432 282.473 168.822 282.568 169.269 282.568C169.568 282.568 169.839 282.527 170.082 282.443C170.324 282.356 170.534 282.229 170.712 282.062C170.89 281.896 171.025 281.689 171.116 281.443L173.036 281.659C172.915 282.167 172.684 282.61 172.343 282.989C172.006 283.364 171.574 283.655 171.048 283.864C170.521 284.068 169.919 284.17 169.241 284.17Z" fill="#005481"/>
<path d="M436.319 276.29H434.194C434.133 275.941 434.022 275.633 433.859 275.364C433.696 275.091 433.493 274.86 433.251 274.67C433.008 274.481 432.732 274.339 432.421 274.244C432.114 274.146 431.783 274.097 431.427 274.097C430.794 274.097 430.234 274.256 429.745 274.574C429.256 274.888 428.874 275.35 428.597 275.96C428.321 276.566 428.183 277.307 428.183 278.182C428.183 279.072 428.321 279.822 428.597 280.432C428.878 281.038 429.26 281.496 429.745 281.807C430.234 282.114 430.792 282.267 431.421 282.267C431.77 282.267 432.095 282.222 432.398 282.131C432.705 282.036 432.98 281.898 433.222 281.716C433.469 281.534 433.675 281.311 433.842 281.045C434.012 280.78 434.129 280.477 434.194 280.136L436.319 280.148C436.239 280.701 436.067 281.22 435.802 281.705C435.54 282.189 435.198 282.617 434.773 282.989C434.349 283.356 433.853 283.644 433.285 283.852C432.717 284.057 432.086 284.159 431.393 284.159C430.37 284.159 429.457 283.922 428.654 283.449C427.851 282.975 427.219 282.292 426.756 281.398C426.294 280.504 426.063 279.432 426.063 278.182C426.063 276.928 426.296 275.856 426.762 274.966C427.228 274.072 427.862 273.388 428.665 272.915C429.469 272.441 430.378 272.205 431.393 272.205C432.04 272.205 432.643 272.295 433.2 272.477C433.756 272.659 434.253 272.926 434.688 273.278C435.124 273.627 435.482 274.055 435.762 274.562C436.046 275.066 436.232 275.642 436.319 276.29ZM441.965 284.17C441.113 284.17 440.374 283.983 439.749 283.608C439.124 283.233 438.639 282.708 438.295 282.034C437.954 281.36 437.783 280.572 437.783 279.67C437.783 278.769 437.954 277.979 438.295 277.301C438.639 276.623 439.124 276.097 439.749 275.722C440.374 275.347 441.113 275.159 441.965 275.159C442.817 275.159 443.556 275.347 444.181 275.722C444.806 276.097 445.289 276.623 445.63 277.301C445.975 277.979 446.147 278.769 446.147 279.67C446.147 280.572 445.975 281.36 445.63 282.034C445.289 282.708 444.806 283.233 444.181 283.608C443.556 283.983 442.817 284.17 441.965 284.17ZM441.977 282.523C442.439 282.523 442.825 282.396 443.136 282.142C443.446 281.884 443.677 281.54 443.829 281.108C443.984 280.676 444.062 280.195 444.062 279.665C444.062 279.131 443.984 278.648 443.829 278.216C443.677 277.78 443.446 277.434 443.136 277.176C442.825 276.919 442.439 276.79 441.977 276.79C441.503 276.79 441.109 276.919 440.795 277.176C440.484 277.434 440.251 277.78 440.096 278.216C439.944 278.648 439.869 279.131 439.869 279.665C439.869 280.195 439.944 280.676 440.096 281.108C440.251 281.54 440.484 281.884 440.795 282.142C441.109 282.396 441.503 282.523 441.977 282.523ZM449.95 278.886V284H447.893V275.273H449.859V276.756H449.961C450.162 276.267 450.482 275.879 450.921 275.591C451.364 275.303 451.912 275.159 452.563 275.159C453.165 275.159 453.69 275.288 454.137 275.545C454.588 275.803 454.936 276.176 455.183 276.665C455.433 277.153 455.556 277.746 455.552 278.443V284H453.495V278.761C453.495 278.178 453.344 277.722 453.04 277.392C452.741 277.062 452.326 276.898 451.796 276.898C451.436 276.898 451.116 276.977 450.836 277.136C450.559 277.292 450.342 277.517 450.183 277.812C450.027 278.108 449.95 278.466 449.95 278.886ZM462.063 275.273V276.864H456.904V275.273H462.063ZM458.194 284V274.449C458.194 273.862 458.315 273.373 458.558 272.983C458.804 272.593 459.133 272.301 459.546 272.108C459.959 271.915 460.417 271.818 460.921 271.818C461.277 271.818 461.594 271.847 461.87 271.903C462.147 271.96 462.351 272.011 462.484 272.057L462.075 273.648C461.987 273.621 461.878 273.595 461.745 273.568C461.612 273.538 461.465 273.523 461.302 273.523C460.919 273.523 460.648 273.616 460.489 273.801C460.334 273.983 460.256 274.244 460.256 274.585V284H458.194ZM463.674 284V275.273H465.731V284H463.674ZM464.708 274.034C464.382 274.034 464.102 273.926 463.867 273.71C463.632 273.491 463.515 273.227 463.515 272.92C463.515 272.61 463.632 272.347 463.867 272.131C464.102 271.911 464.382 271.801 464.708 271.801C465.038 271.801 465.318 271.911 465.549 272.131C465.784 272.347 465.901 272.61 465.901 272.92C465.901 273.227 465.784 273.491 465.549 273.71C465.318 273.926 465.038 274.034 464.708 274.034ZM471.641 287.455C470.903 287.455 470.268 287.354 469.738 287.153C469.208 286.956 468.781 286.691 468.46 286.358C468.138 286.025 467.914 285.655 467.789 285.25L469.641 284.801C469.725 284.972 469.846 285.14 470.005 285.307C470.164 285.477 470.378 285.617 470.647 285.727C470.92 285.841 471.263 285.898 471.675 285.898C472.259 285.898 472.742 285.756 473.124 285.472C473.507 285.191 473.698 284.729 473.698 284.085V282.432H473.596C473.49 282.644 473.335 282.862 473.13 283.085C472.929 283.309 472.662 283.496 472.329 283.648C471.999 283.799 471.585 283.875 471.085 283.875C470.414 283.875 469.806 283.718 469.261 283.403C468.719 283.085 468.287 282.612 467.965 281.983C467.647 281.35 467.488 280.559 467.488 279.608C467.488 278.65 467.647 277.841 467.965 277.182C468.287 276.519 468.721 276.017 469.266 275.676C469.812 275.331 470.42 275.159 471.09 275.159C471.602 275.159 472.022 275.246 472.352 275.42C472.685 275.591 472.95 275.797 473.147 276.04C473.344 276.278 473.494 276.504 473.596 276.716H473.71V275.273H475.738V284.142C475.738 284.888 475.56 285.506 475.204 285.994C474.848 286.483 474.361 286.848 473.744 287.091C473.126 287.333 472.425 287.455 471.641 287.455ZM471.658 282.261C472.094 282.261 472.465 282.155 472.772 281.943C473.079 281.731 473.312 281.426 473.471 281.028C473.63 280.631 473.71 280.153 473.71 279.597C473.71 279.047 473.63 278.566 473.471 278.153C473.316 277.741 473.085 277.42 472.778 277.193C472.475 276.962 472.102 276.847 471.658 276.847C471.2 276.847 470.817 276.966 470.511 277.205C470.204 277.443 469.973 277.771 469.817 278.188C469.662 278.6 469.585 279.07 469.585 279.597C469.585 280.131 469.662 280.598 469.817 281C469.977 281.398 470.21 281.708 470.516 281.932C470.827 282.152 471.208 282.261 471.658 282.261Z" fill="#005481"/>
<path opacity="0.4" d="M282.5 176.5H318.5V185.5C318.5 187.982 316.482 190 314 190H287C284.518 190 282.5 187.982 282.5 185.5V176.5Z" fill="#005481"/>
<path d="M282.5 167.5C282.5 165.018 284.518 163 287 163H314C316.482 163 318.5 165.018 318.5 167.5V176.5H282.5V167.5ZM291.5 169.75C291.5 168.505 290.495 167.5 289.25 167.5C288.005 167.5 287 168.505 287 169.75C287 170.995 288.005 172 289.25 172C290.495 172 291.5 170.995 291.5 169.75ZM295.438 168.062C294.502 168.062 293.75 168.815 293.75 169.75C293.75 170.685 294.502 171.437 295.438 171.437H312.312C313.248 171.437 314 170.685 314 169.75C314 168.815 313.248 168.062 312.312 168.062H295.438Z" fill="#005481"/>
<path d="M352 189.519L448.135 189.518C450.344 189.518 452.135 191.309 452.135 193.518L452.135 218" stroke="#0385FF" stroke-width="2" stroke-dasharray="4 4"/>
<path d="M249 190.481L153.135 190.482C150.926 190.482 149.135 192.272 149.135 194.482L149.135 218" stroke="#0385FF" stroke-width="2" stroke-dasharray="4 4"/>
<path opacity="0.4" d="M296.225 128.55V135.2C296.225 135.461 296.439 135.675 296.7 135.675H304.3C304.561 135.675 304.775 135.461 304.775 135.2V128.55C304.775 128.289 304.561 128.075 304.3 128.075C303.825 128.075 303.35 128.075 302.875 128.075C299.155 128.075 297.095 128.075 296.7 128.075C296.439 128.075 296.225 128.286 296.225 128.55Z" fill="#005481"/>
<path d="M298.125 124.75V126.65H302.875V124.75C302.875 123.438 301.812 122.375 300.5 122.375C299.188 122.375 298.125 123.438 298.125 124.75ZM296.7 126.65V124.75C296.7 122.651 298.401 120.95 300.5 120.95C302.599 120.95 304.3 122.651 304.3 124.75V126.65C305.348 126.65 306.2 127.502 306.2 128.55V135.2C306.2 136.248 305.348 137.1 304.3 137.1H296.7C295.652 137.1 294.8 136.248 294.8 135.2V128.55C294.8 127.502 295.652 126.65 296.7 126.65ZM302.875 128.075H298.125H296.7C296.439 128.075 296.225 128.289 296.225 128.55V135.2C296.225 135.461 296.439 135.675 296.7 135.675H304.3C304.561 135.675 304.775 135.461 304.775 135.2V128.55C304.775 128.289 304.561 128.075 304.3 128.075H302.875Z" fill="#005481"/>
<line x1="300.5" y1="114" x2="300.5" y2="121" stroke="#005481"/>
<line x1="300.5" y1="136" x2="300.5" y2="146" stroke="#005481"/>
<path opacity="0.4" d="M287.55 45.325V48.1C287.55 50.6553 293.349 52.725 300.5 52.725C307.651 52.725 313.45 50.6553 313.45 48.1V45.325C313.45 42.7697 307.651 40.7 300.5 40.7C293.349 40.7 287.55 42.7697 287.55 45.325ZM287.55 52.5978V57.35C287.55 59.9053 293.349 61.975 300.5 61.975C307.651 61.975 313.45 59.9053 313.45 57.35V52.5978C312.594 53.1644 311.612 53.6211 310.588 53.9853C307.871 54.9566 304.304 55.5 300.5 55.5C296.696 55.5 293.123 54.9508 290.412 53.9853C289.394 53.6211 288.406 53.1644 287.55 52.5978ZM287.55 61.8478V65.675C287.55 68.2303 293.349 70.3 300.5 70.3C307.651 70.3 313.45 68.2303 313.45 65.675V61.8478C312.594 62.4144 311.612 62.8711 310.588 63.2353C307.871 64.2066 304.304 64.75 300.5 64.75C296.696 64.75 293.123 64.2008 290.412 63.2353C289.394 62.8711 288.406 62.4144 287.55 61.8478Z" fill="#005481"/>
<path d="M287.55 52.5978V48.1C287.55 50.6553 293.349 52.725 300.5 52.725C307.651 52.725 313.45 50.6553 313.45 48.1V52.5978C312.594 53.1644 311.612 53.6211 310.588 53.9853C307.871 54.9566 304.304 55.5 300.5 55.5C296.696 55.5 293.123 54.9508 290.412 53.9853C289.394 53.6211 288.406 53.1644 287.55 52.5978ZM287.55 61.8478V57.35C287.55 59.9053 293.349 61.975 300.5 61.975C307.651 61.975 313.45 59.9053 313.45 57.35V61.8478C312.594 62.4144 311.612 62.8711 310.588 63.2353C307.871 64.2066 304.304 64.75 300.5 64.75C296.696 64.75 293.123 64.2008 290.412 63.2353C289.394 62.8711 288.406 62.4144 287.55 61.8478Z" fill="#005481"/>
<path opacity="0.4" d="M137.1 254.1V257.5C137.1 259.375 138.625 260.9 140.5 260.9H157.5C159.375 260.9 160.9 259.375 160.9 257.5V254.1C160.9 252.225 159.375 250.7 157.5 250.7H140.5C138.625 250.7 137.1 252.225 137.1 254.1ZM153.25 255.8C153.25 256.507 152.682 257.075 151.975 257.075C151.268 257.075 150.7 256.507 150.7 255.8C150.7 255.093 151.268 254.525 151.975 254.525C152.682 254.525 153.25 255.093 153.25 255.8ZM154.95 242.2C154.95 242.907 155.518 243.475 156.225 243.475C156.932 243.475 157.5 242.907 157.5 242.2C157.5 241.493 156.932 240.925 156.225 240.925C155.518 240.925 154.95 241.493 154.95 242.2ZM157.5 255.8C157.5 256.507 156.932 257.075 156.225 257.075C155.518 257.075 154.95 256.507 154.95 255.8C154.95 255.093 155.518 254.525 156.225 254.525C156.932 254.525 157.5 255.093 157.5 255.8Z" fill="#005481"/>
<path d="M140.5 237.1C138.625 237.1 137.1 238.625 137.1 240.5V243.9C137.1 245.775 138.625 247.3 140.5 247.3H157.5C159.375 247.3 160.9 245.775 160.9 243.9V240.5C160.9 238.625 159.375 237.1 157.5 237.1H140.5ZM151.975 240.925C152.682 240.925 153.25 241.493 153.25 242.2C153.25 242.907 152.682 243.475 151.975 243.475C151.268 243.475 150.7 242.907 150.7 242.2C150.7 241.493 151.268 240.925 151.975 240.925ZM154.95 242.2C154.95 241.493 155.518 240.925 156.225 240.925C156.932 240.925 157.5 241.493 157.5 242.2C157.5 242.907 156.932 243.475 156.225 243.475C155.518 243.475 154.95 242.907 154.95 242.2ZM156.225 257.075C156.932 257.075 157.5 256.507 157.5 255.8C157.5 255.093 156.932 254.525 156.225 254.525C155.518 254.525 154.95 255.093 154.95 255.8C154.95 256.507 155.518 257.075 156.225 257.075Z" fill="#005481"/>
<path opacity="0.4" d="M437.6 241V257.2C437.6 259.186 439.214 260.8 441.2 260.8H462.8C464.786 260.8 466.4 259.186 466.4 257.2V243.7C466.4 241.714 464.786 240.1 462.8 240.1H454.402C454.014 240.1 453.631 239.976 453.322 239.74L451.162 238.12C450.538 237.653 449.778 237.4 449.002 237.4H441.2C439.214 237.4 437.6 239.014 437.6 241ZM446.122 248.633C446.358 248.02 446.69 247.446 447.101 246.94C447.326 246.659 447.725 246.608 448.034 246.788C449.109 247.407 450.425 246.648 450.425 245.404C450.425 245.044 450.667 244.724 451.021 244.673C451.657 244.572 452.338 244.572 452.973 244.673C453.328 244.729 453.569 245.05 453.569 245.404C453.569 246.648 454.886 247.407 455.96 246.788C456.269 246.608 456.669 246.659 456.894 246.94C457.304 247.446 457.636 248.026 457.873 248.633C458.002 248.971 457.844 249.336 457.535 249.516C456.461 250.141 456.461 251.659 457.535 252.278C457.844 252.458 458.002 252.829 457.873 253.161C457.636 253.774 457.304 254.348 456.894 254.854C456.669 255.136 456.269 255.186 455.96 255.006C454.886 254.388 453.569 255.147 453.569 256.39C453.569 256.75 453.328 257.071 452.973 257.121C452.338 257.223 451.657 257.223 451.021 257.121C450.667 257.065 450.425 256.744 450.425 256.39C450.425 255.147 449.109 254.388 448.034 255.006C447.725 255.186 447.326 255.136 447.101 254.854C446.69 254.348 446.358 253.769 446.122 253.161C445.993 252.824 446.15 252.458 446.459 252.278C447.539 251.654 447.539 250.135 446.459 249.516C446.15 249.336 445.993 248.965 446.122 248.633ZM450.2 250.9C450.2 251.896 451.004 252.7 452 252.7C452.996 252.7 453.8 251.896 453.8 250.9C453.8 249.904 452.996 249.1 452 249.1C451.004 249.1 450.2 249.904 450.2 250.9Z" fill="#005481"/>
<path d="M457.878 248.633C458.008 248.971 457.85 249.336 457.541 249.516C456.466 250.141 456.466 251.659 457.541 252.278C457.85 252.458 458.008 252.829 457.878 253.161C457.642 253.774 457.31 254.348 456.899 254.854C456.674 255.136 456.275 255.186 455.966 255.006C454.891 254.387 453.575 255.147 453.575 256.39C453.575 256.75 453.333 257.071 452.979 257.121C452.343 257.222 451.663 257.222 451.027 257.121C450.673 257.065 450.431 256.744 450.431 256.39C450.431 255.147 449.114 254.387 448.04 255.006C447.731 255.186 447.331 255.136 447.106 254.854C446.696 254.348 446.364 253.769 446.128 253.161C445.998 252.824 446.156 252.458 446.465 252.278C447.545 251.654 447.545 250.135 446.465 249.516C446.156 249.336 445.998 248.965 446.128 248.633C446.364 248.02 446.696 247.446 447.106 246.94C447.331 246.659 447.731 246.608 448.04 246.788C449.114 247.407 450.431 246.647 450.431 245.404C450.431 245.044 450.673 244.724 451.027 244.673C451.663 244.572 452.343 244.572 452.979 244.673C453.333 244.729 453.575 245.05 453.575 245.404C453.575 246.647 454.891 247.407 455.966 246.788C456.275 246.608 456.674 246.659 456.899 246.94C457.31 247.446 457.642 248.026 457.878 248.633ZM452 252.7C452.996 252.7 453.8 251.896 453.8 250.9C453.8 249.904 452.996 249.1 452 249.1C451.004 249.1 450.2 249.904 450.2 250.9C450.2 251.896 451.004 252.7 452 252.7Z" fill="#005481"/>
</svg>
