<svg width="749" height="359" viewBox="0 0 749 359" fill="none" xmlns="http://www.w3.org/2000/svg">
<rect x="24.5" y="38.5" width="222" height="87" rx="7.5" fill="#EAF4FF" stroke="#0385FF"/>
<rect x="24.5" y="142.5" width="222" height="87" rx="7.5" fill="#EAF4FF" stroke="#0385FF"/>
<rect x="263.5" y="38.5" width="222" height="87" rx="7.5" fill="#EAF4FF" stroke="#0385FF"/>
<rect x="263.5" y="142.5" width="222" height="87" rx="7.5" fill="#EAF4FF" stroke="#0385FF"/>
<rect x="502.5" y="38.5" width="222" height="87" rx="7.5" fill="#EAF4FF" stroke="#0385FF"/>
<rect x="502.5" y="142.5" width="222" height="87" rx="7.5" fill="#EAF4FF" stroke="#0385FF"/>
<path d="M102.299 65V56.2727H104.265V57.7557H104.367C104.549 57.2557 104.85 56.8655 105.271 56.5852C105.691 56.3011 106.193 56.1591 106.776 56.1591C107.367 56.1591 107.865 56.303 108.271 56.5909C108.68 56.875 108.968 57.2633 109.134 57.7557H109.225C109.418 57.2708 109.744 56.8845 110.202 56.5966C110.665 56.3049 111.212 56.1591 111.844 56.1591C112.647 56.1591 113.303 56.4129 113.81 56.9205C114.318 57.428 114.572 58.1686 114.572 59.142V65H112.509V59.4602C112.509 58.9186 112.365 58.5227 112.077 58.2727C111.79 58.0189 111.437 57.892 111.021 57.892C110.524 57.892 110.136 58.0473 109.856 58.358C109.579 58.6648 109.441 59.0644 109.441 59.5568V65H107.424V59.375C107.424 58.9242 107.288 58.5644 107.015 58.2955C106.746 58.0265 106.394 57.892 105.958 57.892C105.663 57.892 105.394 57.9678 105.151 58.1193C104.909 58.267 104.716 58.4773 104.572 58.75C104.428 59.0189 104.356 59.3333 104.356 59.6932V65H102.299ZM119.17 65.1761C118.617 65.1761 118.119 65.0777 117.675 64.8807C117.236 64.6799 116.888 64.3845 116.63 63.9943C116.376 63.6042 116.249 63.1231 116.249 62.5511C116.249 62.0587 116.34 61.6515 116.522 61.3295C116.704 61.0076 116.952 60.75 117.266 60.5568C117.581 60.3636 117.935 60.2178 118.329 60.1193C118.727 60.017 119.138 59.9432 119.562 59.8977C120.073 59.8447 120.488 59.7973 120.806 59.7557C121.124 59.7102 121.355 59.642 121.499 59.5511C121.647 59.4564 121.721 59.3106 121.721 59.1136V59.0795C121.721 58.6515 121.594 58.3201 121.34 58.0852C121.086 57.8504 120.721 57.733 120.244 57.733C119.74 57.733 119.34 57.8428 119.045 58.0625C118.753 58.2822 118.556 58.5417 118.454 58.8409L116.533 58.5682C116.685 58.0379 116.935 57.5947 117.283 57.2386C117.632 56.8788 118.058 56.6098 118.562 56.4318C119.066 56.25 119.622 56.1591 120.232 56.1591C120.653 56.1591 121.071 56.2083 121.488 56.3068C121.905 56.4053 122.285 56.5682 122.63 56.7955C122.975 57.0189 123.251 57.3239 123.46 57.7102C123.672 58.0966 123.778 58.5795 123.778 59.1591V65H121.8V63.8011H121.732C121.607 64.0436 121.431 64.2708 121.204 64.483C120.98 64.6913 120.698 64.8598 120.357 64.9886C120.02 65.1136 119.624 65.1761 119.17 65.1761ZM119.704 63.6648C120.117 63.6648 120.475 63.5833 120.778 63.4205C121.081 63.2538 121.314 63.0341 121.477 62.7614C121.643 62.4886 121.727 62.1913 121.727 61.8693V60.8409C121.662 60.8939 121.552 60.9432 121.397 60.9886C121.246 61.0341 121.075 61.0739 120.886 61.108C120.696 61.142 120.509 61.1723 120.323 61.1989C120.138 61.2254 119.977 61.2481 119.84 61.267C119.533 61.3087 119.259 61.3769 119.016 61.4716C118.774 61.5663 118.583 61.6989 118.442 61.8693C118.302 62.036 118.232 62.2519 118.232 62.517C118.232 62.8958 118.371 63.1818 118.647 63.375C118.924 63.5682 119.276 63.6648 119.704 63.6648ZM127.903 59.8864V65H125.846V56.2727H127.812V57.7557H127.914C128.115 57.267 128.435 56.8788 128.874 56.5909C129.317 56.303 129.865 56.1591 130.516 56.1591C131.119 56.1591 131.643 56.2879 132.09 56.5455C132.541 56.803 132.889 57.1761 133.136 57.6648C133.386 58.1534 133.509 58.7462 133.505 59.4432V65H131.448V59.7614C131.448 59.178 131.297 58.7216 130.994 58.392C130.694 58.0625 130.28 57.8977 129.749 57.8977C129.389 57.8977 129.069 57.9773 128.789 58.1364C128.513 58.2917 128.295 58.517 128.136 58.8125C127.98 59.108 127.903 59.4659 127.903 59.8864ZM135.596 65V56.2727H137.653V65H135.596ZM136.63 55.0341C136.304 55.0341 136.024 54.9261 135.789 54.7102C135.554 54.4905 135.437 54.2273 135.437 53.9205C135.437 53.6098 135.554 53.3466 135.789 53.1307C136.024 52.911 136.304 52.8011 136.63 52.8011C136.96 52.8011 137.24 52.911 137.471 53.1307C137.706 53.3466 137.823 53.6098 137.823 53.9205C137.823 54.2273 137.706 54.4905 137.471 54.7102C137.24 54.9261 136.96 55.0341 136.63 55.0341ZM144.188 56.2727V57.8636H139.029V56.2727H144.188ZM140.319 65V55.4489C140.319 54.8617 140.44 54.3731 140.683 53.983C140.929 53.5928 141.258 53.3011 141.671 53.108C142.084 52.9148 142.542 52.8182 143.046 52.8182C143.402 52.8182 143.719 52.8466 143.995 52.9034C144.272 52.9602 144.476 53.0114 144.609 53.0568L144.2 54.6477C144.112 54.6212 144.003 54.5947 143.87 54.5682C143.737 54.5379 143.59 54.5227 143.427 54.5227C143.044 54.5227 142.773 54.6155 142.614 54.8011C142.459 54.983 142.381 55.2443 142.381 55.5852V65H140.319ZM149.335 65.1705C148.46 65.1705 147.704 64.9886 147.067 64.625C146.435 64.2576 145.948 63.7386 145.607 63.0682C145.266 62.3939 145.096 61.6004 145.096 60.6875C145.096 59.7898 145.266 59.0019 145.607 58.3239C145.952 57.642 146.433 57.1117 147.05 56.733C147.668 56.3504 148.393 56.1591 149.227 56.1591C149.764 56.1591 150.272 56.2462 150.749 56.4205C151.23 56.5909 151.655 56.8561 152.022 57.2159C152.393 57.5758 152.685 58.0341 152.897 58.5909C153.109 59.1439 153.215 59.803 153.215 60.5682V61.1989H146.062V59.8125H151.244C151.24 59.4186 151.155 59.0682 150.988 58.7614C150.821 58.4508 150.588 58.2064 150.289 58.0284C149.994 57.8504 149.649 57.7614 149.255 57.7614C148.835 57.7614 148.465 57.8636 148.147 58.0682C147.829 58.2689 147.581 58.5341 147.403 58.8636C147.228 59.1894 147.139 59.5473 147.136 59.9375V61.1477C147.136 61.6553 147.228 62.0909 147.414 62.4545C147.6 62.8144 147.859 63.0909 148.192 63.2841C148.526 63.4735 148.916 63.5682 149.363 63.5682C149.662 63.5682 149.933 63.5265 150.175 63.4432C150.418 63.3561 150.628 63.2292 150.806 63.0625C150.984 62.8958 151.119 62.6894 151.21 62.4432L153.13 62.6591C153.009 63.1667 152.778 63.6098 152.437 63.9886C152.1 64.3636 151.668 64.6553 151.141 64.8636C150.615 65.0682 150.013 65.1705 149.335 65.1705ZM161.853 58.5795L159.978 58.7841C159.925 58.5947 159.832 58.4167 159.7 58.25C159.571 58.0833 159.397 57.9489 159.177 57.8466C158.957 57.7443 158.688 57.6932 158.37 57.6932C157.942 57.6932 157.582 57.786 157.29 57.9716C157.003 58.1572 156.861 58.3977 156.864 58.6932C156.861 58.947 156.953 59.1534 157.143 59.3125C157.336 59.4716 157.654 59.6023 158.097 59.7045L159.586 60.0227C160.412 60.2008 161.025 60.483 161.427 60.8693C161.832 61.2557 162.037 61.7614 162.04 62.3864C162.037 62.9356 161.876 63.4205 161.558 63.8409C161.243 64.2576 160.806 64.5833 160.245 64.8182C159.684 65.053 159.04 65.1705 158.313 65.1705C157.245 65.1705 156.385 64.947 155.734 64.5C155.082 64.0492 154.694 63.4223 154.569 62.6193L156.575 62.4261C156.665 62.8201 156.859 63.1174 157.154 63.3182C157.45 63.5189 157.834 63.6193 158.308 63.6193C158.796 63.6193 159.188 63.5189 159.484 63.3182C159.783 63.1174 159.933 62.8693 159.933 62.5739C159.933 62.3239 159.836 62.1174 159.643 61.9545C159.453 61.7917 159.158 61.6667 158.756 61.5795L157.268 61.267C156.431 61.0928 155.811 60.7992 155.41 60.3864C155.008 59.9697 154.809 59.4432 154.813 58.8068C154.809 58.2689 154.955 57.803 155.251 57.4091C155.55 57.0114 155.965 56.7045 156.495 56.4886C157.029 56.2689 157.645 56.1591 158.342 56.1591C159.364 56.1591 160.169 56.3769 160.756 56.8125C161.347 57.2481 161.713 57.8371 161.853 58.5795ZM168.094 56.2727V57.8636H163.077V56.2727H168.094ZM164.316 54.1818H166.373V62.375C166.373 62.6515 166.415 62.8636 166.498 63.0114C166.585 63.1553 166.699 63.2538 166.839 63.3068C166.979 63.3598 167.134 63.3864 167.305 63.3864C167.433 63.3864 167.551 63.3769 167.657 63.358C167.767 63.339 167.85 63.322 167.907 63.3068L168.254 64.9148C168.144 64.9527 167.987 64.9943 167.782 65.0398C167.581 65.0852 167.335 65.1117 167.043 65.1193C166.528 65.1345 166.064 65.0568 165.651 64.8864C165.238 64.7121 164.911 64.4432 164.668 64.0795C164.43 63.7159 164.312 63.2614 164.316 62.7159V54.1818Z" fill="#005481"/>
<path d="M109.616 169V157.364H111.673V161.716H111.759C111.865 161.504 112.014 161.278 112.207 161.04C112.401 160.797 112.662 160.591 112.991 160.42C113.321 160.246 113.741 160.159 114.253 160.159C114.927 160.159 115.535 160.331 116.077 160.676C116.622 161.017 117.054 161.523 117.372 162.193C117.694 162.86 117.855 163.678 117.855 164.648C117.855 165.606 117.698 166.42 117.384 167.091C117.069 167.761 116.641 168.273 116.099 168.625C115.558 168.977 114.944 169.153 114.259 169.153C113.759 169.153 113.344 169.07 113.014 168.903C112.685 168.737 112.42 168.536 112.219 168.301C112.022 168.062 111.868 167.837 111.759 167.625H111.639V169H109.616ZM111.634 164.636C111.634 165.201 111.713 165.695 111.872 166.119C112.035 166.544 112.268 166.875 112.571 167.114C112.878 167.348 113.249 167.466 113.685 167.466C114.139 167.466 114.52 167.345 114.827 167.102C115.134 166.856 115.365 166.521 115.52 166.097C115.679 165.669 115.759 165.182 115.759 164.636C115.759 164.095 115.681 163.614 115.526 163.193C115.37 162.773 115.139 162.443 114.832 162.205C114.526 161.966 114.143 161.847 113.685 161.847C113.245 161.847 112.872 161.962 112.565 162.193C112.259 162.424 112.026 162.748 111.866 163.165C111.711 163.581 111.634 164.072 111.634 164.636ZM125.166 165.33V160.273H127.223V169H125.229V167.449H125.138C124.941 167.937 124.617 168.337 124.166 168.648C123.719 168.958 123.168 169.114 122.513 169.114C121.941 169.114 121.435 168.987 120.996 168.733C120.56 168.475 120.219 168.102 119.973 167.614C119.727 167.121 119.604 166.527 119.604 165.83V160.273H121.661V165.511C121.661 166.064 121.812 166.504 122.115 166.83C122.418 167.155 122.816 167.318 123.308 167.318C123.611 167.318 123.905 167.244 124.189 167.097C124.473 166.949 124.706 166.729 124.888 166.438C125.073 166.142 125.166 165.773 125.166 165.33ZM129.338 169V160.273H131.395V169H129.338ZM130.372 159.034C130.046 159.034 129.766 158.926 129.531 158.71C129.296 158.491 129.179 158.227 129.179 157.92C129.179 157.61 129.296 157.347 129.531 157.131C129.766 156.911 130.046 156.801 130.372 156.801C130.702 156.801 130.982 156.911 131.213 157.131C131.448 157.347 131.565 157.61 131.565 157.92C131.565 158.227 131.448 158.491 131.213 158.71C130.982 158.926 130.702 159.034 130.372 159.034ZM135.567 157.364V169H133.51V157.364H135.567ZM140.92 169.153C140.235 169.153 139.621 168.977 139.08 168.625C138.538 168.273 138.11 167.761 137.795 167.091C137.481 166.42 137.324 165.606 137.324 164.648C137.324 163.678 137.483 162.86 137.801 162.193C138.123 161.523 138.557 161.017 139.102 160.676C139.648 160.331 140.256 160.159 140.926 160.159C141.438 160.159 141.858 160.246 142.188 160.42C142.517 160.591 142.778 160.797 142.972 161.04C143.165 161.278 143.314 161.504 143.42 161.716H143.506V157.364H145.568V169H143.545V167.625H143.42C143.314 167.837 143.161 168.062 142.96 168.301C142.759 168.536 142.494 168.737 142.165 168.903C141.835 169.07 141.42 169.153 140.92 169.153ZM141.494 167.466C141.93 167.466 142.301 167.348 142.608 167.114C142.915 166.875 143.148 166.544 143.307 166.119C143.466 165.695 143.545 165.201 143.545 164.636C143.545 164.072 143.466 163.581 143.307 163.165C143.152 162.748 142.92 162.424 142.614 162.193C142.311 161.962 141.938 161.847 141.494 161.847C141.036 161.847 140.653 161.966 140.347 162.205C140.04 162.443 139.809 162.773 139.653 163.193C139.498 163.614 139.42 164.095 139.42 164.636C139.42 165.182 139.498 165.669 139.653 166.097C139.813 166.521 140.045 166.856 140.352 167.102C140.663 167.345 141.044 167.466 141.494 167.466ZM151.624 169.17C150.749 169.17 149.993 168.989 149.357 168.625C148.724 168.258 148.237 167.739 147.896 167.068C147.555 166.394 147.385 165.6 147.385 164.688C147.385 163.79 147.555 163.002 147.896 162.324C148.241 161.642 148.722 161.112 149.339 160.733C149.957 160.35 150.682 160.159 151.516 160.159C152.054 160.159 152.561 160.246 153.038 160.42C153.519 160.591 153.944 160.856 154.311 161.216C154.682 161.576 154.974 162.034 155.186 162.591C155.398 163.144 155.504 163.803 155.504 164.568V165.199H148.351V163.812H153.533C153.529 163.419 153.444 163.068 153.277 162.761C153.11 162.451 152.877 162.206 152.578 162.028C152.283 161.85 151.938 161.761 151.544 161.761C151.124 161.761 150.754 161.864 150.436 162.068C150.118 162.269 149.87 162.534 149.692 162.864C149.518 163.189 149.429 163.547 149.425 163.938V165.148C149.425 165.655 149.518 166.091 149.703 166.455C149.889 166.814 150.148 167.091 150.482 167.284C150.815 167.473 151.205 167.568 151.652 167.568C151.951 167.568 152.222 167.527 152.464 167.443C152.707 167.356 152.917 167.229 153.095 167.062C153.273 166.896 153.408 166.689 153.499 166.443L155.419 166.659C155.298 167.167 155.067 167.61 154.726 167.989C154.389 168.364 153.957 168.655 153.43 168.864C152.904 169.068 152.302 169.17 151.624 169.17ZM157.244 169V160.273H159.239V161.727H159.33C159.489 161.223 159.761 160.835 160.148 160.562C160.538 160.286 160.983 160.148 161.483 160.148C161.597 160.148 161.723 160.153 161.864 160.165C162.008 160.172 162.127 160.186 162.222 160.205V162.097C162.134 162.066 161.996 162.04 161.807 162.017C161.621 161.991 161.441 161.977 161.267 161.977C160.892 161.977 160.555 162.059 160.256 162.222C159.96 162.381 159.727 162.602 159.557 162.886C159.386 163.17 159.301 163.498 159.301 163.869V169H157.244Z" fill="#005481"/>
<path d="M345.593 65V53.3636H349.957C350.851 53.3636 351.601 53.5303 352.207 53.8636C352.817 54.197 353.277 54.6553 353.587 55.2386C353.902 55.8182 354.059 56.4773 354.059 57.2159C354.059 57.9621 353.902 58.625 353.587 59.2045C353.273 59.7841 352.809 60.2405 352.195 60.5739C351.582 60.9034 350.826 61.0682 349.928 61.0682H347.036V59.3352H349.644C350.167 59.3352 350.595 59.2443 350.928 59.0625C351.262 58.8807 351.508 58.6307 351.667 58.3125C351.83 57.9943 351.911 57.6288 351.911 57.2159C351.911 56.803 351.83 56.4394 351.667 56.125C351.508 55.8106 351.26 55.5663 350.923 55.392C350.589 55.214 350.159 55.125 349.633 55.125H347.701V65H345.593ZM355.799 65V56.2727H357.793V57.7273H357.884C358.043 57.2235 358.316 56.8352 358.702 56.5625C359.093 56.286 359.538 56.1477 360.038 56.1477C360.151 56.1477 360.278 56.1534 360.418 56.1648C360.562 56.1723 360.682 56.1856 360.776 56.2045V58.0966C360.689 58.0663 360.551 58.0398 360.362 58.017C360.176 57.9905 359.996 57.9773 359.822 57.9773C359.447 57.9773 359.11 58.0587 358.81 58.2216C358.515 58.3807 358.282 58.6023 358.112 58.8864C357.941 59.1705 357.856 59.4981 357.856 59.8693V65H355.799ZM365.59 65.1705C364.738 65.1705 363.999 64.983 363.374 64.608C362.749 64.233 362.264 63.7083 361.92 63.0341C361.579 62.3598 361.408 61.572 361.408 60.6705C361.408 59.7689 361.579 58.9792 361.92 58.3011C362.264 57.6231 362.749 57.0966 363.374 56.7216C363.999 56.3466 364.738 56.1591 365.59 56.1591C366.442 56.1591 367.181 56.3466 367.806 56.7216C368.431 57.0966 368.914 57.6231 369.255 58.3011C369.6 58.9792 369.772 59.7689 369.772 60.6705C369.772 61.572 369.6 62.3598 369.255 63.0341C368.914 63.7083 368.431 64.233 367.806 64.608C367.181 64.983 366.442 65.1705 365.59 65.1705ZM365.602 63.5227C366.064 63.5227 366.45 63.3958 366.761 63.142C367.071 62.8845 367.302 62.5398 367.454 62.108C367.609 61.6761 367.687 61.1951 367.687 60.6648C367.687 60.1307 367.609 59.6477 367.454 59.2159C367.302 58.7803 367.071 58.4337 366.761 58.1761C366.45 57.9186 366.064 57.7898 365.602 57.7898C365.128 57.7898 364.734 57.9186 364.42 58.1761C364.109 58.4337 363.876 58.7803 363.721 59.2159C363.569 59.6477 363.494 60.1307 363.494 60.6648C363.494 61.1951 363.569 61.6761 363.721 62.108C363.876 62.5398 364.109 62.8845 364.42 63.142C364.734 63.3958 365.128 63.5227 365.602 63.5227ZM375.325 65.1705C374.453 65.1705 373.705 64.9792 373.08 64.5966C372.459 64.214 371.98 63.6856 371.643 63.0114C371.309 62.3333 371.143 61.553 371.143 60.6705C371.143 59.7841 371.313 59.0019 371.654 58.3239C371.995 57.642 372.476 57.1117 373.097 56.733C373.722 56.3504 374.461 56.1591 375.313 56.1591C376.022 56.1591 376.648 56.2898 377.194 56.5511C377.743 56.8087 378.181 57.1742 378.506 57.6477C378.832 58.1174 379.018 58.6667 379.063 59.2955H377.097C377.018 58.875 376.828 58.5246 376.529 58.2443C376.234 57.9602 375.838 57.8182 375.342 57.8182C374.921 57.8182 374.552 57.9318 374.234 58.1591C373.915 58.3826 373.667 58.7045 373.489 59.125C373.315 59.5455 373.228 60.0492 373.228 60.6364C373.228 61.2311 373.315 61.7424 373.489 62.1705C373.664 62.5947 373.908 62.9223 374.222 63.1534C374.54 63.3807 374.914 63.4943 375.342 63.4943C375.645 63.4943 375.915 63.4375 376.154 63.3239C376.397 63.2064 376.599 63.0379 376.762 62.8182C376.925 62.5985 377.037 62.3314 377.097 62.017H379.063C379.014 62.6345 378.832 63.1818 378.518 63.6591C378.203 64.1326 377.775 64.5038 377.234 64.7727C376.692 65.0379 376.056 65.1705 375.325 65.1705ZM385.173 56.2727V57.8636H380.013V56.2727H385.173ZM381.303 65V55.4489C381.303 54.8617 381.424 54.3731 381.667 53.983C381.913 53.5928 382.243 53.3011 382.656 53.108C383.068 52.9148 383.527 52.8182 384.031 52.8182C384.387 52.8182 384.703 52.8466 384.979 52.9034C385.256 52.9602 385.46 53.0114 385.593 53.0568L385.184 54.6477C385.097 54.6212 384.987 54.5947 384.854 54.5682C384.722 54.5379 384.574 54.5227 384.411 54.5227C384.029 54.5227 383.758 54.6155 383.599 54.8011C383.443 54.983 383.366 55.2443 383.366 55.5852V65H381.303ZM386.783 65V56.2727H388.84V65H386.783ZM387.817 55.0341C387.492 55.0341 387.211 54.9261 386.977 54.7102C386.742 54.4905 386.624 54.2273 386.624 53.9205C386.624 53.6098 386.742 53.3466 386.977 53.1307C387.211 52.911 387.492 52.8011 387.817 52.8011C388.147 52.8011 388.427 52.911 388.658 53.1307C388.893 53.3466 389.011 53.6098 389.011 53.9205C389.011 54.2273 388.893 54.4905 388.658 54.7102C388.427 54.9261 388.147 55.0341 387.817 55.0341ZM393.012 53.3636V65H390.955V53.3636H393.012ZM398.991 65.1705C398.116 65.1705 397.36 64.9886 396.724 64.625C396.091 64.2576 395.604 63.7386 395.263 63.0682C394.923 62.3939 394.752 61.6004 394.752 60.6875C394.752 59.7898 394.923 59.0019 395.263 58.3239C395.608 57.642 396.089 57.1117 396.707 56.733C397.324 56.3504 398.049 56.1591 398.883 56.1591C399.421 56.1591 399.928 56.2462 400.406 56.4205C400.887 56.5909 401.311 56.8561 401.678 57.2159C402.049 57.5758 402.341 58.0341 402.553 58.5909C402.765 59.1439 402.871 59.803 402.871 60.5682V61.1989H395.718V59.8125H400.9C400.896 59.4186 400.811 59.0682 400.644 58.7614C400.478 58.4508 400.245 58.2064 399.945 58.0284C399.65 57.8504 399.305 57.7614 398.911 57.7614C398.491 57.7614 398.121 57.8636 397.803 58.0682C397.485 58.2689 397.237 58.5341 397.059 58.8636C396.885 59.1894 396.796 59.5473 396.792 59.9375V61.1477C396.792 61.6553 396.885 62.0909 397.07 62.4545C397.256 62.8144 397.515 63.0909 397.849 63.2841C398.182 63.4735 398.572 63.5682 399.019 63.5682C399.318 63.5682 399.589 63.5265 399.832 63.4432C400.074 63.3561 400.284 63.2292 400.462 63.0625C400.64 62.8958 400.775 62.6894 400.866 62.4432L402.786 62.6591C402.665 63.1667 402.434 63.6098 402.093 63.9886C401.756 64.3636 401.324 64.6553 400.798 64.8636C400.271 65.0682 399.669 65.1705 398.991 65.1705Z" fill="#005481"/>
<path d="M350.205 169V160.273H352.2V161.727H352.29C352.45 161.223 352.722 160.835 353.109 160.562C353.499 160.286 353.944 160.148 354.444 160.148C354.558 160.148 354.684 160.153 354.825 160.165C354.969 160.172 355.088 160.186 355.183 160.205V162.097C355.095 162.066 354.957 162.04 354.768 162.017C354.582 161.991 354.402 161.977 354.228 161.977C353.853 161.977 353.516 162.059 353.217 162.222C352.921 162.381 352.688 162.602 352.518 162.886C352.347 163.17 352.262 163.498 352.262 163.869V169H350.205ZM359.996 169.17C359.144 169.17 358.406 168.983 357.781 168.608C357.156 168.233 356.671 167.708 356.326 167.034C355.985 166.36 355.815 165.572 355.815 164.67C355.815 163.769 355.985 162.979 356.326 162.301C356.671 161.623 357.156 161.097 357.781 160.722C358.406 160.347 359.144 160.159 359.996 160.159C360.849 160.159 361.587 160.347 362.212 160.722C362.837 161.097 363.32 161.623 363.661 162.301C364.006 162.979 364.178 163.769 364.178 164.67C364.178 165.572 364.006 166.36 363.661 167.034C363.32 167.708 362.837 168.233 362.212 168.608C361.587 168.983 360.849 169.17 359.996 169.17ZM360.008 167.523C360.47 167.523 360.856 167.396 361.167 167.142C361.478 166.884 361.709 166.54 361.86 166.108C362.015 165.676 362.093 165.195 362.093 164.665C362.093 164.131 362.015 163.648 361.86 163.216C361.709 162.78 361.478 162.434 361.167 162.176C360.856 161.919 360.47 161.79 360.008 161.79C359.534 161.79 359.14 161.919 358.826 162.176C358.515 162.434 358.282 162.78 358.127 163.216C357.976 163.648 357.9 164.131 357.9 164.665C357.9 165.195 357.976 165.676 358.127 166.108C358.282 166.54 358.515 166.884 358.826 167.142C359.14 167.396 359.534 167.523 360.008 167.523ZM371.487 165.33V160.273H373.543V169H371.549V167.449H371.458C371.261 167.937 370.937 168.337 370.487 168.648C370.04 168.958 369.488 169.114 368.833 169.114C368.261 169.114 367.755 168.987 367.316 168.733C366.88 168.475 366.54 168.102 366.293 167.614C366.047 167.121 365.924 166.527 365.924 165.83V160.273H367.981V165.511C367.981 166.064 368.132 166.504 368.435 166.83C368.738 167.155 369.136 167.318 369.629 167.318C369.932 167.318 370.225 167.244 370.509 167.097C370.793 166.949 371.026 166.729 371.208 166.438C371.394 166.142 371.487 165.773 371.487 165.33ZM380.016 160.273V161.864H374.999V160.273H380.016ZM376.238 158.182H378.295V166.375C378.295 166.652 378.336 166.864 378.42 167.011C378.507 167.155 378.621 167.254 378.761 167.307C378.901 167.36 379.056 167.386 379.227 167.386C379.355 167.386 379.473 167.377 379.579 167.358C379.689 167.339 379.772 167.322 379.829 167.307L380.175 168.915C380.066 168.953 379.908 168.994 379.704 169.04C379.503 169.085 379.257 169.112 378.965 169.119C378.45 169.134 377.986 169.057 377.573 168.886C377.16 168.712 376.833 168.443 376.59 168.08C376.352 167.716 376.234 167.261 376.238 166.716V158.182ZM385.506 169.17C384.631 169.17 383.876 168.989 383.239 168.625C382.607 168.258 382.12 167.739 381.779 167.068C381.438 166.394 381.268 165.6 381.268 164.688C381.268 163.79 381.438 163.002 381.779 162.324C382.124 161.642 382.605 161.112 383.222 160.733C383.84 160.35 384.565 160.159 385.398 160.159C385.936 160.159 386.444 160.246 386.921 160.42C387.402 160.591 387.826 160.856 388.194 161.216C388.565 161.576 388.857 162.034 389.069 162.591C389.281 163.144 389.387 163.803 389.387 164.568V165.199H382.234V163.812H387.415C387.412 163.419 387.326 163.068 387.16 162.761C386.993 162.451 386.76 162.206 386.461 162.028C386.165 161.85 385.821 161.761 385.427 161.761C385.006 161.761 384.637 161.864 384.319 162.068C384.001 162.269 383.753 162.534 383.575 162.864C383.4 163.189 383.311 163.547 383.308 163.938V165.148C383.308 165.655 383.4 166.091 383.586 166.455C383.772 166.814 384.031 167.091 384.364 167.284C384.698 167.473 385.088 167.568 385.535 167.568C385.834 167.568 386.105 167.527 386.347 167.443C386.59 167.356 386.8 167.229 386.978 167.062C387.156 166.896 387.29 166.689 387.381 166.443L389.302 166.659C389.181 167.167 388.95 167.61 388.609 167.989C388.272 168.364 387.84 168.655 387.313 168.864C386.787 169.068 386.184 169.17 385.506 169.17ZM398.025 162.58L396.15 162.784C396.097 162.595 396.004 162.417 395.871 162.25C395.743 162.083 395.568 161.949 395.349 161.847C395.129 161.744 394.86 161.693 394.542 161.693C394.114 161.693 393.754 161.786 393.462 161.972C393.174 162.157 393.032 162.398 393.036 162.693C393.032 162.947 393.125 163.153 393.315 163.312C393.508 163.472 393.826 163.602 394.269 163.705L395.758 164.023C396.584 164.201 397.197 164.483 397.599 164.869C398.004 165.256 398.209 165.761 398.212 166.386C398.209 166.936 398.048 167.42 397.729 167.841C397.415 168.258 396.978 168.583 396.417 168.818C395.856 169.053 395.212 169.17 394.485 169.17C393.417 169.17 392.557 168.947 391.906 168.5C391.254 168.049 390.866 167.422 390.741 166.619L392.746 166.426C392.837 166.82 393.031 167.117 393.326 167.318C393.621 167.519 394.006 167.619 394.479 167.619C394.968 167.619 395.36 167.519 395.656 167.318C395.955 167.117 396.104 166.869 396.104 166.574C396.104 166.324 396.008 166.117 395.815 165.955C395.625 165.792 395.33 165.667 394.928 165.58L393.44 165.267C392.603 165.093 391.983 164.799 391.582 164.386C391.18 163.97 390.981 163.443 390.985 162.807C390.981 162.269 391.127 161.803 391.423 161.409C391.722 161.011 392.137 160.705 392.667 160.489C393.201 160.269 393.817 160.159 394.513 160.159C395.536 160.159 396.341 160.377 396.928 160.812C397.519 161.248 397.885 161.837 398.025 162.58Z" fill="#005481"/>
<path d="M580.501 56.2727V57.8636H575.342V56.2727H580.501ZM576.631 65V55.4489C576.631 54.8617 576.753 54.3731 576.995 53.983C577.241 53.5928 577.571 53.3011 577.984 53.108C578.397 52.9148 578.855 52.8182 579.359 52.8182C579.715 52.8182 580.031 52.8466 580.308 52.9034C580.584 52.9602 580.789 53.0114 580.921 53.0568L580.512 54.6477C580.425 54.6212 580.315 54.5947 580.183 54.5682C580.05 54.5379 579.902 54.5227 579.739 54.5227C579.357 54.5227 579.086 54.6155 578.927 54.8011C578.772 54.983 578.694 55.2443 578.694 55.5852V65H576.631ZM582.112 65V56.2727H584.168V65H582.112ZM583.146 55.0341C582.82 55.0341 582.54 54.9261 582.305 54.7102C582.07 54.4905 581.952 54.2273 581.952 53.9205C581.952 53.6098 582.07 53.3466 582.305 53.1307C582.54 52.911 582.82 52.8011 583.146 52.8011C583.475 52.8011 583.755 52.911 583.987 53.1307C584.221 53.3466 584.339 53.6098 584.339 53.9205C584.339 54.2273 584.221 54.4905 583.987 54.7102C583.755 54.9261 583.475 55.0341 583.146 55.0341ZM588.34 53.3636V65H586.283V53.3636H588.34ZM594.319 65.1705C593.444 65.1705 592.688 64.9886 592.052 64.625C591.419 64.2576 590.933 63.7386 590.592 63.0682C590.251 62.3939 590.08 61.6004 590.08 60.6875C590.08 59.7898 590.251 59.0019 590.592 58.3239C590.936 57.642 591.417 57.1117 592.035 56.733C592.652 56.3504 593.378 56.1591 594.211 56.1591C594.749 56.1591 595.256 56.2462 595.734 56.4205C596.215 56.5909 596.639 56.8561 597.006 57.2159C597.378 57.5758 597.669 58.0341 597.881 58.5909C598.094 59.1439 598.2 59.803 598.2 60.5682V61.1989H591.046V59.8125H596.228C596.224 59.4186 596.139 59.0682 595.972 58.7614C595.806 58.4508 595.573 58.2064 595.273 58.0284C594.978 57.8504 594.633 57.7614 594.239 57.7614C593.819 57.7614 593.45 57.8636 593.131 58.0682C592.813 58.2689 592.565 58.5341 592.387 58.8636C592.213 59.1894 592.124 59.5473 592.12 59.9375V61.1477C592.12 61.6553 592.213 62.0909 592.398 62.4545C592.584 62.8144 592.844 63.0909 593.177 63.2841C593.51 63.4735 593.9 63.5682 594.347 63.5682C594.647 63.5682 594.917 63.5265 595.16 63.4432C595.402 63.3561 595.612 63.2292 595.79 63.0625C595.969 62.8958 596.103 62.6894 596.194 62.4432L598.114 62.6591C597.993 63.1667 597.762 63.6098 597.421 63.9886C597.084 64.3636 596.652 64.6553 596.126 64.8636C595.599 65.0682 594.997 65.1705 594.319 65.1705ZM603.908 65V56.2727H605.965V65H603.908ZM604.942 55.0341C604.617 55.0341 604.336 54.9261 604.102 54.7102C603.867 54.4905 603.749 54.2273 603.749 53.9205C603.749 53.6098 603.867 53.3466 604.102 53.1307C604.336 52.911 604.617 52.8011 604.942 52.8011C605.272 52.8011 605.552 52.911 605.783 53.1307C606.018 53.3466 606.136 53.6098 606.136 53.9205C606.136 54.2273 606.018 54.4905 605.783 54.7102C605.552 54.9261 605.272 55.0341 604.942 55.0341ZM611.876 68.4545C611.137 68.4545 610.503 68.3542 609.972 68.1534C609.442 67.9564 609.016 67.6913 608.694 67.358C608.372 67.0246 608.148 66.6553 608.023 66.25L609.876 65.8011C609.959 65.9716 610.08 66.1402 610.239 66.3068C610.398 66.4773 610.612 66.6174 610.881 66.7273C611.154 66.8409 611.497 66.8977 611.91 66.8977C612.493 66.8977 612.976 66.7557 613.359 66.4716C613.741 66.1913 613.933 65.7292 613.933 65.0852V63.4318H613.83C613.724 63.6439 613.569 63.8617 613.364 64.0852C613.164 64.3087 612.897 64.4962 612.563 64.6477C612.234 64.7992 611.819 64.875 611.319 64.875C610.648 64.875 610.04 64.7178 609.495 64.4034C608.953 64.0852 608.522 63.6117 608.2 62.983C607.881 62.3504 607.722 61.5587 607.722 60.608C607.722 59.6496 607.881 58.8409 608.2 58.1818C608.522 57.5189 608.955 57.017 609.501 56.6761C610.046 56.3314 610.654 56.1591 611.325 56.1591C611.836 56.1591 612.256 56.2462 612.586 56.4205C612.919 56.5909 613.184 56.7973 613.381 57.0398C613.578 57.2784 613.728 57.5038 613.83 57.7159H613.944V56.2727H615.972V65.142C615.972 65.8883 615.794 66.5057 615.438 66.9943C615.082 67.483 614.595 67.8485 613.978 68.0909C613.361 68.3333 612.66 68.4545 611.876 68.4545ZM611.893 63.2614C612.328 63.2614 612.7 63.1553 613.006 62.9432C613.313 62.7311 613.546 62.4261 613.705 62.0284C613.864 61.6307 613.944 61.1534 613.944 60.5966C613.944 60.0473 613.864 59.5663 613.705 59.1534C613.55 58.7405 613.319 58.4205 613.012 58.1932C612.709 57.9621 612.336 57.8466 611.893 57.8466C611.434 57.8466 611.052 57.9659 610.745 58.2045C610.438 58.4432 610.207 58.7708 610.052 59.1875C609.897 59.6004 609.819 60.0701 609.819 60.5966C609.819 61.1307 609.897 61.5985 610.052 62C610.211 62.3977 610.444 62.7083 610.751 62.9318C611.061 63.1515 611.442 63.2614 611.893 63.2614ZM620.137 59.8864V65H618.08V56.2727H620.046V57.7557H620.148C620.349 57.267 620.669 56.8788 621.109 56.5909C621.552 56.303 622.099 56.1591 622.751 56.1591C623.353 56.1591 623.878 56.2879 624.325 56.5455C624.775 56.803 625.124 57.1761 625.37 57.6648C625.62 58.1534 625.743 58.7462 625.739 59.4432V65H623.683V59.7614C623.683 59.178 623.531 58.7216 623.228 58.392C622.929 58.0625 622.514 57.8977 621.984 57.8977C621.624 57.8977 621.304 57.9773 621.023 58.1364C620.747 58.2917 620.529 58.517 620.37 58.8125C620.215 59.108 620.137 59.4659 620.137 59.8864ZM631.637 65.1705C630.785 65.1705 630.046 64.983 629.421 64.608C628.796 64.233 628.311 63.7083 627.967 63.0341C627.626 62.3598 627.455 61.572 627.455 60.6705C627.455 59.7689 627.626 58.9792 627.967 58.3011C628.311 57.6231 628.796 57.0966 629.421 56.7216C630.046 56.3466 630.785 56.1591 631.637 56.1591C632.489 56.1591 633.228 56.3466 633.853 56.7216C634.478 57.0966 634.961 57.6231 635.302 58.3011C635.647 58.9792 635.819 59.7689 635.819 60.6705C635.819 61.572 635.647 62.3598 635.302 63.0341C634.961 63.7083 634.478 64.233 633.853 64.608C633.228 64.983 632.489 65.1705 631.637 65.1705ZM631.648 63.5227C632.111 63.5227 632.497 63.3958 632.808 63.142C633.118 62.8845 633.349 62.5398 633.501 62.108C633.656 61.6761 633.734 61.1951 633.734 60.6648C633.734 60.1307 633.656 59.6477 633.501 59.2159C633.349 58.7803 633.118 58.4337 632.808 58.1761C632.497 57.9186 632.111 57.7898 631.648 57.7898C631.175 57.7898 630.781 57.9186 630.467 58.1761C630.156 58.4337 629.923 58.7803 629.768 59.2159C629.616 59.6477 629.54 60.1307 629.54 60.6648C629.54 61.1951 629.616 61.6761 629.768 62.108C629.923 62.5398 630.156 62.8845 630.467 63.142C630.781 63.3958 631.175 63.5227 631.648 63.5227ZM637.565 65V56.2727H639.559V57.7273H639.65C639.809 57.2235 640.082 56.8352 640.468 56.5625C640.858 56.286 641.303 56.1477 641.803 56.1477C641.917 56.1477 642.044 56.1534 642.184 56.1648C642.328 56.1723 642.447 56.1856 642.542 56.2045V58.0966C642.455 58.0663 642.317 58.0398 642.127 58.017C641.942 57.9905 641.762 57.9773 641.587 57.9773C641.212 57.9773 640.875 58.0587 640.576 58.2216C640.281 58.3807 640.048 58.6023 639.877 58.8864C639.707 59.1705 639.621 59.4981 639.621 59.8693V65H637.565ZM647.413 65.1705C646.538 65.1705 645.782 64.9886 645.146 64.625C644.513 64.2576 644.026 63.7386 643.685 63.0682C643.344 62.3939 643.174 61.6004 643.174 60.6875C643.174 59.7898 643.344 59.0019 643.685 58.3239C644.03 57.642 644.511 57.1117 645.129 56.733C645.746 56.3504 646.471 56.1591 647.305 56.1591C647.843 56.1591 648.35 56.2462 648.827 56.4205C649.308 56.5909 649.733 56.8561 650.1 57.2159C650.471 57.5758 650.763 58.0341 650.975 58.5909C651.187 59.1439 651.293 59.803 651.293 60.5682V61.1989H644.14V59.8125H649.322C649.318 59.4186 649.233 59.0682 649.066 58.7614C648.899 58.4508 648.666 58.2064 648.367 58.0284C648.072 57.8504 647.727 57.7614 647.333 57.7614C646.913 57.7614 646.543 57.8636 646.225 58.0682C645.907 58.2689 645.659 58.5341 645.481 58.8636C645.307 59.1894 645.218 59.5473 645.214 59.9375V61.1477C645.214 61.6553 645.307 62.0909 645.492 62.4545C645.678 62.8144 645.937 63.0909 646.271 63.2841C646.604 63.4735 646.994 63.5682 647.441 63.5682C647.74 63.5682 648.011 63.5265 648.254 63.4432C648.496 63.3561 648.706 63.2292 648.884 63.0625C649.062 62.8958 649.197 62.6894 649.288 62.4432L651.208 62.6591C651.087 63.1667 650.856 63.6098 650.515 63.9886C650.178 64.3636 649.746 64.6553 649.219 64.8636C648.693 65.0682 648.091 65.1705 647.413 65.1705Z" fill="#005481"/>
<path d="M584.096 169V160.273H586.09V161.727H586.181C586.34 161.223 586.613 160.835 586.999 160.562C587.389 160.286 587.835 160.148 588.335 160.148C588.448 160.148 588.575 160.153 588.715 160.165C588.859 160.172 588.978 160.186 589.073 160.205V162.097C588.986 162.066 588.848 162.04 588.658 162.017C588.473 161.991 588.293 161.977 588.119 161.977C587.744 161.977 587.406 162.059 587.107 162.222C586.812 162.381 586.579 162.602 586.408 162.886C586.238 163.17 586.153 163.498 586.153 163.869V169H584.096ZM596.002 165.33V160.273H598.059V169H596.065V167.449H595.974C595.777 167.937 595.453 168.337 595.002 168.648C594.555 168.958 594.004 169.114 593.349 169.114C592.777 169.114 592.271 168.987 591.832 168.733C591.396 168.475 591.055 168.102 590.809 167.614C590.563 167.121 590.44 166.527 590.44 165.83V160.273H592.496V165.511C592.496 166.064 592.648 166.504 592.951 166.83C593.254 167.155 593.652 167.318 594.144 167.318C594.447 167.318 594.741 167.244 595.025 167.097C595.309 166.949 595.542 166.729 595.724 166.438C595.909 166.142 596.002 165.773 596.002 165.33ZM602.231 163.886V169H600.174V160.273H602.14V161.756H602.242C602.443 161.267 602.763 160.879 603.202 160.591C603.646 160.303 604.193 160.159 604.844 160.159C605.447 160.159 605.971 160.288 606.418 160.545C606.869 160.803 607.218 161.176 607.464 161.665C607.714 162.153 607.837 162.746 607.833 163.443V169H605.776V163.761C605.776 163.178 605.625 162.722 605.322 162.392C605.022 162.062 604.608 161.898 604.077 161.898C603.718 161.898 603.397 161.977 603.117 162.136C602.841 162.292 602.623 162.517 602.464 162.812C602.308 163.108 602.231 163.466 602.231 163.886ZM614.282 160.273V161.864H609.265V160.273H614.282ZM610.504 158.182H612.56V166.375C612.56 166.652 612.602 166.864 612.685 167.011C612.772 167.155 612.886 167.254 613.026 167.307C613.166 167.36 613.322 167.386 613.492 167.386C613.621 167.386 613.738 167.377 613.844 167.358C613.954 167.339 614.038 167.322 614.094 167.307L614.441 168.915C614.331 168.953 614.174 168.994 613.969 169.04C613.769 169.085 613.522 169.112 613.231 169.119C612.716 169.134 612.252 169.057 611.839 168.886C611.426 168.712 611.098 168.443 610.856 168.08C610.617 167.716 610.5 167.261 610.504 166.716V158.182ZM616.002 169V160.273H618.059V169H616.002ZM617.036 159.034C616.71 159.034 616.43 158.926 616.195 158.71C615.96 158.491 615.843 158.227 615.843 157.92C615.843 157.61 615.96 157.347 616.195 157.131C616.43 156.911 616.71 156.801 617.036 156.801C617.366 156.801 617.646 156.911 617.877 157.131C618.112 157.347 618.229 157.61 618.229 157.92C618.229 158.227 618.112 158.491 617.877 158.71C617.646 158.926 617.366 159.034 617.036 159.034ZM620.174 169V160.273H622.14V161.756H622.242C622.424 161.256 622.725 160.866 623.146 160.585C623.566 160.301 624.068 160.159 624.651 160.159C625.242 160.159 625.74 160.303 626.146 160.591C626.555 160.875 626.843 161.263 627.009 161.756H627.1C627.293 161.271 627.619 160.884 628.077 160.597C628.54 160.305 629.087 160.159 629.719 160.159C630.522 160.159 631.178 160.413 631.685 160.92C632.193 161.428 632.447 162.169 632.447 163.142V169H630.384V163.46C630.384 162.919 630.24 162.523 629.952 162.273C629.665 162.019 629.312 161.892 628.896 161.892C628.399 161.892 628.011 162.047 627.731 162.358C627.454 162.665 627.316 163.064 627.316 163.557V169H625.299V163.375C625.299 162.924 625.163 162.564 624.89 162.295C624.621 162.027 624.269 161.892 623.833 161.892C623.538 161.892 623.269 161.968 623.026 162.119C622.784 162.267 622.591 162.477 622.447 162.75C622.303 163.019 622.231 163.333 622.231 163.693V169H620.174ZM638.397 169.17C637.522 169.17 636.766 168.989 636.13 168.625C635.497 168.258 635.011 167.739 634.67 167.068C634.329 166.394 634.158 165.6 634.158 164.688C634.158 163.79 634.329 163.002 634.67 162.324C635.014 161.642 635.496 161.112 636.113 160.733C636.73 160.35 637.456 160.159 638.289 160.159C638.827 160.159 639.335 160.246 639.812 160.42C640.293 160.591 640.717 160.856 641.085 161.216C641.456 161.576 641.747 162.034 641.96 162.591C642.172 163.144 642.278 163.803 642.278 164.568V165.199H635.124V163.812H640.306C640.302 163.419 640.217 163.068 640.05 162.761C639.884 162.451 639.651 162.206 639.352 162.028C639.056 161.85 638.711 161.761 638.317 161.761C637.897 161.761 637.528 161.864 637.21 162.068C636.891 162.269 636.643 162.534 636.465 162.864C636.291 163.189 636.202 163.547 636.198 163.938V165.148C636.198 165.655 636.291 166.091 636.477 166.455C636.662 166.814 636.922 167.091 637.255 167.284C637.588 167.473 637.978 167.568 638.425 167.568C638.725 167.568 638.996 167.527 639.238 167.443C639.48 167.356 639.691 167.229 639.869 167.062C640.047 166.896 640.181 166.689 640.272 166.443L642.192 166.659C642.071 167.167 641.84 167.61 641.499 167.989C641.162 168.364 640.73 168.655 640.204 168.864C639.677 169.068 639.075 169.17 638.397 169.17Z" fill="#005481"/>
<path d="M24 78H247V118C247 122.418 243.418 126 239 126H32C27.5817 126 24 122.418 24 118V78Z" fill="#363649"/>
<path d="M24 182H247V222C247 226.418 243.418 230 239 230H32C27.5817 230 24 226.418 24 222V182Z" fill="#363649"/>
<path d="M263 78H486V118C486 122.418 482.418 126 478 126H271C266.582 126 263 122.418 263 118V78Z" fill="#363649"/>
<path d="M263 182H486V222C486 226.418 482.418 230 478 230H271C266.582 230 263 226.418 263 222V182Z" fill="#363649"/>
<path d="M502 78H725V118C725 122.418 721.418 126 717 126H510C505.582 126 502 122.418 502 118V78Z" fill="#363649"/>
<path d="M502 182H725V222C725 226.418 721.418 230 717 230H510C505.582 230 502 226.418 502 222V182Z" fill="#363649"/>
<path d="M100.63 103.473H95.7422C95.7422 104.279 95.9746 104.945 96.4395 105.469C96.9089 105.993 97.4831 106.255 98.1621 106.255C98.8092 106.255 99.4769 106.139 100.165 105.906L100.35 106.761C99.7207 107.043 98.987 107.185 98.1484 107.185C97.0911 107.185 96.2389 106.845 95.5918 106.166C94.9447 105.487 94.6211 104.571 94.6211 103.418C94.6211 102.288 94.9105 101.388 95.4893 100.718C96.0726 100.043 96.8245 99.7061 97.7451 99.7061C98.5654 99.7061 99.2513 100.018 99.8027 100.643C100.354 101.267 100.63 102.099 100.63 103.138V103.473ZM99.4678 102.604C99.4678 102.049 99.2946 101.581 98.9482 101.203C98.6019 100.82 98.2145 100.629 97.7861 100.629C97.2347 100.629 96.7767 100.811 96.4121 101.176C96.0521 101.54 95.8516 102.017 95.8105 102.604H99.4678ZM104.403 100.8C104.64 100.472 104.959 100.207 105.36 100.007C105.766 99.8063 106.192 99.7061 106.639 99.7061C107.459 99.7061 108.102 100.046 108.566 100.725C109.036 101.399 109.271 102.279 109.271 103.363C109.271 104.457 109.024 105.368 108.532 106.098C108.045 106.822 107.386 107.185 106.557 107.185C106.115 107.185 105.7 107.075 105.312 106.856C104.93 106.633 104.627 106.339 104.403 105.975V109.816H103.337V99.877H104.403V100.8ZM104.403 101.859V104.819C104.604 105.22 104.875 105.555 105.217 105.824C105.559 106.093 105.912 106.228 106.276 106.228C106.851 106.228 107.306 105.959 107.644 105.421C107.985 104.883 108.156 104.215 108.156 103.418C108.156 102.598 107.994 101.928 107.671 101.408C107.347 100.889 106.896 100.629 106.317 100.629C105.565 100.629 104.927 101.039 104.403 101.859ZM114.938 97.1836C115.138 97.1836 115.309 97.2565 115.45 97.4023C115.591 97.5436 115.662 97.7145 115.662 97.915C115.662 98.1247 115.591 98.3001 115.45 98.4414C115.313 98.5827 115.143 98.6533 114.938 98.6533C114.751 98.6533 114.584 98.5804 114.438 98.4346C114.297 98.2842 114.227 98.111 114.227 97.915C114.227 97.7191 114.297 97.5482 114.438 97.4023C114.584 97.2565 114.751 97.1836 114.938 97.1836ZM115.457 107H114.391V100.8H112.292V99.877H115.457V107ZM125.643 107H124.576V102.434C124.576 101.8 124.474 101.342 124.269 101.06C124.068 100.772 123.751 100.629 123.318 100.629C122.667 100.629 121.967 101.035 121.22 101.846V107H120.153V99.877H121.22V100.923C121.985 100.112 122.792 99.7061 123.64 99.7061C124.975 99.7061 125.643 100.513 125.643 102.126V107ZM131.754 97.1836C131.954 97.1836 132.125 97.2565 132.267 97.4023C132.408 97.5436 132.479 97.7145 132.479 97.915C132.479 98.1247 132.408 98.3001 132.267 98.4414C132.13 98.5827 131.959 98.6533 131.754 98.6533C131.567 98.6533 131.401 98.5804 131.255 98.4346C131.114 98.2842 131.043 98.111 131.043 97.915C131.043 97.7191 131.114 97.5482 131.255 97.4023C131.401 97.2565 131.567 97.1836 131.754 97.1836ZM132.273 107H131.207V100.8H129.108V99.877H132.273V107ZM139.697 99.7061C140.677 99.7061 141.456 100.048 142.035 100.731C142.614 101.415 142.903 102.315 142.903 103.432C142.903 104.557 142.614 105.464 142.035 106.152C141.456 106.84 140.677 107.185 139.697 107.185C138.713 107.185 137.931 106.843 137.353 106.159C136.778 105.471 136.491 104.562 136.491 103.432C136.491 102.311 136.781 101.41 137.359 100.731C137.938 100.048 138.717 99.7061 139.697 99.7061ZM139.697 106.255C140.344 106.255 140.855 105.981 141.229 105.435C141.602 104.888 141.789 104.225 141.789 103.445C141.789 102.625 141.604 101.951 141.235 101.422C140.866 100.893 140.354 100.629 139.697 100.629C139.036 100.629 138.524 100.891 138.159 101.415C137.795 101.935 137.612 102.611 137.612 103.445C137.612 104.238 137.797 104.906 138.166 105.448C138.535 105.986 139.046 106.255 139.697 106.255ZM148.064 105.435C148.306 105.435 148.509 105.517 148.673 105.681C148.837 105.845 148.919 106.048 148.919 106.289C148.919 106.535 148.835 106.747 148.666 106.925C148.502 107.098 148.301 107.185 148.064 107.185C147.832 107.185 147.634 107.098 147.47 106.925C147.306 106.747 147.224 106.535 147.224 106.289C147.224 106.043 147.303 105.84 147.463 105.681C147.627 105.517 147.827 105.435 148.064 105.435ZM159.597 99.877L156.896 107C156.505 108.048 156.115 108.78 155.728 109.194C155.345 109.609 154.907 109.816 154.415 109.816C153.978 109.816 153.545 109.737 153.116 109.577L153.294 108.723C153.64 108.832 153.95 108.887 154.224 108.887C154.606 108.887 154.921 108.739 155.167 108.442C155.413 108.146 155.661 107.661 155.912 106.986L153.239 99.877H154.401L156.418 105.558L158.435 99.877H159.597ZM168.244 107H167.178V102.324C167.178 101.194 166.968 100.629 166.549 100.629C166.335 100.629 166.098 100.825 165.838 101.217C165.583 101.604 165.455 101.818 165.455 101.859V107H164.396V102.324C164.396 101.194 164.184 100.629 163.76 100.629C163.55 100.629 163.315 100.825 163.056 101.217C162.8 101.604 162.673 101.818 162.673 101.859V107H161.606V99.877H162.632V100.95C162.832 100.572 163.069 100.271 163.343 100.048C163.621 99.82 163.896 99.7061 164.17 99.7061C164.457 99.7061 164.715 99.82 164.942 100.048C165.17 100.271 165.327 100.572 165.414 100.95C165.615 100.572 165.854 100.271 166.132 100.048C166.41 99.82 166.683 99.7061 166.952 99.7061C167.813 99.7061 168.244 100.476 168.244 102.017V107ZM175.572 107H172.66V98.2773H170.801V97.3545H173.727V106.077H175.572V107Z" fill="#B9FFCE"/>
<path d="M93.917 201.184C94.1175 201.184 94.2884 201.257 94.4297 201.402C94.571 201.544 94.6416 201.715 94.6416 201.915C94.6416 202.125 94.571 202.3 94.4297 202.441C94.293 202.583 94.1221 202.653 93.917 202.653C93.7301 202.653 93.5638 202.58 93.418 202.435C93.2767 202.284 93.2061 202.111 93.2061 201.915C93.2061 201.719 93.2767 201.548 93.418 201.402C93.5638 201.257 93.7301 201.184 93.917 201.184ZM94.4365 211H93.3701V204.8H91.2715V203.877H94.4365V211ZM105.183 211H104.116V206.324C104.116 205.194 103.907 204.629 103.487 204.629C103.273 204.629 103.036 204.825 102.776 205.217C102.521 205.604 102.394 205.818 102.394 205.859V211H101.334V206.324C101.334 205.194 101.122 204.629 100.698 204.629C100.489 204.629 100.254 204.825 99.9941 205.217C99.7389 205.604 99.6113 205.818 99.6113 205.859V211H98.5449V203.877H99.5703V204.95C99.7708 204.572 100.008 204.271 100.281 204.048C100.559 203.82 100.835 203.706 101.108 203.706C101.396 203.706 101.653 203.82 101.881 204.048C102.109 204.271 102.266 204.572 102.353 204.95C102.553 204.572 102.792 204.271 103.07 204.048C103.348 203.82 103.622 203.706 103.891 203.706C104.752 203.706 105.183 204.476 105.183 206.017V211ZM113.208 211H112.148C112.062 210.713 112.019 210.33 112.019 209.852C111.412 210.74 110.588 211.185 109.544 211.185C109.015 211.185 108.548 210.998 108.143 210.624C107.742 210.246 107.541 209.76 107.541 209.168C107.541 208.817 107.612 208.507 107.753 208.238C107.894 207.969 108.102 207.744 108.375 207.562C108.648 207.375 108.981 207.229 109.373 207.124C109.765 207.015 110.23 206.939 110.768 206.898L111.964 206.803V206.461C111.964 205.24 111.394 204.629 110.255 204.629C109.986 204.629 109.644 204.688 109.229 204.807C108.819 204.921 108.466 205.057 108.17 205.217L107.89 204.451C108.86 203.954 109.763 203.706 110.597 203.706C112.219 203.706 113.03 204.565 113.03 206.283V209.346C113.03 209.965 113.09 210.517 113.208 211ZM111.964 208.888V207.596C111.002 207.682 110.341 207.764 109.981 207.842C109.626 207.915 109.316 208.054 109.052 208.259C108.792 208.464 108.662 208.742 108.662 209.093C108.662 209.412 108.774 209.669 108.997 209.865C109.22 210.061 109.505 210.159 109.852 210.159C110.23 210.159 110.606 210.048 110.979 209.824C111.353 209.596 111.681 209.284 111.964 208.888ZM117.925 208.313C117.259 208.637 116.927 208.922 116.927 209.168C116.927 209.3 117.002 209.412 117.152 209.503C117.307 209.594 117.517 209.64 117.781 209.64L120.181 209.571C120.75 209.571 121.192 209.71 121.507 209.988C121.826 210.266 121.985 210.66 121.985 211.171C121.985 211.978 121.625 212.62 120.905 213.099C120.185 213.577 119.344 213.816 118.383 213.816C117.594 213.816 116.95 213.65 116.448 213.317C115.947 212.989 115.696 212.563 115.696 212.039C115.696 211.469 116.084 210.989 116.858 210.597C116.216 210.296 115.895 209.927 115.895 209.489C115.895 208.988 116.309 208.521 117.139 208.088C116.756 207.855 116.462 207.555 116.257 207.186C116.052 206.816 115.949 206.427 115.949 206.017C115.949 205.347 116.177 204.798 116.633 204.369C117.089 203.936 117.658 203.72 118.342 203.72C118.834 203.72 119.278 203.822 119.675 204.027L121.787 203.706V204.745H120.427C120.632 205.105 120.734 205.529 120.734 206.017C120.734 206.664 120.509 207.211 120.058 207.657C119.606 208.104 119.035 208.327 118.342 208.327C118.196 208.327 118.057 208.323 117.925 208.313ZM118.342 207.5C118.734 207.5 119.053 207.366 119.299 207.097C119.549 206.823 119.675 206.468 119.675 206.03C119.675 205.57 119.554 205.21 119.312 204.95C119.071 204.69 118.747 204.561 118.342 204.561C117.964 204.561 117.645 204.697 117.385 204.971C117.13 205.24 117.002 205.593 117.002 206.03C117.002 206.459 117.13 206.812 117.385 207.09C117.645 207.363 117.964 207.5 118.342 207.5ZM118.383 212.989C119.085 212.989 119.682 212.832 120.174 212.518C120.671 212.208 120.919 211.823 120.919 211.362C120.919 210.888 120.568 210.651 119.866 210.651C119.634 210.651 119.233 210.665 118.663 210.692C118.303 210.711 118.021 210.72 117.815 210.72C117.715 210.72 117.558 210.802 117.344 210.966C117.134 211.13 116.972 211.294 116.858 211.458C116.749 211.627 116.694 211.8 116.694 211.978C116.694 212.256 116.849 212.493 117.159 212.688C117.469 212.889 117.877 212.989 118.383 212.989ZM130.059 207.473H125.171C125.171 208.279 125.403 208.945 125.868 209.469C126.338 209.993 126.912 210.255 127.591 210.255C128.238 210.255 128.906 210.139 129.594 209.906L129.778 210.761C129.149 211.043 128.416 211.185 127.577 211.185C126.52 211.185 125.668 210.845 125.021 210.166C124.373 209.487 124.05 208.571 124.05 207.418C124.05 206.288 124.339 205.388 124.918 204.718C125.501 204.043 126.253 203.706 127.174 203.706C127.994 203.706 128.68 204.018 129.231 204.643C129.783 205.267 130.059 206.099 130.059 207.138V207.473ZM128.896 206.604C128.896 206.049 128.723 205.581 128.377 205.203C128.031 204.82 127.643 204.629 127.215 204.629C126.663 204.629 126.205 204.811 125.841 205.176C125.481 205.54 125.28 206.017 125.239 206.604H128.896ZM146.369 201.17L142.179 211.185H141.174L145.344 201.17H146.369ZM163.842 210.398C163.085 210.923 162.208 211.185 161.21 211.185C159.961 211.185 159.011 210.756 158.359 209.899C157.712 209.043 157.389 207.803 157.389 206.181C157.389 204.613 157.703 203.387 158.332 202.503C158.961 201.614 159.92 201.17 161.21 201.17C161.675 201.17 162.135 201.229 162.591 201.348C163.047 201.466 163.413 201.623 163.691 201.819L163.322 202.701C162.68 202.337 161.976 202.154 161.21 202.154C160.321 202.154 159.66 202.478 159.228 203.125C158.795 203.768 158.578 204.786 158.578 206.181C158.578 208.86 159.455 210.2 161.21 210.2C161.953 210.2 162.714 209.972 163.493 209.517L163.842 210.398ZM172.038 211H170.794L167.335 203.385V211H166.214V201.354H167.465L170.938 208.901V201.354H172.038V211ZM178.696 205.709C179.339 205.859 179.842 206.151 180.207 206.584C180.572 207.017 180.754 207.532 180.754 208.129C180.754 209.004 180.435 209.701 179.797 210.221C179.163 210.74 178.4 211 177.507 211H174.766V201.354H177.438C178.368 201.354 179.095 201.56 179.619 201.97C180.143 202.375 180.405 202.95 180.405 203.692C180.405 204.148 180.253 204.554 179.947 204.909C179.646 205.265 179.229 205.522 178.696 205.682V205.709ZM175.887 205.189H177.199C178.571 205.189 179.257 204.7 179.257 203.72C179.257 203.273 179.088 202.931 178.751 202.694C178.414 202.453 177.919 202.332 177.268 202.332H175.887V205.189ZM175.887 210.022H177.158C177.901 210.022 178.489 209.854 178.922 209.517C179.359 209.179 179.578 208.717 179.578 208.129C179.578 207.505 179.364 207.021 178.936 206.68C178.507 206.338 177.887 206.167 177.076 206.167H175.887V210.022Z" fill="white"/>
<path d="M326.587 100.8C326.824 100.472 327.143 100.207 327.544 100.007C327.95 99.8063 328.376 99.7061 328.822 99.7061C329.643 99.7061 330.285 100.046 330.75 100.725C331.219 101.399 331.454 102.279 331.454 103.363C331.454 104.457 331.208 105.368 330.716 106.098C330.228 106.822 329.57 107.185 328.74 107.185C328.298 107.185 327.883 107.075 327.496 106.856C327.113 106.633 326.81 106.339 326.587 105.975V109.816H325.521V99.877H326.587V100.8ZM326.587 101.859V104.819C326.787 105.22 327.059 105.555 327.4 105.824C327.742 106.093 328.095 106.228 328.46 106.228C329.034 106.228 329.49 105.959 329.827 105.421C330.169 104.883 330.34 104.215 330.34 103.418C330.34 102.598 330.178 101.928 329.854 101.408C329.531 100.889 329.08 100.629 328.501 100.629C327.749 100.629 327.111 101.039 326.587 101.859ZM339.527 100.068L339.097 101.094C338.627 100.889 338.222 100.786 337.88 100.786C337.565 100.786 337.258 100.877 336.957 101.06C336.656 101.237 336.378 101.495 336.123 101.832C335.872 102.165 335.747 102.352 335.747 102.393V107H334.688V99.877H335.747V101.319C336.317 100.244 337.055 99.7061 337.962 99.7061C338.5 99.7061 339.021 99.8268 339.527 100.068ZM345.064 99.7061C346.044 99.7061 346.824 100.048 347.402 100.731C347.981 101.415 348.271 102.315 348.271 103.432C348.271 104.557 347.981 105.464 347.402 106.152C346.824 106.84 346.044 107.185 345.064 107.185C344.08 107.185 343.299 106.843 342.72 106.159C342.146 105.471 341.858 104.562 341.858 103.432C341.858 102.311 342.148 101.41 342.727 100.731C343.305 100.048 344.085 99.7061 345.064 99.7061ZM345.064 106.255C345.712 106.255 346.222 105.981 346.596 105.435C346.969 104.888 347.156 104.225 347.156 103.445C347.156 102.625 346.972 101.951 346.603 101.422C346.233 100.893 345.721 100.629 345.064 100.629C344.404 100.629 343.891 100.891 343.526 101.415C343.162 101.935 342.979 102.611 342.979 103.445C342.979 104.238 343.164 104.906 343.533 105.448C343.902 105.986 344.413 106.255 345.064 106.255ZM356.207 106.761C355.587 107.043 354.906 107.185 354.163 107.185C353.042 107.185 352.146 106.845 351.477 106.166C350.811 105.482 350.479 104.576 350.479 103.445C350.479 102.315 350.813 101.41 351.483 100.731C352.158 100.048 353.042 99.7061 354.136 99.7061C354.851 99.7061 355.533 99.8314 356.18 100.082L355.899 100.964C355.252 100.741 354.669 100.629 354.149 100.629C353.366 100.629 352.743 100.882 352.283 101.388C351.827 101.894 351.6 102.579 351.6 103.445C351.6 104.238 351.837 104.906 352.311 105.448C352.785 105.986 353.402 106.255 354.163 106.255C354.765 106.255 355.384 106.139 356.022 105.906L356.207 106.761ZM364.854 103.473H359.967C359.967 104.279 360.199 104.945 360.664 105.469C361.133 105.993 361.708 106.255 362.387 106.255C363.034 106.255 363.701 106.139 364.39 105.906L364.574 106.761C363.945 107.043 363.212 107.185 362.373 107.185C361.316 107.185 360.464 106.845 359.816 106.166C359.169 105.487 358.846 104.571 358.846 103.418C358.846 102.288 359.135 101.388 359.714 100.718C360.297 100.043 361.049 99.7061 361.97 99.7061C362.79 99.7061 363.476 100.018 364.027 100.643C364.579 101.267 364.854 102.099 364.854 103.138V103.473ZM363.692 102.604C363.692 102.049 363.519 101.581 363.173 101.203C362.826 100.82 362.439 100.629 362.011 100.629C361.459 100.629 361.001 100.811 360.637 101.176C360.277 101.54 360.076 102.017 360.035 102.604H363.692ZM372.306 100.896C371.709 100.7 371.146 100.602 370.617 100.602C370.038 100.602 369.58 100.7 369.243 100.896C368.906 101.087 368.737 101.344 368.737 101.668C368.737 101.873 368.815 102.053 368.97 102.208C369.125 102.358 369.435 102.5 369.899 102.632L370.918 102.926C371.387 103.058 371.77 103.217 372.066 103.404C372.363 103.587 372.584 103.81 372.729 104.074C372.88 104.334 372.955 104.637 372.955 104.983C372.955 105.662 372.67 106.2 372.101 106.597C371.531 106.989 370.806 107.185 369.927 107.185C369.052 107.185 368.329 107.052 367.76 106.788L367.965 105.865C368.562 106.148 369.202 106.289 369.886 106.289C370.478 106.289 370.959 106.18 371.328 105.961C371.702 105.738 371.889 105.444 371.889 105.079C371.889 104.833 371.795 104.614 371.608 104.423C371.426 104.227 370.993 104.024 370.31 103.814C369.758 103.646 369.353 103.521 369.093 103.438C368.833 103.352 368.591 103.227 368.368 103.062C368.145 102.898 367.974 102.702 367.855 102.475C367.742 102.247 367.685 101.992 367.685 101.709C367.685 101.094 367.953 100.606 368.491 100.246C369.029 99.8861 369.742 99.7061 370.631 99.7061C371.205 99.7061 371.843 99.804 372.545 100L372.306 100.896ZM380.714 100.896C380.117 100.7 379.554 100.602 379.025 100.602C378.447 100.602 377.989 100.7 377.651 100.896C377.314 101.087 377.146 101.344 377.146 101.668C377.146 101.873 377.223 102.053 377.378 102.208C377.533 102.358 377.843 102.5 378.308 102.632L379.326 102.926C379.796 103.058 380.178 103.217 380.475 103.404C380.771 103.587 380.992 103.81 381.138 104.074C381.288 104.334 381.363 104.637 381.363 104.983C381.363 105.662 381.078 106.2 380.509 106.597C379.939 106.989 379.215 107.185 378.335 107.185C377.46 107.185 376.738 107.052 376.168 106.788L376.373 105.865C376.97 106.148 377.61 106.289 378.294 106.289C378.886 106.289 379.367 106.18 379.736 105.961C380.11 105.738 380.297 105.444 380.297 105.079C380.297 104.833 380.203 104.614 380.017 104.423C379.834 104.227 379.401 104.024 378.718 103.814C378.166 103.646 377.761 103.521 377.501 103.438C377.241 103.352 377 103.227 376.776 103.062C376.553 102.898 376.382 102.702 376.264 102.475C376.15 102.247 376.093 101.992 376.093 101.709C376.093 101.094 376.362 100.606 376.899 100.246C377.437 99.8861 378.15 99.7061 379.039 99.7061C379.613 99.7061 380.251 99.804 380.953 100L380.714 100.896ZM398.344 106.679C397.628 107.007 396.924 107.171 396.231 107.171C394.96 107.171 394.324 106.499 394.324 105.154V100.8H392.957V99.877H394.324V97.9287H395.363V99.877H397.783V100.8H395.363V104.874C395.363 105.307 395.459 105.644 395.65 105.886C395.842 106.123 396.102 106.241 396.43 106.241C397.013 106.241 397.59 106.111 398.159 105.852L398.344 106.679ZM407.005 99.877L404.305 107C403.913 108.048 403.523 108.78 403.136 109.194C402.753 109.609 402.315 109.816 401.823 109.816C401.386 109.816 400.953 109.737 400.524 109.577L400.702 108.723C401.049 108.832 401.358 108.887 401.632 108.887C402.015 108.887 402.329 108.739 402.575 108.442C402.821 108.146 403.07 107.661 403.32 106.986L400.647 99.877H401.81L403.826 105.558L405.843 99.877H407.005ZM410.669 100.8C410.906 100.472 411.225 100.207 411.626 100.007C412.032 99.8063 412.458 99.7061 412.904 99.7061C413.725 99.7061 414.367 100.046 414.832 100.725C415.301 101.399 415.536 102.279 415.536 103.363C415.536 104.457 415.29 105.368 414.798 106.098C414.31 106.822 413.652 107.185 412.822 107.185C412.38 107.185 411.965 107.075 411.578 106.856C411.195 106.633 410.892 106.339 410.669 105.975V109.816H409.603V99.877H410.669V100.8ZM410.669 101.859V104.819C410.869 105.22 411.141 105.555 411.482 105.824C411.824 106.093 412.177 106.228 412.542 106.228C413.116 106.228 413.572 105.959 413.909 105.421C414.251 104.883 414.422 104.215 414.422 103.418C414.422 102.598 414.26 101.928 413.937 101.408C413.613 100.889 413.162 100.629 412.583 100.629C411.831 100.629 411.193 101.039 410.669 101.859ZM423.712 103.473H418.824C418.824 104.279 419.057 104.945 419.521 105.469C419.991 105.993 420.565 106.255 421.244 106.255C421.891 106.255 422.559 106.139 423.247 105.906L423.432 106.761C422.803 107.043 422.069 107.185 421.23 107.185C420.173 107.185 419.321 106.845 418.674 106.166C418.027 105.487 417.703 104.571 417.703 103.418C417.703 102.288 417.993 101.388 418.571 100.718C419.155 100.043 419.907 99.7061 420.827 99.7061C421.647 99.7061 422.333 100.018 422.885 100.643C423.436 101.267 423.712 102.099 423.712 103.138V103.473ZM422.55 102.604C422.55 102.049 422.377 101.581 422.03 101.203C421.684 100.82 421.297 100.629 420.868 100.629C420.317 100.629 419.859 100.811 419.494 101.176C419.134 101.54 418.934 102.017 418.893 102.604H422.55Z" fill="#FAC4FF"/>
<path d="M322.074 210.761C321.454 211.043 320.773 211.185 320.03 211.185C318.909 211.185 318.014 210.845 317.344 210.166C316.678 209.482 316.346 208.576 316.346 207.445C316.346 206.315 316.681 205.41 317.351 204.731C318.025 204.048 318.909 203.706 320.003 203.706C320.718 203.706 321.4 203.831 322.047 204.082L321.767 204.964C321.119 204.741 320.536 204.629 320.017 204.629C319.233 204.629 318.611 204.882 318.15 205.388C317.695 205.894 317.467 206.579 317.467 207.445C317.467 208.238 317.704 208.906 318.178 209.448C318.652 209.986 319.269 210.255 320.03 210.255C320.632 210.255 321.252 210.139 321.89 209.906L322.074 210.761ZM330.496 211H329.43V209.947C328.664 210.763 327.857 211.171 327.01 211.171C325.674 211.171 325.007 210.362 325.007 208.744V203.877H326.073V208.437C326.073 209.043 326.169 209.496 326.36 209.797C326.552 210.093 326.875 210.241 327.331 210.241C327.983 210.241 328.682 209.836 329.43 209.024V203.877H330.496V211ZM338.173 204.896C337.576 204.7 337.013 204.602 336.484 204.602C335.906 204.602 335.448 204.7 335.11 204.896C334.773 205.087 334.604 205.344 334.604 205.668C334.604 205.873 334.682 206.053 334.837 206.208C334.992 206.358 335.302 206.5 335.767 206.632L336.785 206.926C337.255 207.058 337.637 207.217 337.934 207.404C338.23 207.587 338.451 207.81 338.597 208.074C338.747 208.334 338.822 208.637 338.822 208.983C338.822 209.662 338.537 210.2 337.968 210.597C337.398 210.989 336.674 211.185 335.794 211.185C334.919 211.185 334.197 211.052 333.627 210.788L333.832 209.865C334.429 210.148 335.069 210.289 335.753 210.289C336.345 210.289 336.826 210.18 337.195 209.961C337.569 209.738 337.756 209.444 337.756 209.079C337.756 208.833 337.662 208.614 337.476 208.423C337.293 208.227 336.86 208.024 336.177 207.814C335.625 207.646 335.22 207.521 334.96 207.438C334.7 207.352 334.459 207.227 334.235 207.062C334.012 206.898 333.841 206.702 333.723 206.475C333.609 206.247 333.552 205.992 333.552 205.709C333.552 205.094 333.821 204.606 334.358 204.246C334.896 203.886 335.609 203.706 336.498 203.706C337.072 203.706 337.71 203.804 338.412 204L338.173 204.896ZM347.395 210.679C346.679 211.007 345.975 211.171 345.282 211.171C344.011 211.171 343.375 210.499 343.375 209.154V204.8H342.008V203.877H343.375V201.929H344.414V203.877H346.834V204.8H344.414V208.874C344.414 209.307 344.51 209.644 344.701 209.886C344.893 210.123 345.152 210.241 345.48 210.241C346.064 210.241 346.64 210.111 347.21 209.852L347.395 210.679ZM352.973 203.706C353.952 203.706 354.732 204.048 355.311 204.731C355.889 205.415 356.179 206.315 356.179 207.432C356.179 208.557 355.889 209.464 355.311 210.152C354.732 210.84 353.952 211.185 352.973 211.185C351.988 211.185 351.207 210.843 350.628 210.159C350.054 209.471 349.767 208.562 349.767 207.432C349.767 206.311 350.056 205.41 350.635 204.731C351.214 204.048 351.993 203.706 352.973 203.706ZM352.973 210.255C353.62 210.255 354.13 209.981 354.504 209.435C354.878 208.888 355.064 208.225 355.064 207.445C355.064 206.625 354.88 205.951 354.511 205.422C354.142 204.893 353.629 204.629 352.973 204.629C352.312 204.629 351.799 204.891 351.435 205.415C351.07 205.935 350.888 206.611 350.888 207.445C350.888 208.238 351.072 208.906 351.441 209.448C351.811 209.986 352.321 210.255 352.973 210.255ZM364.703 211H363.637V206.324C363.637 205.194 363.427 204.629 363.008 204.629C362.794 204.629 362.557 204.825 362.297 205.217C362.042 205.604 361.914 205.818 361.914 205.859V211H360.854V206.324C360.854 205.194 360.643 204.629 360.219 204.629C360.009 204.629 359.774 204.825 359.515 205.217C359.259 205.604 359.132 205.818 359.132 205.859V211H358.065V203.877H359.091V204.95C359.291 204.572 359.528 204.271 359.802 204.048C360.08 203.82 360.355 203.706 360.629 203.706C360.916 203.706 361.174 203.82 361.401 204.048C361.629 204.271 361.786 204.572 361.873 204.95C362.074 204.572 362.313 204.271 362.591 204.048C362.869 203.82 363.142 203.706 363.411 203.706C364.272 203.706 364.703 204.476 364.703 206.017V211ZM380.932 211H379.865V209.975C379.646 210.326 379.332 210.615 378.922 210.843C378.516 211.071 378.088 211.185 377.637 211.185C376.821 211.185 376.176 210.822 375.702 210.098C375.228 209.368 374.991 208.446 374.991 207.329C374.991 206.285 375.237 205.422 375.729 204.738C376.226 204.05 376.882 203.706 377.698 203.706C378.596 203.706 379.318 204.071 379.865 204.8V201.354H380.932V211ZM379.865 208.819V205.859C379.355 205.039 378.74 204.629 378.02 204.629C377.432 204.629 376.967 204.891 376.625 205.415C376.283 205.935 376.112 206.593 376.112 207.391C376.112 208.211 376.272 208.89 376.591 209.428C376.914 209.961 377.356 210.228 377.917 210.228C378.186 210.228 378.457 210.155 378.73 210.009C379.004 209.863 379.261 209.644 379.503 209.353C379.744 209.061 379.865 208.883 379.865 208.819ZM386.605 203.706C387.585 203.706 388.365 204.048 388.943 204.731C389.522 205.415 389.812 206.315 389.812 207.432C389.812 208.557 389.522 209.464 388.943 210.152C388.365 210.84 387.585 211.185 386.605 211.185C385.621 211.185 384.84 210.843 384.261 210.159C383.687 209.471 383.399 208.562 383.399 207.432C383.399 206.311 383.689 205.41 384.268 204.731C384.846 204.048 385.626 203.706 386.605 203.706ZM386.605 210.255C387.253 210.255 387.763 209.981 388.137 209.435C388.51 208.888 388.697 208.225 388.697 207.445C388.697 206.625 388.513 205.951 388.144 205.422C387.774 204.893 387.262 204.629 386.605 204.629C385.945 204.629 385.432 204.891 385.067 205.415C384.703 205.935 384.521 206.611 384.521 207.445C384.521 208.238 384.705 208.906 385.074 209.448C385.443 209.986 385.954 210.255 386.605 210.255ZM398.336 211H397.27V206.324C397.27 205.194 397.06 204.629 396.641 204.629C396.426 204.629 396.189 204.825 395.93 205.217C395.674 205.604 395.547 205.818 395.547 205.859V211H394.487V206.324C394.487 205.194 394.275 204.629 393.852 204.629C393.642 204.629 393.407 204.825 393.147 205.217C392.892 205.604 392.765 205.818 392.765 205.859V211H391.698V203.877H392.724V204.95C392.924 204.572 393.161 204.271 393.435 204.048C393.713 203.82 393.988 203.706 394.262 203.706C394.549 203.706 394.806 203.82 395.034 204.048C395.262 204.271 395.419 204.572 395.506 204.95C395.706 204.572 395.946 204.271 396.224 204.048C396.502 203.82 396.775 203.706 397.044 203.706C397.905 203.706 398.336 204.476 398.336 206.017V211ZM406.361 211H405.302C405.215 210.713 405.172 210.33 405.172 209.852C404.566 210.74 403.741 211.185 402.697 211.185C402.169 211.185 401.701 210.998 401.296 210.624C400.895 210.246 400.694 209.76 400.694 209.168C400.694 208.817 400.765 208.507 400.906 208.238C401.048 207.969 401.255 207.744 401.528 207.562C401.802 207.375 402.134 207.229 402.526 207.124C402.918 207.015 403.383 206.939 403.921 206.898L405.117 206.803V206.461C405.117 205.24 404.548 204.629 403.408 204.629C403.139 204.629 402.798 204.688 402.383 204.807C401.973 204.921 401.619 205.057 401.323 205.217L401.043 204.451C402.014 203.954 402.916 203.706 403.75 203.706C405.372 203.706 406.184 204.565 406.184 206.283V209.346C406.184 209.965 406.243 210.517 406.361 211ZM405.117 208.888V207.596C404.156 207.682 403.495 207.764 403.135 207.842C402.779 207.915 402.469 208.054 402.205 208.259C401.945 208.464 401.815 208.742 401.815 209.093C401.815 209.412 401.927 209.669 402.15 209.865C402.374 210.061 402.659 210.159 403.005 210.159C403.383 210.159 403.759 210.048 404.133 209.824C404.507 209.596 404.835 209.284 405.117 208.888ZM412.295 201.184C412.495 201.184 412.666 201.257 412.808 201.402C412.949 201.544 413.02 201.715 413.02 201.915C413.02 202.125 412.949 202.3 412.808 202.441C412.671 202.583 412.5 202.653 412.295 202.653C412.108 202.653 411.942 202.58 411.796 202.435C411.655 202.284 411.584 202.111 411.584 201.915C411.584 201.719 411.655 201.548 411.796 201.402C411.942 201.257 412.108 201.184 412.295 201.184ZM412.814 211H411.748V204.8H409.649V203.877H412.814V211ZM423 211H421.934V206.434C421.934 205.8 421.831 205.342 421.626 205.06C421.425 204.772 421.109 204.629 420.676 204.629C420.024 204.629 419.325 205.035 418.577 205.846V211H417.511V203.877H418.577V204.923C419.343 204.112 420.149 203.706 420.997 203.706C422.332 203.706 423 204.513 423 206.126V211ZM430.663 204.896C430.066 204.7 429.503 204.602 428.975 204.602C428.396 204.602 427.938 204.7 427.601 204.896C427.263 205.087 427.095 205.344 427.095 205.668C427.095 205.873 427.172 206.053 427.327 206.208C427.482 206.358 427.792 206.5 428.257 206.632L429.275 206.926C429.745 207.058 430.128 207.217 430.424 207.404C430.72 207.587 430.941 207.81 431.087 208.074C431.237 208.334 431.312 208.637 431.312 208.983C431.312 209.662 431.028 210.2 430.458 210.597C429.888 210.989 429.164 211.185 428.284 211.185C427.409 211.185 426.687 211.052 426.117 210.788L426.322 209.865C426.919 210.148 427.56 210.289 428.243 210.289C428.836 210.289 429.316 210.18 429.686 209.961C430.059 209.738 430.246 209.444 430.246 209.079C430.246 208.833 430.153 208.614 429.966 208.423C429.784 208.227 429.351 208.024 428.667 207.814C428.116 207.646 427.71 207.521 427.45 207.438C427.19 207.352 426.949 207.227 426.726 207.062C426.502 206.898 426.331 206.702 426.213 206.475C426.099 206.247 426.042 205.992 426.042 205.709C426.042 205.094 426.311 204.606 426.849 204.246C427.386 203.886 428.1 203.706 428.988 203.706C429.562 203.706 430.201 203.804 430.902 204L430.663 204.896Z" fill="white"/>
<path d="M579.319 105.435C579.561 105.435 579.764 105.517 579.928 105.681C580.092 105.845 580.174 106.048 580.174 106.289C580.174 106.535 580.09 106.747 579.921 106.925C579.757 107.098 579.556 107.185 579.319 107.185C579.087 107.185 578.889 107.098 578.725 106.925C578.561 106.747 578.479 106.535 578.479 106.289C578.479 106.043 578.558 105.84 578.718 105.681C578.882 105.517 579.082 105.435 579.319 105.435ZM590.742 103.473H585.854C585.854 104.279 586.087 104.945 586.552 105.469C587.021 105.993 587.595 106.255 588.274 106.255C588.922 106.255 589.589 106.139 590.277 105.906L590.462 106.761C589.833 107.043 589.099 107.185 588.261 107.185C587.203 107.185 586.351 106.845 585.704 106.166C585.057 105.487 584.733 104.571 584.733 103.418C584.733 102.288 585.023 101.388 585.602 100.718C586.185 100.043 586.937 99.7061 587.857 99.7061C588.678 99.7061 589.364 100.018 589.915 100.643C590.466 101.267 590.742 102.099 590.742 103.138V103.473ZM589.58 102.604C589.58 102.049 589.407 101.581 589.061 101.203C588.714 100.82 588.327 100.629 587.898 100.629C587.347 100.629 586.889 100.811 586.524 101.176C586.164 101.54 585.964 102.017 585.923 102.604H589.58ZM594.516 100.8C594.753 100.472 595.072 100.207 595.473 100.007C595.878 99.8063 596.304 99.7061 596.751 99.7061C597.571 99.7061 598.214 100.046 598.679 100.725C599.148 101.399 599.383 102.279 599.383 103.363C599.383 104.457 599.137 105.368 598.645 106.098C598.157 106.822 597.498 107.185 596.669 107.185C596.227 107.185 595.812 107.075 595.425 106.856C595.042 106.633 594.739 106.339 594.516 105.975V109.816H593.449V99.877H594.516V100.8ZM594.516 101.859V104.819C594.716 105.22 594.987 105.555 595.329 105.824C595.671 106.093 596.024 106.228 596.389 106.228C596.963 106.228 597.419 105.959 597.756 105.421C598.098 104.883 598.269 104.215 598.269 103.418C598.269 102.598 598.107 101.928 597.783 101.408C597.46 100.889 597.008 100.629 596.43 100.629C595.678 100.629 595.04 101.039 594.516 101.859ZM605.05 97.1836C605.25 97.1836 605.421 97.2565 605.562 97.4023C605.704 97.5436 605.774 97.7145 605.774 97.915C605.774 98.1247 605.704 98.3001 605.562 98.4414C605.426 98.5827 605.255 98.6533 605.05 98.6533C604.863 98.6533 604.697 98.5804 604.551 98.4346C604.41 98.2842 604.339 98.111 604.339 97.915C604.339 97.7191 604.41 97.5482 604.551 97.4023C604.697 97.2565 604.863 97.1836 605.05 97.1836ZM605.569 107H604.503V100.8H602.404V99.877H605.569V107ZM612.241 104.313C611.576 104.637 611.243 104.922 611.243 105.168C611.243 105.3 611.318 105.412 611.469 105.503C611.624 105.594 611.833 105.64 612.098 105.64L614.497 105.571C615.067 105.571 615.509 105.71 615.823 105.988C616.142 106.266 616.302 106.66 616.302 107.171C616.302 107.978 615.942 108.62 615.222 109.099C614.502 109.577 613.661 109.816 612.699 109.816C611.911 109.816 611.266 109.65 610.765 109.317C610.263 108.989 610.013 108.563 610.013 108.039C610.013 107.469 610.4 106.989 611.175 106.597C610.532 106.296 610.211 105.927 610.211 105.489C610.211 104.988 610.626 104.521 611.455 104.088C611.072 103.855 610.778 103.555 610.573 103.186C610.368 102.816 610.266 102.427 610.266 102.017C610.266 101.347 610.493 100.798 610.949 100.369C611.405 99.9362 611.975 99.7197 612.658 99.7197C613.15 99.7197 613.595 99.8223 613.991 100.027L616.104 99.7061V100.745H614.743C614.948 101.105 615.051 101.529 615.051 102.017C615.051 102.664 614.825 103.211 614.374 103.657C613.923 104.104 613.351 104.327 612.658 104.327C612.512 104.327 612.373 104.323 612.241 104.313ZM612.658 103.5C613.05 103.5 613.369 103.366 613.615 103.097C613.866 102.823 613.991 102.468 613.991 102.03C613.991 101.57 613.87 101.21 613.629 100.95C613.387 100.69 613.064 100.561 612.658 100.561C612.28 100.561 611.961 100.697 611.701 100.971C611.446 101.24 611.318 101.593 611.318 102.03C611.318 102.459 611.446 102.812 611.701 103.09C611.961 103.363 612.28 103.5 612.658 103.5ZM612.699 108.989C613.401 108.989 613.998 108.832 614.49 108.518C614.987 108.208 615.235 107.823 615.235 107.362C615.235 106.888 614.884 106.651 614.183 106.651C613.95 106.651 613.549 106.665 612.979 106.692C612.619 106.711 612.337 106.72 612.132 106.72C612.032 106.72 611.874 106.802 611.66 106.966C611.451 107.13 611.289 107.294 611.175 107.458C611.065 107.627 611.011 107.8 611.011 107.978C611.011 108.256 611.166 108.493 611.476 108.688C611.785 108.889 612.193 108.989 612.699 108.989ZM624.163 107H623.097V102.434C623.097 101.8 622.994 101.342 622.789 101.06C622.589 100.772 622.272 100.629 621.839 100.629C621.187 100.629 620.488 101.035 619.74 101.846V107H618.674V99.877H619.74V100.923C620.506 100.112 621.312 99.7061 622.16 99.7061C623.495 99.7061 624.163 100.513 624.163 102.126V107ZM629.81 99.7061C630.789 99.7061 631.569 100.048 632.147 100.731C632.726 101.415 633.016 102.315 633.016 103.432C633.016 104.557 632.726 105.464 632.147 106.152C631.569 106.84 630.789 107.185 629.81 107.185C628.825 107.185 628.044 106.843 627.465 106.159C626.891 105.471 626.604 104.562 626.604 103.432C626.604 102.311 626.893 101.41 627.472 100.731C628.05 100.048 628.83 99.7061 629.81 99.7061ZM629.81 106.255C630.457 106.255 630.967 105.981 631.341 105.435C631.715 104.888 631.901 104.225 631.901 103.445C631.901 102.625 631.717 101.951 631.348 101.422C630.979 100.893 630.466 100.629 629.81 100.629C629.149 100.629 628.636 100.891 628.271 101.415C627.907 101.935 627.725 102.611 627.725 103.445C627.725 104.238 627.909 104.906 628.278 105.448C628.647 105.986 629.158 106.255 629.81 106.255ZM641.089 100.068L640.658 101.094C640.189 100.889 639.783 100.786 639.441 100.786C639.127 100.786 638.819 100.877 638.519 101.06C638.218 101.237 637.94 101.495 637.685 101.832C637.434 102.165 637.309 102.352 637.309 102.393V107H636.249V99.877H637.309V101.319C637.878 100.244 638.617 99.7061 639.523 99.7061C640.061 99.7061 640.583 99.8268 641.089 100.068ZM649.6 103.473H644.712C644.712 104.279 644.944 104.945 645.409 105.469C645.879 105.993 646.453 106.255 647.132 106.255C647.779 106.255 648.447 106.139 649.135 105.906L649.319 106.761C648.69 107.043 647.957 107.185 647.118 107.185C646.061 107.185 645.209 106.845 644.562 106.166C643.914 105.487 643.591 104.571 643.591 103.418C643.591 102.288 643.88 101.388 644.459 100.718C645.042 100.043 645.794 99.7061 646.715 99.7061C647.535 99.7061 648.221 100.018 648.772 100.643C649.324 101.267 649.6 102.099 649.6 103.138V103.473ZM648.438 102.604C648.438 102.049 648.264 101.581 647.918 101.203C647.572 100.82 647.184 100.629 646.756 100.629C646.204 100.629 645.746 100.811 645.382 101.176C645.022 101.54 644.821 102.017 644.78 102.604H648.438Z" fill="#C4FAFF"/>
<path d="M553.405 207.473H548.518C548.518 208.279 548.75 208.945 549.215 209.469C549.684 209.993 550.258 210.255 550.938 210.255C551.585 210.255 552.252 210.139 552.94 209.906L553.125 210.761C552.496 211.043 551.762 211.185 550.924 211.185C549.867 211.185 549.014 210.845 548.367 210.166C547.72 209.487 547.396 208.571 547.396 207.418C547.396 206.288 547.686 205.388 548.265 204.718C548.848 204.043 549.6 203.706 550.521 203.706C551.341 203.706 552.027 204.018 552.578 204.643C553.13 205.267 553.405 206.099 553.405 207.138V207.473ZM552.243 206.604C552.243 206.049 552.07 205.581 551.724 205.203C551.377 204.82 550.99 204.629 550.562 204.629C550.01 204.629 549.552 204.811 549.188 205.176C548.827 205.54 548.627 206.017 548.586 206.604H552.243ZM561.602 211H560.535V206.434C560.535 205.8 560.433 205.342 560.228 205.06C560.027 204.772 559.71 204.629 559.277 204.629C558.626 204.629 557.926 205.035 557.179 205.846V211H556.112V203.877H557.179V204.923C557.944 204.112 558.751 203.706 559.599 203.706C560.934 203.706 561.602 204.513 561.602 206.126V211ZM570.331 203.877L567.631 211H566.66L563.974 203.877H565.136L567.152 209.544L569.169 203.877H570.331ZM587.147 203.877L584.447 211H583.477L580.79 203.877H581.952L583.969 209.544L585.985 203.877H587.147ZM595.412 211H594.353C594.266 210.713 594.223 210.33 594.223 209.852C593.617 210.74 592.792 211.185 591.748 211.185C591.219 211.185 590.752 210.998 590.347 210.624C589.946 210.246 589.745 209.76 589.745 209.168C589.745 208.817 589.816 208.507 589.957 208.238C590.098 207.969 590.306 207.744 590.579 207.562C590.853 207.375 591.185 207.229 591.577 207.124C591.969 207.015 592.434 206.939 592.972 206.898L594.168 206.803V206.461C594.168 205.24 593.598 204.629 592.459 204.629C592.19 204.629 591.848 204.688 591.434 204.807C591.023 204.921 590.67 205.057 590.374 205.217L590.094 204.451C591.064 203.954 591.967 203.706 592.801 203.706C594.423 203.706 595.234 204.565 595.234 206.283V209.346C595.234 209.965 595.294 210.517 595.412 211ZM594.168 208.888V207.596C593.206 207.682 592.546 207.764 592.186 207.842C591.83 207.915 591.52 208.054 591.256 208.259C590.996 208.464 590.866 208.742 590.866 209.093C590.866 209.412 590.978 209.669 591.201 209.865C591.424 210.061 591.709 210.159 592.056 210.159C592.434 210.159 592.81 210.048 593.184 209.824C593.557 209.596 593.885 209.284 594.168 208.888ZM603.752 204.068L603.321 205.094C602.852 204.889 602.446 204.786 602.104 204.786C601.79 204.786 601.482 204.877 601.182 205.06C600.881 205.237 600.603 205.495 600.348 205.832C600.097 206.165 599.972 206.352 599.972 206.393V211H598.912V203.877H599.972V205.319C600.541 204.244 601.28 203.706 602.187 203.706C602.724 203.706 603.246 203.827 603.752 204.068ZM611.306 204.896C610.709 204.7 610.146 204.602 609.617 204.602C609.038 204.602 608.58 204.7 608.243 204.896C607.906 205.087 607.737 205.344 607.737 205.668C607.737 205.873 607.815 206.053 607.97 206.208C608.125 206.358 608.435 206.5 608.899 206.632L609.918 206.926C610.387 207.058 610.77 207.217 611.066 207.404C611.363 207.587 611.584 207.81 611.729 208.074C611.88 208.334 611.955 208.637 611.955 208.983C611.955 209.662 611.67 210.2 611.101 210.597C610.531 210.989 609.806 211.185 608.927 211.185C608.052 211.185 607.329 211.052 606.76 210.788L606.965 209.865C607.562 210.148 608.202 210.289 608.886 210.289C609.478 210.289 609.959 210.18 610.328 209.961C610.702 209.738 610.889 209.444 610.889 209.079C610.889 208.833 610.795 208.614 610.608 208.423C610.426 208.227 609.993 208.024 609.31 207.814C608.758 207.646 608.353 207.521 608.093 207.438C607.833 207.352 607.591 207.227 607.368 207.062C607.145 206.898 606.974 206.702 606.855 206.475C606.742 206.247 606.685 205.992 606.685 205.709C606.685 205.094 606.953 204.606 607.491 204.246C608.029 203.886 608.742 203.706 609.631 203.706C610.205 203.706 610.843 203.804 611.545 204L611.306 204.896ZM628.573 201.17L624.383 211.185H623.378L627.548 201.17H628.573ZM644.938 204.896C644.341 204.7 643.779 204.602 643.25 204.602C642.671 204.602 642.213 204.7 641.876 204.896C641.539 205.087 641.37 205.344 641.37 205.668C641.37 205.873 641.448 206.053 641.603 206.208C641.757 206.358 642.067 206.5 642.532 206.632L643.551 206.926C644.02 207.058 644.403 207.217 644.699 207.404C644.995 207.587 645.216 207.81 645.362 208.074C645.513 208.334 645.588 208.637 645.588 208.983C645.588 209.662 645.303 210.2 644.733 210.597C644.164 210.989 643.439 211.185 642.56 211.185C641.685 211.185 640.962 211.052 640.393 210.788L640.598 209.865C641.195 210.148 641.835 210.289 642.519 210.289C643.111 210.289 643.592 210.18 643.961 209.961C644.335 209.738 644.521 209.444 644.521 209.079C644.521 208.833 644.428 208.614 644.241 208.423C644.059 208.227 643.626 208.024 642.942 207.814C642.391 207.646 641.985 207.521 641.726 207.438C641.466 207.352 641.224 207.227 641.001 207.062C640.778 206.898 640.607 206.702 640.488 206.475C640.374 206.247 640.317 205.992 640.317 205.709C640.317 205.094 640.586 204.606 641.124 204.246C641.662 203.886 642.375 203.706 643.264 203.706C643.838 203.706 644.476 203.804 645.178 204L644.938 204.896ZM654.064 210.761C653.445 211.043 652.763 211.185 652.021 211.185C650.899 211.185 650.004 210.845 649.334 210.166C648.669 209.482 648.336 208.576 648.336 207.445C648.336 206.315 648.671 205.41 649.341 204.731C650.015 204.048 650.899 203.706 651.993 203.706C652.709 203.706 653.39 203.831 654.037 204.082L653.757 204.964C653.11 204.741 652.526 204.629 652.007 204.629C651.223 204.629 650.601 204.882 650.141 205.388C649.685 205.894 649.457 206.579 649.457 207.445C649.457 208.238 649.694 208.906 650.168 209.448C650.642 209.986 651.259 210.255 652.021 210.255C652.622 210.255 653.242 210.139 653.88 209.906L654.064 210.761ZM662.678 211H661.618C661.532 210.713 661.488 210.33 661.488 209.852C660.882 210.74 660.057 211.185 659.014 211.185C658.485 211.185 658.018 210.998 657.612 210.624C657.211 210.246 657.011 209.76 657.011 209.168C657.011 208.817 657.081 208.507 657.223 208.238C657.364 207.969 657.571 207.744 657.845 207.562C658.118 207.375 658.451 207.229 658.843 207.124C659.235 207.015 659.7 206.939 660.237 206.898L661.434 206.803V206.461C661.434 205.24 660.864 204.629 659.725 204.629C659.456 204.629 659.114 204.688 658.699 204.807C658.289 204.921 657.936 205.057 657.64 205.217L657.359 204.451C658.33 203.954 659.232 203.706 660.066 203.706C661.689 203.706 662.5 204.565 662.5 206.283V209.346C662.5 209.965 662.559 210.517 662.678 211ZM661.434 208.888V207.596C660.472 207.682 659.811 207.764 659.451 207.842C659.096 207.915 658.786 208.054 658.521 208.259C658.262 208.464 658.132 208.742 658.132 209.093C658.132 209.412 658.243 209.669 658.467 209.865C658.69 210.061 658.975 210.159 659.321 210.159C659.7 210.159 660.076 210.048 660.449 209.824C660.823 209.596 661.151 209.284 661.434 208.888ZM670.389 211H667.477V202.277H665.617V201.354H668.543V210.077H670.389V211ZM679.528 207.473H674.641C674.641 208.279 674.873 208.945 675.338 209.469C675.807 209.993 676.382 210.255 677.061 210.255C677.708 210.255 678.375 210.139 679.063 209.906L679.248 210.761C678.619 211.043 677.885 211.185 677.047 211.185C675.99 211.185 675.137 210.845 674.49 210.166C673.843 209.487 673.52 208.571 673.52 207.418C673.52 206.288 673.809 205.388 674.388 204.718C674.971 204.043 675.723 203.706 676.644 203.706C677.464 203.706 678.15 204.018 678.701 204.643C679.253 205.267 679.528 206.099 679.528 207.138V207.473ZM678.366 206.604C678.366 206.049 678.193 205.581 677.847 205.203C677.5 204.82 677.113 204.629 676.685 204.629C676.133 204.629 675.675 204.811 675.311 205.176C674.951 205.54 674.75 206.017 674.709 206.604H678.366Z" fill="white"/>
<line x1="24" y1="253.5" x2="725" y2="253.5" stroke="#C7C7C7"/>
<rect x="292" y="278" width="187" height="43" rx="21.5" fill="#0385FF"/>
<path d="M347.068 304V293.818H353.69V295.364H348.912V298.129H353.347V299.675H348.912V302.454H353.73V304H347.068ZM355.492 306.864V296.364H357.262V297.626H357.366C357.459 297.441 357.59 297.244 357.759 297.035C357.928 296.823 358.157 296.642 358.445 296.493C358.734 296.34 359.101 296.264 359.549 296.264C360.139 296.264 360.671 296.415 361.145 296.717C361.622 297.015 362 297.457 362.278 298.044C362.56 298.627 362.701 299.343 362.701 300.192C362.701 301.03 362.563 301.743 362.288 302.33C362.013 302.916 361.639 303.364 361.165 303.672C360.691 303.98 360.154 304.134 359.554 304.134C359.116 304.134 358.753 304.061 358.465 303.915C358.177 303.77 357.945 303.594 357.769 303.388C357.597 303.18 357.463 302.982 357.366 302.797H357.292V306.864H355.492ZM357.257 300.182C357.257 300.676 357.327 301.108 357.466 301.479C357.608 301.851 357.812 302.141 358.077 302.349C358.346 302.555 358.671 302.658 359.052 302.658C359.449 302.658 359.783 302.552 360.051 302.339C360.32 302.124 360.522 301.831 360.658 301.46C360.797 301.085 360.866 300.659 360.866 300.182C360.866 299.708 360.798 299.287 360.663 298.919C360.527 298.551 360.324 298.263 360.056 298.054C359.788 297.845 359.453 297.741 359.052 297.741C358.667 297.741 358.341 297.842 358.072 298.044C357.804 298.246 357.6 298.53 357.461 298.894C357.325 299.259 357.257 299.688 357.257 300.182ZM364.242 304V296.364H366.042V304H364.242ZM365.147 295.28C364.862 295.28 364.617 295.185 364.411 294.996C364.206 294.804 364.103 294.574 364.103 294.305C364.103 294.034 364.206 293.803 364.411 293.614C364.617 293.422 364.862 293.326 365.147 293.326C365.435 293.326 365.681 293.422 365.883 293.614C366.088 293.803 366.191 294.034 366.191 294.305C366.191 294.574 366.088 294.804 365.883 294.996C365.681 295.185 365.435 295.28 365.147 295.28ZM369.692 299.526V304H367.892V296.364H369.613V297.661H369.702C369.878 297.234 370.158 296.894 370.542 296.642C370.93 296.39 371.409 296.264 371.979 296.264C372.506 296.264 372.965 296.377 373.356 296.602C373.751 296.828 374.056 297.154 374.271 297.582C374.49 298.009 374.598 298.528 374.594 299.138V304H372.794V299.416C372.794 298.906 372.662 298.506 372.397 298.218C372.135 297.93 371.772 297.786 371.308 297.786C370.993 297.786 370.713 297.855 370.468 297.994C370.226 298.13 370.035 298.327 369.896 298.586C369.76 298.844 369.692 299.158 369.692 299.526ZM376.424 304V296.364H378.223V304H376.424ZM377.329 295.28C377.044 295.28 376.798 295.185 376.593 294.996C376.387 294.804 376.285 294.574 376.285 294.305C376.285 294.034 376.387 293.803 376.593 293.614C376.798 293.422 377.044 293.326 377.329 293.326C377.617 293.326 377.862 293.422 378.064 293.614C378.27 293.803 378.373 294.034 378.373 294.305C378.373 294.574 378.27 294.804 378.064 294.996C377.862 295.185 377.617 295.28 377.329 295.28ZM383.405 304.149C382.659 304.149 382.013 303.985 381.466 303.657C380.919 303.329 380.495 302.87 380.193 302.28C379.895 301.69 379.746 301 379.746 300.212C379.746 299.423 379.895 298.732 380.193 298.138C380.495 297.545 380.919 297.085 381.466 296.756C382.013 296.428 382.659 296.264 383.405 296.264C384.151 296.264 384.797 296.428 385.344 296.756C385.891 297.085 386.313 297.545 386.612 298.138C386.913 298.732 387.064 299.423 387.064 300.212C387.064 301 386.913 301.69 386.612 302.28C386.313 302.87 385.891 303.329 385.344 303.657C384.797 303.985 384.151 304.149 383.405 304.149ZM383.415 302.707C383.819 302.707 384.157 302.596 384.429 302.374C384.701 302.149 384.903 301.847 385.036 301.469C385.172 301.092 385.24 300.671 385.24 300.207C385.24 299.739 385.172 299.317 385.036 298.939C384.903 298.558 384.701 298.254 384.429 298.029C384.157 297.804 383.819 297.691 383.415 297.691C383.001 297.691 382.656 297.804 382.381 298.029C382.109 298.254 381.905 298.558 381.769 298.939C381.637 299.317 381.571 299.739 381.571 300.207C381.571 300.671 381.637 301.092 381.769 301.469C381.905 301.847 382.109 302.149 382.381 302.374C382.656 302.596 383.001 302.707 383.415 302.707ZM392.144 304V293.818H395.962C396.744 293.818 397.401 293.964 397.931 294.256C398.464 294.547 398.867 294.948 399.139 295.459C399.414 295.966 399.552 296.543 399.552 297.189C399.552 297.842 399.414 298.422 399.139 298.929C398.864 299.436 398.458 299.835 397.921 300.127C397.384 300.415 396.723 300.56 395.937 300.56H393.407V299.043H395.689C396.146 299.043 396.521 298.964 396.812 298.805C397.104 298.646 397.319 298.427 397.459 298.148C397.601 297.87 397.672 297.55 397.672 297.189C397.672 296.828 397.601 296.509 397.459 296.234C397.319 295.959 397.102 295.746 396.807 295.593C396.516 295.437 396.139 295.359 395.679 295.359H393.988V304H392.144ZM405.941 300.788V296.364H407.741V304H405.996V302.643H405.916C405.744 303.07 405.461 303.42 405.066 303.692C404.675 303.964 404.193 304.099 403.62 304.099C403.119 304.099 402.677 303.988 402.292 303.766C401.911 303.541 401.613 303.214 401.397 302.787C401.182 302.356 401.074 301.836 401.074 301.226V296.364H402.874V300.947C402.874 301.431 403.006 301.816 403.272 302.101C403.537 302.386 403.885 302.528 404.316 302.528C404.581 302.528 404.838 302.464 405.086 302.335C405.335 302.205 405.539 302.013 405.698 301.758C405.86 301.499 405.941 301.176 405.941 300.788ZM415.627 298.382L413.987 298.561C413.94 298.395 413.859 298.24 413.743 298.094C413.63 297.948 413.478 297.83 413.286 297.741C413.093 297.651 412.858 297.607 412.58 297.607C412.205 297.607 411.89 297.688 411.635 297.85C411.383 298.013 411.259 298.223 411.262 298.482C411.259 298.704 411.34 298.884 411.506 299.023C411.675 299.163 411.953 299.277 412.341 299.366L413.644 299.645C414.366 299.801 414.903 300.048 415.254 300.386C415.609 300.724 415.788 301.166 415.791 301.713C415.788 302.194 415.647 302.618 415.369 302.986C415.094 303.35 414.711 303.635 414.22 303.841C413.73 304.046 413.166 304.149 412.53 304.149C411.595 304.149 410.843 303.954 410.273 303.562C409.703 303.168 409.363 302.62 409.254 301.917L411.009 301.748C411.088 302.093 411.257 302.353 411.516 302.528C411.774 302.704 412.111 302.792 412.525 302.792C412.953 302.792 413.296 302.704 413.554 302.528C413.816 302.353 413.947 302.136 413.947 301.877C413.947 301.658 413.862 301.478 413.693 301.335C413.528 301.193 413.269 301.083 412.918 301.007L411.615 300.734C410.883 300.581 410.341 300.324 409.989 299.963C409.638 299.598 409.464 299.138 409.467 298.581C409.464 298.11 409.592 297.703 409.85 297.358C410.112 297.01 410.475 296.741 410.939 296.553C411.406 296.36 411.945 296.264 412.555 296.264C413.45 296.264 414.154 296.455 414.668 296.836C415.185 297.217 415.505 297.732 415.627 298.382ZM419.075 299.526V304H417.275V293.818H419.035V297.661H419.125C419.304 297.23 419.58 296.891 419.955 296.642C420.333 296.39 420.813 296.264 421.397 296.264C421.927 296.264 422.389 296.375 422.784 296.597C423.178 296.819 423.483 297.144 423.699 297.572C423.917 297.999 424.027 298.521 424.027 299.138V304H422.227V299.416C422.227 298.902 422.094 298.503 421.829 298.218C421.567 297.93 421.2 297.786 420.726 297.786C420.407 297.786 420.122 297.855 419.87 297.994C419.622 298.13 419.426 298.327 419.284 298.586C419.145 298.844 419.075 299.158 419.075 299.526Z" fill="white"/>
</svg>
