<svg width="657" height="169" viewBox="0 0 657 169" fill="none" xmlns="http://www.w3.org/2000/svg">
<rect x="13" y="28" width="178" height="112" fill="white"/>
<path d="M18.8862 0.165488C18.8448 0.289603 18.3897 0.358556 17.4244 0.386137C16.3349 0.427509 16.0177 0.482671 16.0177 0.634367C16.0177 0.772273 15.8109 0.827435 15.1903 0.827435C14.5422 0.827435 14.3629 0.868807 14.3629 1.03429C14.3629 1.1722 14.2112 1.24115 13.8802 1.24115C13.5492 1.24115 13.3975 1.31011 13.3975 1.44801C13.3975 1.59971 13.2321 1.65487 12.777 1.65487C12.3219 1.65487 12.1564 1.71003 12.1564 1.86173C12.1564 1.99963 12.0185 2.06859 11.7427 2.06859C11.4669 2.06859 11.329 2.13754 11.329 2.27545C11.329 2.41335 11.191 2.4823 10.9152 2.4823C10.6532 2.4823 10.5015 2.55126 10.5015 2.67537C10.5015 2.7857 10.3222 2.90981 10.0878 2.96497C9.86715 3.02014 9.67408 3.11667 9.67408 3.18562C9.67408 3.25458 9.57755 3.30974 9.46723 3.30974C9.3569 3.30974 9.26037 3.40627 9.26037 3.5166C9.26037 3.62692 9.13625 3.72346 8.99835 3.72346C8.84665 3.72346 8.54326 3.90273 8.32261 4.13717C8.08817 4.35782 7.85373 4.55089 7.79857 4.55089C7.74341 4.55089 7.49517 4.77154 7.23315 5.03356C6.97113 5.29558 6.68153 5.51623 6.57121 5.51623C6.46088 5.51623 6.36435 5.61276 6.36435 5.72309C6.36435 5.83341 6.26781 5.92995 6.15749 5.92995C6.04717 5.92995 5.95063 6.02648 5.95063 6.13681C5.95063 6.24713 5.8541 6.34366 5.74377 6.34366C5.63345 6.34366 5.53691 6.4402 5.53691 6.55052C5.53691 6.66085 5.31626 6.95045 5.05424 7.21247C4.79222 7.47449 4.57157 7.7503 4.57157 7.84684C4.57157 7.92958 4.47504 7.99853 4.36472 7.99853C4.25439 7.99853 4.15786 8.09507 4.15786 8.20539C4.15786 8.31572 4.06132 8.41225 3.951 8.41225C3.81309 8.41225 3.74414 8.55016 3.74414 8.82597C3.74414 9.10178 3.67519 9.23968 3.53728 9.23968C3.42696 9.23968 3.33042 9.33622 3.33042 9.44654C3.33042 9.55687 3.23389 9.6534 3.12356 9.6534C2.98566 9.6534 2.91671 9.79131 2.91671 10.0671C2.91671 10.3429 2.84775 10.4808 2.70985 10.4808C2.57194 10.4808 2.50299 10.6187 2.50299 10.8946C2.50299 11.1704 2.43404 11.3083 2.29613 11.3083C2.15822 11.3083 2.08927 11.4462 2.08927 11.722C2.08927 11.9978 2.02032 12.1357 1.88241 12.1357C1.74451 12.1357 1.67555 12.2736 1.67555 12.5494C1.67555 12.7977 1.59281 13.0045 1.4687 13.0459C1.33079 13.101 1.26184 13.3217 1.26184 13.6665C1.26184 14.0526 1.20667 14.2043 1.05498 14.2043C0.903282 14.2043 0.84812 14.3698 0.84812 14.88C0.84812 15.28 0.765377 15.6385 0.655052 15.7488C0.544728 15.8729 0.448194 16.3556 0.406822 16.9624C0.379241 17.583 0.296497 17.9967 0.186173 18.0381C-0.0620576 18.1208 -0.0620576 150.124 0.186173 150.207C0.296497 150.248 0.379241 150.662 0.406822 151.283C0.448194 151.889 0.544728 152.372 0.655052 152.496C0.765377 152.593 0.84812 152.951 0.84812 153.282C0.84812 153.682 0.917073 153.903 1.05498 153.958C1.19288 153.999 1.26184 154.22 1.26184 154.579C1.26184 154.923 1.33079 155.144 1.4687 155.199C1.59281 155.24 1.67555 155.447 1.67555 155.696C1.67555 155.971 1.74451 156.109 1.88241 156.109C2.02032 156.109 2.08927 156.247 2.08927 156.523C2.08927 156.799 2.15822 156.937 2.29613 156.937C2.43404 156.937 2.50299 157.075 2.50299 157.35C2.50299 157.626 2.57194 157.764 2.70985 157.764C2.84775 157.764 2.91671 157.902 2.91671 158.178C2.91671 158.454 2.98566 158.592 3.12356 158.592C3.23389 158.592 3.33042 158.688 3.33042 158.798C3.33042 158.909 3.42696 159.005 3.53728 159.005C3.67519 159.005 3.74414 159.143 3.74414 159.419C3.74414 159.695 3.81309 159.833 3.951 159.833C4.06132 159.833 4.15786 159.929 4.15786 160.04C4.15786 160.15 4.25439 160.246 4.36472 160.246C4.47504 160.246 4.57157 160.315 4.57157 160.398C4.57157 160.495 4.79222 160.77 5.05424 161.033C5.31626 161.295 5.53691 161.584 5.53691 161.694C5.53691 161.805 5.63345 161.901 5.74377 161.901C5.8541 161.901 5.95063 161.998 5.95063 162.108C5.95063 162.218 6.04717 162.315 6.15749 162.315C6.26781 162.315 6.36435 162.412 6.36435 162.522C6.36435 162.632 6.46088 162.729 6.57121 162.729C6.68153 162.729 6.97113 162.949 7.23315 163.211C7.49517 163.473 7.74341 163.694 7.79857 163.694C7.85373 163.694 8.08817 163.887 8.32261 164.108C8.54326 164.342 8.84665 164.522 8.99835 164.522C9.13625 164.522 9.26037 164.618 9.26037 164.728C9.26037 164.839 9.3569 164.935 9.46723 164.935C9.57755 164.935 9.67408 164.99 9.67408 165.059C9.67408 165.128 9.85336 165.225 10.0878 165.28C10.3085 165.335 10.5015 165.459 10.5015 165.57C10.5015 165.694 10.6532 165.763 10.9152 165.763C11.191 165.763 11.329 165.832 11.329 165.97C11.329 166.107 11.4669 166.176 11.7427 166.176C12.0185 166.176 12.1564 166.245 12.1564 166.383C12.1564 166.535 12.3219 166.59 12.777 166.59C13.2321 166.59 13.3975 166.645 13.3975 166.797C13.3975 166.935 13.5492 167.004 13.8802 167.004C14.2112 167.004 14.3629 167.073 14.3629 167.211C14.3629 167.376 14.5422 167.418 15.1903 167.418C15.8109 167.418 16.0177 167.473 16.0177 167.611C16.0177 167.762 16.3487 167.817 17.6312 167.859C18.7621 167.886 19.2585 167.955 19.2999 168.066C19.3826 168.328 184.621 168.328 184.704 168.066C184.745 167.955 185.214 167.886 186.235 167.859C187.393 167.817 187.71 167.762 187.71 167.611C187.71 167.473 187.917 167.418 188.538 167.418C189.186 167.418 189.365 167.376 189.365 167.211C189.365 167.059 189.531 167.004 189.986 167.004C190.441 167.004 190.606 166.949 190.606 166.797C190.606 166.645 190.758 166.59 191.158 166.59C191.53 166.59 191.71 166.535 191.71 166.397C191.71 166.287 191.916 166.163 192.192 166.121C192.454 166.066 192.675 165.97 192.675 165.901C192.675 165.818 192.771 165.763 192.882 165.763C192.992 165.763 193.089 165.666 193.089 165.556C193.089 165.418 193.227 165.349 193.502 165.349C193.764 165.349 193.916 165.28 193.916 165.156C193.916 165.046 194.109 164.921 194.33 164.866C194.564 164.811 194.744 164.715 194.744 164.646C194.744 164.577 194.84 164.522 194.95 164.522C195.061 164.522 195.157 164.439 195.157 164.328C195.157 164.218 195.35 164.094 195.571 164.039C195.805 163.984 195.985 163.86 195.985 163.749C195.985 163.639 196.054 163.556 196.123 163.556C196.205 163.556 196.536 163.28 196.853 162.936C197.184 162.591 197.529 162.315 197.612 162.315C197.709 162.315 197.777 162.218 197.777 162.108C197.777 161.998 197.874 161.901 197.984 161.901C198.095 161.901 198.191 161.846 198.191 161.763C198.191 161.557 198.646 161.074 198.839 161.074C198.936 161.074 199.019 161.005 199.019 160.922C199.019 160.839 199.115 160.688 199.225 160.577C199.336 160.453 199.432 160.246 199.432 160.095C199.432 159.957 199.529 159.833 199.639 159.833C199.75 159.833 199.846 159.736 199.846 159.626C199.846 159.516 199.943 159.419 200.053 159.419C200.163 159.419 200.26 159.322 200.26 159.212C200.26 159.102 200.315 159.005 200.384 159.005C200.453 159.005 200.549 158.826 200.605 158.592C200.66 158.371 200.784 158.178 200.894 158.178C201.018 158.178 201.087 158.026 201.087 157.764C201.087 157.488 201.156 157.35 201.294 157.35C201.432 157.35 201.501 157.213 201.501 156.937C201.501 156.661 201.57 156.523 201.708 156.523C201.846 156.523 201.915 156.385 201.915 156.109C201.915 155.833 201.984 155.696 202.121 155.696C202.273 155.696 202.328 155.53 202.328 155.075C202.328 154.62 202.384 154.454 202.535 154.454C202.687 154.454 202.742 154.289 202.742 153.834C202.742 153.406 202.811 153.186 202.949 153.131C203.101 153.062 203.156 152.827 203.156 152.234C203.156 151.6 203.197 151.42 203.363 151.42C203.542 151.42 203.57 143.849 203.57 84.1225C203.57 24.3955 203.542 16.8245 203.363 16.8245C203.197 16.8245 203.156 16.6452 203.156 16.0109C203.156 15.542 203.087 15.1696 203.004 15.142C202.921 15.1145 202.825 14.7973 202.783 14.4387C202.728 14.0112 202.646 13.7906 202.521 13.7906C202.384 13.7906 202.328 13.5975 202.328 13.17C202.328 12.7149 202.273 12.5494 202.121 12.5494C201.984 12.5494 201.915 12.4115 201.915 12.1357C201.915 11.8599 201.846 11.722 201.708 11.722C201.57 11.722 201.501 11.5841 201.501 11.3083C201.501 11.0325 201.432 10.8946 201.294 10.8946C201.156 10.8946 201.087 10.7566 201.087 10.4808C201.087 10.2188 201.018 10.0671 200.894 10.0671C200.784 10.0671 200.66 9.87405 200.605 9.6534C200.549 9.41896 200.453 9.23968 200.384 9.23968C200.315 9.23968 200.26 9.14315 200.26 9.03283C200.26 8.9225 200.163 8.82597 200.053 8.82597C199.943 8.82597 199.846 8.72943 199.846 8.61911C199.846 8.50878 199.75 8.41225 199.639 8.41225C199.529 8.41225 199.432 8.28813 199.432 8.15023C199.432 7.99853 199.336 7.79167 199.225 7.66756C199.115 7.55723 199.019 7.40554 199.019 7.32279C199.019 7.24005 198.936 7.1711 198.839 7.1711C198.646 7.1711 198.191 6.68843 198.191 6.48157C198.191 6.39883 198.095 6.34366 197.984 6.34366C197.874 6.34366 197.777 6.24713 197.777 6.13681C197.777 6.02648 197.709 5.92995 197.612 5.92995C197.529 5.92995 197.102 5.5576 196.66 5.10251C196.219 4.64742 195.695 4.2475 195.502 4.19233C195.309 4.15096 195.157 4.02685 195.157 3.91652C195.157 3.8062 195.061 3.72346 194.95 3.72346C194.84 3.72346 194.744 3.66829 194.744 3.59934C194.744 3.53039 194.564 3.43385 194.33 3.37869C194.109 3.32353 193.916 3.19941 193.916 3.08909C193.916 2.97876 193.82 2.89602 193.709 2.89602C193.599 2.89602 193.502 2.84086 193.502 2.77191C193.502 2.70295 193.323 2.60642 193.089 2.55126C192.868 2.49609 192.675 2.39956 192.675 2.3444C192.675 2.27545 192.454 2.17891 192.192 2.12375C191.916 2.08238 191.71 1.95826 191.71 1.84794C191.71 1.71003 191.53 1.65487 191.158 1.65487C190.758 1.65487 190.606 1.59971 190.606 1.44801C190.606 1.29631 190.441 1.24115 189.986 1.24115C189.531 1.24115 189.365 1.18599 189.365 1.03429C189.365 0.868807 189.186 0.827435 188.538 0.827435C187.917 0.827435 187.71 0.772273 187.71 0.634367C187.71 0.482671 187.393 0.427509 186.235 0.386137C185.214 0.358556 184.745 0.289603 184.704 0.165488C184.663 0.0413727 167.962 1.02143e-06 101.795 1.02143e-06C35.6279 1.02143e-06 18.9276 0.0413727 18.8862 0.165488ZM113.517 27.9949C113.517 28.0638 113.614 28.1328 113.724 28.1328C113.903 28.1328 113.931 29.3463 113.931 38.1861C113.931 47.2189 113.903 48.2394 113.71 48.3222C113.586 48.3635 111.269 48.4049 108.539 48.4049H103.588V54.4728V60.5406H139.512H175.437V70.8008V81.061L175.133 81.1437C174.954 81.1851 174.127 81.2265 173.285 81.2265C172.044 81.2265 171.727 81.2678 171.658 81.4333C171.603 81.585 171.369 81.6402 170.831 81.6402C170.293 81.6402 170.072 81.6953 170.003 81.847C169.962 81.9849 169.741 82.0539 169.383 82.0539C169.038 82.0539 168.817 82.1229 168.762 82.2608C168.721 82.3849 168.514 82.4676 168.266 82.4676C167.99 82.4676 167.852 82.5366 167.852 82.6745C167.852 82.8124 167.714 82.8813 167.438 82.8813C167.162 82.8813 167.024 82.9503 167.024 83.0882C167.024 83.2261 166.887 83.2951 166.611 83.2951C166.335 83.2951 166.197 83.364 166.197 83.5019C166.197 83.6398 166.059 83.7088 165.783 83.7088C165.508 83.7088 165.37 83.7777 165.37 83.9156C165.37 84.026 165.246 84.1225 165.094 84.1225C164.942 84.1225 164.818 84.219 164.818 84.3293C164.818 84.4535 164.694 84.5362 164.473 84.5362C164.253 84.5362 164.128 84.6189 164.128 84.7431C164.128 84.8534 164.032 84.9499 163.922 84.9499C163.811 84.9499 163.715 85.0465 163.715 85.1568C163.715 85.2671 163.591 85.3636 163.439 85.3636C163.287 85.3636 163.163 85.4188 163.163 85.5015C163.163 85.6808 162.653 86.1911 162.474 86.1911C162.405 86.1911 162.336 86.2876 162.336 86.3979C162.336 86.5083 162.239 86.6048 162.129 86.6048C162.019 86.6048 161.922 86.66 161.922 86.7427C161.922 86.922 161.412 87.4322 161.232 87.4322C161.163 87.4322 161.095 87.5563 161.095 87.708C161.095 87.8597 160.998 87.9838 160.888 87.9838C160.777 87.9838 160.681 88.0804 160.681 88.1907C160.681 88.301 160.584 88.3976 160.474 88.3976C160.35 88.3976 160.267 88.5217 160.267 88.7423C160.267 88.963 160.184 89.0871 160.06 89.0871C159.95 89.0871 159.853 89.2112 159.853 89.3629C159.853 89.5146 159.757 89.6387 159.647 89.6387C159.509 89.6387 159.44 89.7766 159.44 90.0524C159.44 90.3282 159.371 90.4661 159.233 90.4661C159.109 90.4661 159.026 90.5903 159.026 90.8109C159.026 91.004 158.929 91.197 158.819 91.2384C158.695 91.2936 158.612 91.5004 158.612 91.7211C158.612 91.9831 158.543 92.121 158.405 92.121C158.267 92.121 158.199 92.2589 158.199 92.5347C158.199 92.8105 158.13 92.9485 157.992 92.9485C157.84 92.9485 157.785 93.1139 157.785 93.569C157.785 94.0241 157.73 94.1896 157.578 94.1896C157.412 94.1896 157.371 94.3689 157.371 95.017C157.371 95.6238 157.316 95.8445 157.192 95.8445C156.944 95.8445 156.819 98.7129 156.819 104.56C156.819 107.387 156.764 108.946 156.682 108.946C156.613 108.946 156.544 109.042 156.544 109.152C156.544 109.263 156.447 109.359 156.337 109.359C156.226 109.359 156.13 109.263 156.13 109.152C156.13 109.014 155.992 108.946 155.716 108.946C155.44 108.946 155.303 108.877 155.303 108.739C155.303 108.601 155.165 108.532 154.889 108.532C154.613 108.532 154.475 108.463 154.475 108.325C154.475 108.187 154.323 108.118 153.992 108.118C153.661 108.118 153.51 108.049 153.51 107.911C153.51 107.773 153.372 107.704 153.096 107.704C152.82 107.704 152.682 107.635 152.682 107.498C152.682 107.36 152.544 107.291 152.269 107.291C151.993 107.291 151.855 107.222 151.855 107.084C151.855 106.932 151.689 106.877 151.248 106.877C150.834 106.877 150.614 106.946 150.559 107.084C150.517 107.194 150.338 107.291 150.145 107.291C149.966 107.291 149.786 107.387 149.731 107.498C149.69 107.608 149.497 107.704 149.304 107.704C149.097 107.704 148.849 107.801 148.738 107.911C148.614 108.022 148.407 108.118 148.256 108.118C148.118 108.118 147.994 108.215 147.994 108.325C147.994 108.477 147.842 108.532 147.442 108.532C147.042 108.532 146.89 108.587 146.89 108.739C146.89 108.877 146.752 108.946 146.477 108.946C146.201 108.946 146.063 109.014 146.063 109.152C146.063 109.29 145.925 109.359 145.649 109.359C145.387 109.359 145.235 109.428 145.235 109.552C145.235 109.663 145.029 109.787 144.753 109.828C144.491 109.883 144.27 109.98 144.27 110.049C144.27 110.132 144.091 110.187 143.856 110.187C143.594 110.187 143.443 110.256 143.443 110.38C143.443 110.49 143.263 110.614 143.029 110.669C142.808 110.724 142.615 110.821 142.615 110.89C142.615 110.959 142.436 111.014 142.201 111.014C141.939 111.014 141.788 111.083 141.788 111.207C141.788 111.317 141.567 111.428 141.209 111.469C140.878 111.511 140.602 111.607 140.574 111.69C140.547 111.773 140.312 111.869 140.05 111.924C139.788 111.966 139.581 112.062 139.581 112.117C139.581 112.173 139.319 112.255 139.002 112.31C138.685 112.366 138.381 112.462 138.326 112.545C138.285 112.614 138.009 112.71 137.706 112.766C137.416 112.807 137.14 112.903 137.099 112.959C137.058 113.014 136.851 113.11 136.644 113.152L136.272 113.248V104.133C136.272 96.3961 136.299 95.017 136.465 95.017C136.616 95.017 136.671 94.6999 136.713 93.6104C136.74 92.6451 136.809 92.19 136.933 92.1486C137.044 92.121 137.099 91.8176 137.099 91.2798C137.099 90.673 137.154 90.4386 137.306 90.3834C137.444 90.3282 137.513 90.1076 137.513 89.7077C137.513 89.3629 137.595 89.0181 137.72 88.894C137.83 88.7837 137.926 88.4527 137.926 88.1355C137.926 87.8184 138.009 87.5425 138.106 87.4736C138.216 87.4184 138.34 87.115 138.381 86.8254C138.437 86.522 138.519 86.2462 138.588 86.2049C138.657 86.1635 138.754 85.8739 138.795 85.5843C138.85 85.2809 138.947 85.0051 139.016 84.9637C139.085 84.9085 139.195 84.7017 139.236 84.4948C139.292 84.288 139.388 84.1225 139.443 84.1225C139.512 84.1225 139.595 83.9294 139.65 83.7088C139.705 83.4743 139.802 83.2951 139.857 83.2951C139.926 83.2951 140.023 83.0744 140.078 82.8124C140.119 82.5504 140.216 82.3297 140.271 82.3297C140.326 82.3297 140.422 82.1642 140.478 81.9574C140.519 81.7505 140.643 81.5299 140.726 81.4747C140.85 81.392 140.836 81.323 140.685 81.2265C140.547 81.1437 124.425 81.0886 94.4585 81.0886H48.4256V95.017V108.946H48.0119C47.7361 108.946 47.5982 109.014 47.5982 109.152C47.5982 109.29 47.4602 109.359 47.1844 109.359C46.9086 109.359 46.7707 109.428 46.7707 109.566C46.7707 109.704 46.6328 109.773 46.357 109.773C46.1088 109.773 45.9019 109.856 45.8605 109.98C45.8054 110.104 45.5985 110.187 45.3779 110.187C45.1159 110.187 44.9779 110.256 44.9779 110.394C44.9779 110.531 44.84 110.6 44.5642 110.6C44.3022 110.6 44.1505 110.669 44.1505 110.793C44.1505 110.904 43.9299 111 43.5851 111.055C43.2679 111.097 42.9645 111.193 42.9231 111.262C42.8818 111.345 42.6611 111.455 42.4543 111.497C42.2474 111.552 42.0819 111.648 42.0819 111.704C42.0819 111.773 41.8061 111.869 41.4613 111.924C41.1166 111.966 40.8408 112.062 40.8408 112.117C40.8408 112.186 40.6339 112.283 40.3995 112.324C40.1512 112.379 39.903 112.49 39.8616 112.559C39.8203 112.628 39.5445 112.71 39.2411 112.766C38.9515 112.807 38.6619 112.903 38.6205 112.972C38.5791 113.041 38.2757 113.138 37.9585 113.179C37.6552 113.221 37.3931 113.303 37.3931 113.358C37.3931 113.414 37.0346 113.51 36.6071 113.565C36.1658 113.621 35.7658 113.731 35.7107 113.814C35.6555 113.896 35.2004 113.993 34.6764 114.02C34.1661 114.062 33.6973 114.158 33.6421 114.241C33.5869 114.324 33.0215 114.42 32.332 114.448C31.6287 114.476 31.077 114.558 31.0219 114.655C30.9667 114.738 30.3737 114.82 29.5325 114.848C28.3465 114.889 28.1534 114.875 28.1534 114.682C28.1534 114.558 28.0569 114.462 27.9466 114.462C27.7673 114.462 27.7397 111.373 27.7397 87.5012V60.5406H32.9801H38.2206V54.4728V48.4049H33.2973C30.5806 48.4049 28.2224 48.3635 28.0569 48.3222L27.7397 48.2394V38.2413C27.7397 28.3672 27.7397 28.2431 28.0155 28.1741C28.1672 28.1328 28.2914 28.05 28.2914 27.9811C28.2914 27.9121 46.3432 27.857 70.9042 27.857C99.2163 27.857 113.517 27.8983 113.517 27.9949ZM53.3764 112.503C53.4178 112.586 53.6384 112.697 53.8453 112.738C54.0521 112.793 54.2176 112.89 54.2176 112.945C54.2176 113.014 54.4107 113.096 54.6313 113.152C54.8658 113.207 55.0451 113.29 55.0451 113.358C55.0451 113.427 55.2381 113.51 55.4588 113.565C55.6932 113.621 55.8725 113.703 55.8725 113.772C55.8725 113.841 56.0656 113.938 56.3138 113.979C56.5482 114.034 56.8378 114.172 56.9482 114.269C57.0447 114.379 57.2516 114.462 57.4032 114.462C57.5412 114.462 57.6653 114.558 57.6653 114.669C57.6653 114.807 57.8032 114.875 58.079 114.875C58.3134 114.875 58.4927 114.931 58.4927 115.013C58.4927 115.082 58.6582 115.193 58.8788 115.234C59.0857 115.289 59.2926 115.386 59.3339 115.455C59.3753 115.524 59.6787 115.62 59.9959 115.662C60.3406 115.717 60.5613 115.813 60.5613 115.924C60.5613 116.048 60.713 116.117 60.975 116.117C61.2508 116.117 61.3887 116.186 61.3887 116.323C61.3887 116.475 61.5542 116.53 62.0093 116.53C62.4644 116.53 62.6299 116.585 62.6299 116.737C62.6299 116.875 62.7816 116.944 63.1125 116.944C63.4435 116.944 63.5952 117.013 63.5952 117.151C63.5952 117.303 63.7607 117.358 64.2158 117.358C64.6709 117.358 64.8364 117.413 64.8364 117.565C64.8364 117.716 65.0019 117.771 65.4432 117.771C65.8017 117.771 66.1465 117.854 66.2706 117.978C66.3947 118.102 66.7257 118.185 67.098 118.185C67.5669 118.185 67.7324 118.24 67.7324 118.392C67.7324 118.558 67.9117 118.599 68.5598 118.599C69.1804 118.599 69.4148 118.654 69.47 118.806C69.539 118.957 69.7872 119.013 70.5043 119.013C71.1524 119.013 71.4696 119.068 71.5524 119.206C71.6351 119.344 72.1316 119.413 73.4555 119.454C74.6139 119.495 75.2482 119.578 75.2896 119.688C75.3724 119.923 79.413 119.909 79.482 119.661C79.5233 119.55 80.0336 119.482 81.1782 119.454C82.3504 119.413 82.8606 119.344 82.9985 119.206C83.1365 119.082 83.5088 119.013 84.088 119.013C84.7775 119.013 84.9706 118.971 84.9706 118.806C84.9706 118.64 85.1499 118.599 85.7842 118.599C86.3772 118.599 86.6117 118.544 86.6806 118.392C86.7358 118.24 86.9702 118.185 87.5219 118.185C88.1011 118.185 88.2803 118.144 88.2803 117.978C88.2803 117.827 88.4458 117.771 88.9699 117.771C89.4939 117.771 89.6594 117.716 89.6594 117.565C89.6594 117.413 89.8249 117.358 90.28 117.358C90.7351 117.358 90.9005 117.303 90.9005 117.151C90.9005 116.999 91.066 116.944 91.5211 116.944C91.9762 116.944 92.1417 116.889 92.1417 116.737C92.1417 116.599 92.2796 116.53 92.5554 116.53C92.8312 116.53 92.9691 116.461 92.9691 116.323C92.9691 116.172 93.1346 116.117 93.5897 116.117C94.0448 116.117 94.2103 116.061 94.2103 115.91C94.2103 115.772 94.3482 115.703 94.624 115.703C94.886 115.703 95.0377 115.634 95.0377 115.51C95.0377 115.4 95.2584 115.303 95.6031 115.248C95.9203 115.206 96.2237 115.11 96.2651 115.041C96.3064 114.958 96.5271 114.848 96.734 114.807C96.9408 114.751 97.1063 114.655 97.1063 114.6C97.1063 114.531 97.2994 114.448 97.52 114.393C97.7545 114.338 97.9337 114.255 97.9337 114.186C97.9337 114.117 98.113 114.034 98.3337 113.979C98.5543 113.938 98.775 113.8 98.8163 113.689C98.8577 113.579 99.0784 113.496 99.3128 113.496C99.5886 113.496 99.7265 113.427 99.7265 113.29C99.7265 113.165 99.8644 113.083 100.085 113.083C100.278 113.083 100.526 112.986 100.637 112.876C100.761 112.766 100.968 112.669 101.119 112.669C101.271 112.669 101.381 112.572 101.381 112.448C101.381 112.255 101.492 112.228 101.947 112.297C102.264 112.338 102.567 112.435 102.609 112.503C102.65 112.586 102.871 112.697 103.078 112.738C103.284 112.793 103.45 112.89 103.45 112.945C103.45 113.014 103.643 113.096 103.864 113.152C104.098 113.207 104.277 113.303 104.277 113.372C104.277 113.441 104.402 113.496 104.539 113.496C104.691 113.496 104.898 113.593 105.008 113.703C105.119 113.8 105.367 113.938 105.574 113.993C105.767 114.034 105.932 114.131 105.932 114.2C105.932 114.255 106.153 114.351 106.415 114.407C106.691 114.448 106.898 114.572 106.898 114.682C106.898 114.807 107.049 114.875 107.311 114.875C107.546 114.875 107.725 114.931 107.725 115.013C107.725 115.082 107.891 115.193 108.111 115.234C108.318 115.289 108.525 115.386 108.566 115.455C108.608 115.524 108.911 115.62 109.228 115.662C109.573 115.717 109.794 115.813 109.794 115.924C109.794 116.048 109.945 116.117 110.207 116.117C110.483 116.117 110.621 116.186 110.621 116.323C110.621 116.475 110.787 116.53 111.242 116.53C111.697 116.53 111.862 116.585 111.862 116.737C111.862 116.875 112.014 116.944 112.345 116.944C112.676 116.944 112.828 117.013 112.828 117.151C112.828 117.316 113.007 117.358 113.586 117.358C114.165 117.358 114.345 117.399 114.345 117.565C114.345 117.703 114.482 117.771 114.813 117.771C115.075 117.771 115.379 117.868 115.503 117.978C115.627 118.102 115.958 118.185 116.33 118.185C116.785 118.185 116.965 118.24 116.965 118.378C116.965 118.516 117.227 118.585 117.944 118.626C118.468 118.654 118.951 118.751 119.006 118.833C119.061 118.916 119.53 118.999 120.04 119.04C120.564 119.068 121.019 119.164 121.074 119.247C121.129 119.33 121.888 119.413 122.826 119.454C123.86 119.509 124.494 119.592 124.522 119.688C124.605 119.923 128.645 119.895 128.714 119.661C128.756 119.55 129.266 119.482 130.411 119.454C131.583 119.413 132.093 119.344 132.231 119.206C132.369 119.082 132.741 119.013 133.32 119.013C134.01 119.013 134.203 118.971 134.203 118.806C134.203 118.64 134.382 118.599 135.044 118.599C135.596 118.599 135.941 118.53 136.078 118.392C136.203 118.268 136.547 118.185 136.906 118.185C137.347 118.185 137.513 118.13 137.513 117.978C137.513 117.827 137.678 117.771 138.202 117.771C138.726 117.771 138.892 117.716 138.892 117.565C138.892 117.413 139.057 117.358 139.512 117.358C139.967 117.358 140.133 117.303 140.133 117.151C140.133 116.999 140.298 116.944 140.753 116.944C141.209 116.944 141.374 116.889 141.374 116.737C141.374 116.599 141.512 116.53 141.788 116.53C142.064 116.53 142.201 116.461 142.201 116.323C142.201 116.172 142.367 116.117 142.822 116.117C143.277 116.117 143.443 116.061 143.443 115.91C143.443 115.772 143.581 115.703 143.856 115.703C144.118 115.703 144.27 115.634 144.27 115.51C144.27 115.4 144.491 115.303 144.835 115.248C145.153 115.206 145.456 115.11 145.497 115.041C145.539 114.958 145.759 114.848 145.966 114.807C146.173 114.751 146.339 114.655 146.339 114.6C146.339 114.531 146.532 114.448 146.752 114.393C146.987 114.338 147.166 114.255 147.166 114.186C147.166 114.117 147.359 114.034 147.58 113.979C147.814 113.924 147.994 113.841 147.994 113.772C147.994 113.703 148.187 113.621 148.407 113.565C148.642 113.51 148.821 113.427 148.821 113.358C148.821 113.29 149.014 113.193 149.262 113.152C149.497 113.096 149.786 112.959 149.897 112.862C149.993 112.752 150.2 112.669 150.352 112.669C150.503 112.669 150.614 112.572 150.614 112.448C150.614 112.255 150.724 112.228 151.179 112.297C151.496 112.338 151.8 112.435 151.841 112.503C151.882 112.586 152.103 112.697 152.31 112.738C152.517 112.793 152.682 112.89 152.682 112.945C152.682 113.014 152.875 113.096 153.096 113.152C153.33 113.207 153.51 113.303 153.51 113.372C153.51 113.441 153.634 113.496 153.772 113.496C153.923 113.496 154.13 113.593 154.241 113.703C154.351 113.8 154.613 113.938 154.834 113.993C155.054 114.048 155.316 114.172 155.413 114.282C155.509 114.379 155.716 114.462 155.868 114.462C156.006 114.462 156.13 114.517 156.13 114.6C156.13 114.669 156.295 114.779 156.502 114.82C156.709 114.875 156.971 115 157.068 115.11C157.164 115.206 157.371 115.289 157.509 115.289C157.647 115.289 157.785 115.358 157.812 115.441C157.84 115.51 158.116 115.62 158.447 115.662C158.805 115.703 159.026 115.813 159.026 115.924C159.026 116.048 159.178 116.117 159.44 116.117C159.715 116.117 159.853 116.186 159.853 116.323C159.853 116.475 160.019 116.53 160.474 116.53C160.929 116.53 161.095 116.585 161.095 116.737C161.095 116.889 161.26 116.944 161.715 116.944C162.17 116.944 162.336 116.999 162.336 117.151C162.336 117.303 162.501 117.358 162.956 117.358C163.411 117.358 163.577 117.413 163.577 117.565C163.577 117.716 163.742 117.771 164.197 117.771C164.653 117.771 164.818 117.827 164.818 117.978C164.818 118.13 164.983 118.185 165.494 118.185C165.88 118.185 166.252 118.268 166.363 118.378C166.473 118.475 166.914 118.585 167.355 118.626C167.797 118.668 168.197 118.751 168.238 118.833C168.293 118.916 168.762 118.999 169.272 119.04C169.796 119.068 170.251 119.164 170.307 119.247C170.362 119.33 171.12 119.413 172.058 119.454C173.092 119.509 173.727 119.592 173.754 119.688C173.782 119.785 174.196 119.84 174.83 119.84H175.85V129.99V140.126L172.748 140.085C170.596 140.057 169.603 139.988 169.534 139.892C169.479 139.795 168.9 139.712 168.073 139.685C167.135 139.643 166.68 139.574 166.638 139.45C166.611 139.34 166.294 139.285 165.714 139.285C165.149 139.285 164.763 139.216 164.653 139.092C164.528 138.981 164.06 138.885 163.453 138.843C162.901 138.816 162.418 138.719 162.363 138.637C162.308 138.554 161.936 138.444 161.55 138.388C161.15 138.333 160.819 138.25 160.819 138.182C160.819 138.126 160.529 138.044 160.184 138.002C159.826 137.975 159.509 137.878 159.453 137.809C159.412 137.726 159.026 137.63 158.612 137.575C158.199 137.52 157.826 137.409 157.771 137.34C157.73 137.258 157.426 137.161 157.109 137.12C156.806 137.078 156.544 136.996 156.544 136.927C156.544 136.871 156.268 136.775 155.937 136.734C155.592 136.678 155.289 136.554 155.247 136.444C155.206 136.334 154.985 136.251 154.765 136.251C154.544 136.251 154.337 136.182 154.31 136.113C154.282 136.03 154.02 135.934 153.717 135.878C153.413 135.837 153.124 135.741 153.082 135.672C153.041 135.603 152.737 135.506 152.42 135.465C152.076 135.41 151.855 135.313 151.855 135.203C151.855 134.927 150.559 134.941 150.283 135.217C150.172 135.327 149.924 135.423 149.731 135.423C149.524 135.423 149.373 135.506 149.373 135.616C149.373 135.727 149.152 135.823 148.807 135.878C148.49 135.92 148.187 136.016 148.145 136.085C148.104 136.154 147.814 136.251 147.525 136.292C147.221 136.347 146.945 136.43 146.904 136.499C146.863 136.568 146.614 136.678 146.38 136.734C146.132 136.775 145.925 136.871 145.925 136.94C145.925 136.996 145.58 137.092 145.166 137.147C144.753 137.189 144.408 137.285 144.408 137.354C144.408 137.423 144.118 137.52 143.76 137.575C143.387 137.63 143.056 137.726 143.015 137.795C142.96 137.878 142.643 137.975 142.284 138.002C141.939 138.044 141.65 138.126 141.65 138.195C141.65 138.25 141.291 138.347 140.864 138.402C140.422 138.457 140.023 138.554 139.967 138.637C139.912 138.719 139.457 138.816 138.947 138.843C138.409 138.885 137.926 138.981 137.816 139.092C137.706 139.216 137.32 139.285 136.754 139.285C136.175 139.285 135.858 139.34 135.83 139.45C135.789 139.574 135.334 139.643 134.396 139.685C133.569 139.712 132.989 139.795 132.934 139.892C132.865 140.002 131.141 140.043 126.618 140.043C122.095 140.043 120.371 140.002 120.302 139.892C120.247 139.795 119.668 139.712 118.854 139.685C118.054 139.643 117.461 139.561 117.406 139.478C117.351 139.381 116.854 139.299 116.303 139.257C115.751 139.23 115.255 139.133 115.2 139.05C115.144 138.968 114.675 138.885 114.165 138.843C113.641 138.816 113.186 138.719 113.131 138.65C113.076 138.568 112.703 138.457 112.29 138.416C111.876 138.361 111.504 138.264 111.462 138.195C111.421 138.126 111.021 138.03 110.593 137.975C110.152 137.92 109.794 137.823 109.794 137.768C109.794 137.713 109.532 137.63 109.228 137.589C108.911 137.547 108.608 137.437 108.552 137.354C108.497 137.271 108.194 137.161 107.877 137.12C107.573 137.078 107.311 136.996 107.311 136.927C107.311 136.871 107.036 136.775 106.705 136.734C106.36 136.678 106.056 136.554 106.015 136.444C105.974 136.32 105.739 136.251 105.394 136.251C105.05 136.251 104.829 136.182 104.774 136.044C104.732 135.92 104.526 135.837 104.291 135.837C104.071 135.837 103.864 135.768 103.836 135.685C103.809 135.616 103.533 135.506 103.202 135.465C102.816 135.41 102.623 135.313 102.623 135.175C102.623 135.01 102.471 134.982 101.836 135.037C101.409 135.079 101.023 135.175 100.995 135.258C100.968 135.354 100.761 135.423 100.54 135.423C100.32 135.423 100.099 135.506 100.057 135.616C100.016 135.713 99.7403 135.837 99.4369 135.892C99.1473 135.934 98.8991 136.03 98.8991 136.099C98.8991 136.168 98.6371 136.251 98.3337 136.292C98.0165 136.334 97.7131 136.43 97.6717 136.513C97.6166 136.582 97.3132 136.692 96.996 136.747C96.6788 136.802 96.4168 136.885 96.4168 136.954C96.4168 137.009 96.141 137.106 95.7962 137.161C95.4514 137.202 95.1756 137.299 95.1756 137.368C95.1756 137.423 94.886 137.52 94.5275 137.575C94.1551 137.63 93.8241 137.726 93.7828 137.795C93.7276 137.878 93.4104 137.975 93.0519 138.002C92.7071 138.044 92.4175 138.126 92.4175 138.195C92.4175 138.25 92.059 138.347 91.6314 138.402C91.1901 138.457 90.7902 138.554 90.7351 138.637C90.6799 138.719 90.2248 138.816 89.7008 138.843C89.1905 138.885 88.7216 138.968 88.6665 139.05C88.6113 139.133 88.1562 139.23 87.6322 139.257C87.1219 139.299 86.653 139.395 86.5979 139.478C86.5427 139.561 85.9497 139.643 85.1499 139.685C84.3362 139.712 83.757 139.795 83.7019 139.892C83.564 140.112 70.9318 140.112 70.7939 139.892C70.7387 139.795 70.1871 139.712 69.4838 139.685C68.7943 139.657 68.2288 139.561 68.1737 139.478C68.1185 139.381 67.6221 139.299 67.0704 139.257C66.5188 139.23 66.0224 139.133 65.9672 139.05C65.912 138.968 65.4432 138.885 64.9329 138.843C64.4089 138.816 63.9538 138.719 63.8986 138.65C63.8434 138.568 63.4711 138.457 63.0574 138.416C62.6437 138.361 62.2713 138.264 62.2299 138.195C62.1886 138.126 61.7886 138.03 61.3611 137.975C60.9198 137.92 60.5613 137.823 60.5613 137.768C60.5613 137.713 60.2993 137.63 59.9959 137.589C59.6787 137.547 59.3753 137.437 59.3201 137.354C59.265 137.271 58.9616 137.161 58.6444 137.12C58.341 137.078 58.079 136.996 58.079 136.927C58.079 136.871 57.8032 136.775 57.4722 136.734C57.1274 136.678 56.824 136.554 56.7827 136.444C56.7413 136.32 56.5069 136.251 56.1621 136.251C55.8173 136.251 55.5967 136.182 55.5415 136.044C55.5001 135.92 55.2933 135.837 55.0589 135.837C54.8382 135.837 54.6313 135.768 54.6038 135.685C54.5762 135.616 54.3004 135.506 53.9694 135.465C53.6108 135.423 53.3902 135.313 53.3902 135.203C53.3902 135.065 53.1695 135.01 52.5628 135.01C51.9146 135.01 51.7353 135.051 51.7353 135.217C51.7353 135.354 51.5974 135.423 51.3216 135.423C51.0734 135.423 50.8665 135.506 50.8251 135.63C50.77 135.741 50.5769 135.837 50.3563 135.837C50.1356 135.837 49.8736 135.92 49.7771 136.016C49.6805 136.127 49.3496 136.237 49.06 136.292C48.7566 136.334 48.4807 136.444 48.4394 136.513C48.3842 136.596 48.0808 136.692 47.7636 136.747C47.4465 136.802 47.1844 136.885 47.1844 136.954C47.1844 137.009 46.8948 137.106 46.5363 137.161C46.1639 137.216 45.833 137.313 45.7916 137.382C45.7502 137.451 45.4744 137.533 45.171 137.589C44.8814 137.63 44.5918 137.74 44.5504 137.809C44.4953 137.878 44.1229 137.975 43.723 138.016C43.3093 138.057 42.9369 138.14 42.8956 138.223C42.8404 138.292 42.4681 138.388 42.0681 138.43C41.6544 138.471 41.2683 138.581 41.2131 138.678C41.1442 138.802 40.827 138.871 40.2892 138.871C39.7927 138.871 39.4617 138.94 39.4341 139.037C39.3928 139.133 38.9928 139.23 38.4136 139.257C37.8896 139.299 37.4207 139.395 37.3655 139.478C37.3104 139.561 36.7174 139.643 35.9175 139.685C35.1039 139.712 34.5247 139.795 34.4695 139.892C34.4006 140.002 33.3525 140.057 31.0495 140.085L27.7397 140.126V130.073V120.006L28.0569 119.923C28.2224 119.881 28.7189 119.84 29.1464 119.84C29.629 119.84 29.9462 119.771 29.9738 119.675C30.0152 119.564 30.5944 119.495 31.808 119.454C33.0629 119.413 33.6421 119.33 33.78 119.206C33.8903 119.082 34.2903 119.013 34.8557 119.013C35.5452 119.013 35.7383 118.971 35.7383 118.806C35.7383 118.64 35.9175 118.599 36.5519 118.599C37.1449 118.599 37.3793 118.544 37.4483 118.392C37.5035 118.24 37.7379 118.185 38.2895 118.185C38.8687 118.185 39.048 118.144 39.048 117.978C39.048 117.827 39.2135 117.771 39.7375 117.771C40.2616 117.771 40.4271 117.716 40.4271 117.565C40.4271 117.413 40.5925 117.358 41.0476 117.358C41.5027 117.358 41.6682 117.303 41.6682 117.151C41.6682 116.999 41.8337 116.944 42.2888 116.944C42.7439 116.944 42.9094 116.889 42.9094 116.737C42.9094 116.599 43.0473 116.53 43.3231 116.53C43.5989 116.53 43.7368 116.461 43.7368 116.323C43.7368 116.172 43.9023 116.117 44.3574 116.117C44.8125 116.117 44.9779 116.061 44.9779 115.91C44.9779 115.772 45.1159 115.703 45.3917 115.703C45.6675 115.703 45.8054 115.634 45.8054 115.496C45.8054 115.358 45.9433 115.289 46.2191 115.289C46.4673 115.289 46.6742 115.206 46.7156 115.082C46.7707 114.972 46.95 114.875 47.1293 114.875C47.3223 114.875 47.5016 114.793 47.543 114.682C47.5844 114.586 47.8602 114.462 48.1636 114.407C48.4532 114.365 48.7014 114.269 48.7014 114.2C48.7014 114.131 48.8807 114.034 49.1013 113.979C49.322 113.938 49.5426 113.8 49.584 113.689C49.6254 113.579 49.8046 113.496 49.9977 113.496C50.177 113.496 50.3563 113.4 50.4114 113.29C50.4528 113.165 50.6597 113.083 50.9079 113.083C51.1837 113.083 51.3216 113.014 51.3216 112.876C51.3216 112.738 51.4595 112.669 51.7353 112.669C52.0249 112.669 52.149 112.6 52.149 112.448C52.149 112.255 52.2594 112.228 52.7145 112.297C53.0316 112.338 53.335 112.435 53.3764 112.503Z" fill="#0086FF"/>
<path d="M58.9067 54.4741V60.542H71.0424H83.1781V54.681C83.1781 50.861 83.1368 48.82 83.0402 48.82C82.9713 48.82 82.9023 48.7235 82.9023 48.6131C82.9023 48.4339 81.4819 48.4063 70.9045 48.4063H58.9067V54.4741Z" fill="#0086FF"/>
<path d="M267.201 54.7217V73.7456H296.674V91.4299H267.201V112.062H300.535V130.416H245.192V36.3675H300.535V54.7217H267.201Z" fill="white"/>
<path d="M383.679 66.6451C383.679 72.0933 382.478 77.0949 380.076 81.65C377.673 86.1157 373.984 89.7329 369.007 92.5017C364.031 95.2704 357.853 96.6548 350.474 96.6548H336.831V130.416H314.823V36.3675H350.474C357.681 36.3675 363.773 37.6626 368.75 40.2527C373.726 42.8428 377.459 46.4154 379.947 50.9704C382.435 55.5255 383.679 60.7504 383.679 66.6451ZM348.801 78.4346C353.005 78.4346 356.137 77.4075 358.196 75.3533C360.255 73.2991 361.285 70.3963 361.285 66.6451C361.285 62.8939 360.255 59.9912 358.196 57.937C356.137 55.8827 353.005 54.8556 348.801 54.8556H336.831V78.4346H348.801Z" fill="white"/>
<path d="M417.145 36.3675V130.416H395.137V36.3675H417.145Z" fill="white"/>
<path d="M513.92 130.416H491.912L455.103 72.4059V130.416H433.095V36.3675H455.103L491.912 94.6452V36.3675H513.92V130.416Z" fill="white"/>
<path d="M551.882 36.3675V130.416H529.874V36.3675H551.882Z" fill="white"/>
<path d="M610.561 131.353C602.066 131.353 594.258 129.299 587.137 125.191C580.101 121.082 574.481 115.366 570.276 108.042C566.158 100.629 564.099 92.323 564.099 83.1236C564.099 73.9243 566.158 65.6627 570.276 58.3389C574.481 51.0151 580.101 45.299 587.137 41.1905C594.258 37.0821 602.066 35.0278 610.561 35.0278C619.055 35.0278 626.82 37.0821 633.856 41.1905C640.978 45.299 646.555 51.0151 650.588 58.3389C654.706 65.6627 656.765 73.9243 656.765 83.1236C656.765 92.323 654.706 100.629 650.588 108.042C646.469 115.366 640.892 121.082 633.856 125.191C626.82 129.299 619.055 131.353 610.561 131.353ZM610.561 110.454C617.768 110.454 623.517 107.953 627.807 102.951C632.183 97.9498 634.371 91.3406 634.371 83.1236C634.371 74.8174 632.183 68.2081 627.807 63.2958C623.517 58.2942 617.768 55.7934 610.561 55.7934C603.268 55.7934 597.433 58.2496 593.057 63.1619C588.767 68.0742 586.622 74.7281 586.622 83.1236C586.622 91.4299 588.767 98.0838 593.057 103.085C597.433 107.998 603.268 110.454 610.561 110.454Z" fill="white"/>
</svg>
