<svg width="516" height="132" viewBox="0 0 516 132" fill="none" xmlns="http://www.w3.org/2000/svg">
<path d="M14.816 0.129826C14.7836 0.227193 14.4266 0.281286 13.6693 0.302923C12.8146 0.335379 12.5658 0.378653 12.5658 0.497657C12.5658 0.605843 12.4035 0.649117 11.9166 0.649117C11.4082 0.649117 11.2675 0.681573 11.2675 0.811396C11.2675 0.919581 11.1485 0.973674 10.8889 0.973674C10.6292 0.973674 10.5102 1.02777 10.5102 1.13595C10.5102 1.25496 10.3804 1.29823 10.0234 1.29823C9.66639 1.29823 9.53656 1.34151 9.53656 1.46051C9.53656 1.56869 9.42838 1.62279 9.21201 1.62279C8.99564 1.62279 8.88745 1.67688 8.88745 1.78507C8.88745 1.89325 8.77926 1.94734 8.56289 1.94734C8.35734 1.94734 8.23834 2.00144 8.23834 2.0988C8.23834 2.18535 8.09769 2.28272 7.91378 2.32599C7.74068 2.36927 7.58922 2.445 7.58922 2.49909C7.58922 2.55318 7.51349 2.59646 7.42694 2.59646C7.3404 2.59646 7.26467 2.67219 7.26467 2.75874C7.26467 2.84529 7.1673 2.92102 7.05911 2.92102C6.94011 2.92102 6.7021 3.06166 6.529 3.24557C6.34509 3.41867 6.16117 3.57013 6.1179 3.57013C6.07462 3.57013 5.87989 3.74323 5.67434 3.94878C5.46878 4.15433 5.24159 4.32743 5.15505 4.32743C5.0685 4.32743 4.99277 4.40316 4.99277 4.48971C4.99277 4.57626 4.91704 4.65199 4.83049 4.65199C4.74394 4.65199 4.66821 4.72772 4.66821 4.81426C4.66821 4.90081 4.59248 4.97654 4.50593 4.97654C4.41938 4.97654 4.34365 5.05227 4.34365 5.13882C4.34365 5.22537 4.17056 5.45256 3.965 5.65811C3.75945 5.86366 3.58635 6.08004 3.58635 6.15577C3.58635 6.22068 3.51062 6.27477 3.42408 6.27477C3.33753 6.27477 3.2618 6.3505 3.2618 6.43705C3.2618 6.5236 3.18607 6.59933 3.09952 6.59933C2.99133 6.59933 2.93724 6.70751 2.93724 6.92388C2.93724 7.14026 2.88315 7.24844 2.77496 7.24844C2.68841 7.24844 2.61268 7.32417 2.61268 7.41072C2.61268 7.49727 2.53695 7.573 2.4504 7.573C2.34222 7.573 2.28813 7.68118 2.28813 7.89755C2.28813 8.11393 2.23403 8.22211 2.12585 8.22211C2.01766 8.22211 1.96357 8.3303 1.96357 8.54667C1.96357 8.76304 1.90948 8.87123 1.80129 8.87123C1.69311 8.87123 1.63901 8.97941 1.63901 9.19578C1.63901 9.41215 1.58492 9.52034 1.47673 9.52034C1.36855 9.52034 1.31446 9.62852 1.31446 9.8449C1.31446 10.0396 1.24954 10.2019 1.15218 10.2344C1.04399 10.2776 0.989899 10.4507 0.989899 10.7212C0.989899 11.0241 0.946624 11.1431 0.82762 11.1431C0.708616 11.1431 0.665342 11.2729 0.665342 11.6732C0.665342 11.987 0.60043 12.2683 0.513882 12.3548C0.427333 12.4522 0.351603 12.8308 0.319148 13.3068C0.29751 13.7937 0.232599 14.1182 0.146051 14.1507C-0.0486835 14.2156 -0.0486835 117.771 0.146051 117.836C0.232599 117.868 0.29751 118.193 0.319148 118.68C0.351603 119.156 0.427333 119.534 0.513882 119.632C0.60043 119.707 0.665342 119.989 0.665342 120.248C0.665342 120.562 0.719434 120.735 0.82762 120.778C0.935806 120.811 0.989899 120.984 0.989899 121.265C0.989899 121.536 1.04399 121.709 1.15218 121.752C1.24954 121.785 1.31446 121.947 1.31446 122.142C1.31446 122.358 1.36855 122.466 1.47673 122.466C1.58492 122.466 1.63901 122.574 1.63901 122.791C1.63901 123.007 1.69311 123.115 1.80129 123.115C1.90948 123.115 1.96357 123.223 1.96357 123.44C1.96357 123.656 2.01766 123.764 2.12585 123.764C2.23403 123.764 2.28813 123.873 2.28813 124.089C2.28813 124.305 2.34222 124.413 2.4504 124.413C2.53695 124.413 2.61268 124.489 2.61268 124.576C2.61268 124.662 2.68841 124.738 2.77496 124.738C2.88315 124.738 2.93724 124.846 2.93724 125.063C2.93724 125.279 2.99133 125.387 3.09952 125.387C3.18607 125.387 3.2618 125.463 3.2618 125.549C3.2618 125.636 3.33753 125.712 3.42408 125.712C3.51062 125.712 3.58635 125.766 3.58635 125.831C3.58635 125.906 3.75945 126.123 3.965 126.328C4.17056 126.534 4.34365 126.761 4.34365 126.848C4.34365 126.934 4.41938 127.01 4.50593 127.01C4.59248 127.01 4.66821 127.086 4.66821 127.172C4.66821 127.259 4.74394 127.334 4.83049 127.334C4.91704 127.334 4.99277 127.41 4.99277 127.497C4.99277 127.583 5.0685 127.659 5.15505 127.659C5.24159 127.659 5.46878 127.832 5.67434 128.038C5.87989 128.243 6.07462 128.416 6.1179 128.416C6.16117 128.416 6.34509 128.568 6.529 128.741C6.7021 128.925 6.94011 129.065 7.05911 129.065C7.1673 129.065 7.26467 129.141 7.26467 129.228C7.26467 129.314 7.3404 129.39 7.42694 129.39C7.51349 129.39 7.58922 129.433 7.58922 129.487C7.58922 129.541 7.72986 129.617 7.91378 129.66C8.08688 129.704 8.23834 129.801 8.23834 129.888C8.23834 129.985 8.35734 130.039 8.56289 130.039C8.77926 130.039 8.88745 130.093 8.88745 130.201C8.88745 130.31 8.99564 130.364 9.21201 130.364C9.42838 130.364 9.53656 130.418 9.53656 130.526C9.53656 130.645 9.66639 130.688 10.0234 130.688C10.3804 130.688 10.5102 130.732 10.5102 130.851C10.5102 130.959 10.6292 131.013 10.8889 131.013C11.1485 131.013 11.2675 131.067 11.2675 131.175C11.2675 131.305 11.4082 131.337 11.9166 131.337C12.4035 131.337 12.5658 131.381 12.5658 131.489C12.5658 131.608 12.8254 131.651 13.8315 131.684C14.7187 131.705 15.1081 131.759 15.1406 131.846C15.2055 132.051 144.834 132.051 144.898 131.846C144.931 131.759 145.299 131.705 146.099 131.684C147.008 131.651 147.257 131.608 147.257 131.489C147.257 131.381 147.419 131.337 147.906 131.337C148.414 131.337 148.555 131.305 148.555 131.175C148.555 131.056 148.685 131.013 149.042 131.013C149.399 131.013 149.529 130.97 149.529 130.851C149.529 130.732 149.648 130.688 149.962 130.688C150.254 130.688 150.394 130.645 150.394 130.537C150.394 130.45 150.557 130.353 150.773 130.32C150.978 130.277 151.152 130.201 151.152 130.147C151.152 130.082 151.227 130.039 151.314 130.039C151.4 130.039 151.476 129.963 151.476 129.877C151.476 129.769 151.584 129.715 151.801 129.715C152.006 129.715 152.125 129.66 152.125 129.563C152.125 129.477 152.277 129.379 152.45 129.336C152.634 129.293 152.774 129.217 152.774 129.163C152.774 129.109 152.85 129.065 152.937 129.065C153.023 129.065 153.099 129.001 153.099 128.914C153.099 128.827 153.25 128.73 153.423 128.687C153.607 128.644 153.748 128.546 153.748 128.46C153.748 128.373 153.802 128.308 153.856 128.308C153.921 128.308 154.181 128.092 154.43 127.821C154.689 127.551 154.96 127.334 155.025 127.334C155.1 127.334 155.154 127.259 155.154 127.172C155.154 127.086 155.23 127.01 155.317 127.01C155.403 127.01 155.479 126.967 155.479 126.902C155.479 126.739 155.836 126.361 155.987 126.361C156.063 126.361 156.128 126.307 156.128 126.242C156.128 126.177 156.204 126.058 156.29 125.971C156.377 125.874 156.453 125.712 156.453 125.593C156.453 125.485 156.528 125.387 156.615 125.387C156.701 125.387 156.777 125.311 156.777 125.225C156.777 125.138 156.853 125.063 156.939 125.063C157.026 125.063 157.102 124.987 157.102 124.9C157.102 124.814 157.145 124.738 157.199 124.738C157.253 124.738 157.329 124.597 157.372 124.413C157.416 124.24 157.513 124.089 157.599 124.089C157.697 124.089 157.751 123.97 157.751 123.764C157.751 123.548 157.805 123.44 157.913 123.44C158.021 123.44 158.075 123.332 158.075 123.115C158.075 122.899 158.13 122.791 158.238 122.791C158.346 122.791 158.4 122.683 158.4 122.466C158.4 122.25 158.454 122.142 158.562 122.142C158.681 122.142 158.725 122.012 158.725 121.655C158.725 121.298 158.768 121.168 158.887 121.168C159.006 121.168 159.049 121.038 159.049 120.681C159.049 120.346 159.103 120.173 159.211 120.129C159.33 120.075 159.374 119.891 159.374 119.426C159.374 118.928 159.406 118.788 159.536 118.788C159.677 118.788 159.698 112.848 159.698 65.9932C159.698 19.138 159.677 13.1987 159.536 13.1987C159.406 13.1987 159.374 13.058 159.374 12.5604C159.374 12.1925 159.32 11.9004 159.255 11.8788C159.19 11.8571 159.114 11.6083 159.082 11.327C159.038 10.9917 158.973 10.8186 158.876 10.8186C158.768 10.8186 158.725 10.6671 158.725 10.3317C158.725 9.97472 158.681 9.8449 158.562 9.8449C158.454 9.8449 158.4 9.73671 158.4 9.52034C158.4 9.30397 158.346 9.19578 158.238 9.19578C158.13 9.19578 158.075 9.0876 158.075 8.87123C158.075 8.65485 158.021 8.54667 157.913 8.54667C157.805 8.54667 157.751 8.43848 157.751 8.22211C157.751 8.01656 157.697 7.89755 157.599 7.89755C157.513 7.89755 157.416 7.74609 157.372 7.573C157.329 7.38908 157.253 7.24844 157.199 7.24844C157.145 7.24844 157.102 7.17271 157.102 7.08616C157.102 6.99961 157.026 6.92388 156.939 6.92388C156.853 6.92388 156.777 6.84815 156.777 6.76161C156.777 6.67506 156.701 6.59933 156.615 6.59933C156.528 6.59933 156.453 6.50196 156.453 6.39377C156.453 6.27477 156.377 6.11249 156.29 6.01512C156.204 5.92858 156.128 5.80957 156.128 5.74466C156.128 5.67975 156.063 5.62566 155.987 5.62566C155.836 5.62566 155.479 5.24701 155.479 5.08473C155.479 5.01982 155.403 4.97654 155.317 4.97654C155.23 4.97654 155.154 4.90081 155.154 4.81426C155.154 4.72772 155.1 4.65199 155.025 4.65199C154.96 4.65199 154.624 4.35988 154.278 4.00287C153.932 3.64586 153.521 3.33212 153.369 3.28885C153.218 3.25639 153.099 3.15902 153.099 3.07248C153.099 2.98593 153.023 2.92102 152.937 2.92102C152.85 2.92102 152.774 2.87774 152.774 2.82365C152.774 2.76956 152.634 2.69383 152.45 2.65055C152.277 2.60728 152.125 2.50991 152.125 2.42336C152.125 2.33681 152.049 2.2719 151.963 2.2719C151.876 2.2719 151.801 2.22863 151.801 2.17453C151.801 2.12044 151.66 2.04471 151.476 2.00144C151.303 1.95816 151.152 1.88243 151.152 1.83916C151.152 1.78507 150.978 1.70934 150.773 1.66606C150.557 1.63361 150.394 1.53624 150.394 1.44969C150.394 1.34151 150.254 1.29823 149.962 1.29823C149.648 1.29823 149.529 1.25496 149.529 1.13595C149.529 1.01695 149.399 0.973674 149.042 0.973674C148.685 0.973674 148.555 0.9304 148.555 0.811396C148.555 0.681573 148.414 0.649117 147.906 0.649117C147.419 0.649117 147.257 0.605843 147.257 0.497657C147.257 0.378653 147.008 0.335379 146.099 0.302923C145.299 0.281286 144.931 0.227193 144.898 0.129826C144.866 0.032459 131.765 3.29502e-06 79.8572 3.29502e-06C27.9498 3.29502e-06 14.8485 0.032459 14.816 0.129826ZM89.053 21.9617C89.053 22.0158 89.1287 22.0699 89.2153 22.0699C89.3559 22.0699 89.3776 23.0219 89.3776 29.9566C89.3776 37.0428 89.3559 37.8433 89.2045 37.9082C89.1071 37.9407 87.2896 37.9732 85.1475 37.9732H81.2636V42.7333V47.4935H109.446H137.628V55.5425V63.5915L137.39 63.6564C137.25 63.6889 136.601 63.7213 135.941 63.7213C134.967 63.7213 134.718 63.7538 134.664 63.8836C134.621 64.0026 134.437 64.0459 134.015 64.0459C133.593 64.0459 133.42 64.0892 133.366 64.2082C133.333 64.3164 133.16 64.3705 132.879 64.3705C132.609 64.3705 132.435 64.4245 132.392 64.5327C132.36 64.6301 132.197 64.695 132.003 64.695C131.786 64.695 131.678 64.7491 131.678 64.8573C131.678 64.9655 131.57 65.0196 131.354 65.0196C131.137 65.0196 131.029 65.0737 131.029 65.1818C131.029 65.29 130.921 65.3441 130.704 65.3441C130.488 65.3441 130.38 65.3982 130.38 65.5064C130.38 65.6146 130.272 65.6687 130.055 65.6687C129.839 65.6687 129.731 65.7228 129.731 65.831C129.731 65.9175 129.633 65.9932 129.514 65.9932C129.395 65.9932 129.298 66.069 129.298 66.1555C129.298 66.2529 129.201 66.3178 129.028 66.3178C128.854 66.3178 128.757 66.3827 128.757 66.4801C128.757 66.5666 128.681 66.6424 128.595 66.6424C128.508 66.6424 128.433 66.7181 128.433 66.8046C128.433 66.8912 128.335 66.9669 128.216 66.9669C128.097 66.9669 128 67.0102 128 67.0751C128 67.2157 127.6 67.616 127.459 67.616C127.405 67.616 127.351 67.6918 127.351 67.7783C127.351 67.8649 127.275 67.9406 127.188 67.9406C127.102 67.9406 127.026 67.9839 127.026 68.0488C127.026 68.1894 126.626 68.5897 126.485 68.5897C126.431 68.5897 126.377 68.6871 126.377 68.8061C126.377 68.9251 126.301 69.0224 126.215 69.0224C126.128 69.0224 126.052 69.0982 126.052 69.1847C126.052 69.2713 125.977 69.347 125.89 69.347C125.793 69.347 125.728 69.4444 125.728 69.6175C125.728 69.7906 125.663 69.8879 125.566 69.8879C125.479 69.8879 125.403 69.9853 125.403 70.1043C125.403 70.2233 125.328 70.3207 125.241 70.3207C125.133 70.3207 125.079 70.4289 125.079 70.6452C125.079 70.8616 125.025 70.9698 124.917 70.9698C124.819 70.9698 124.754 71.0671 124.754 71.2402C124.754 71.3917 124.679 71.5432 124.592 71.5756C124.495 71.6189 124.43 71.7812 124.43 71.9543C124.43 72.1598 124.376 72.268 124.267 72.268C124.159 72.268 124.105 72.3762 124.105 72.5926C124.105 72.8089 124.051 72.9171 123.943 72.9171C123.824 72.9171 123.781 73.0469 123.781 73.404C123.781 73.761 123.737 73.8908 123.618 73.8908C123.488 73.8908 123.456 74.0314 123.456 74.5399C123.456 75.0159 123.413 75.189 123.315 75.189C123.121 75.189 123.023 77.4393 123.023 82.0264C123.023 84.2442 122.98 85.4667 122.915 85.4667C122.861 85.4667 122.807 85.5424 122.807 85.6289C122.807 85.7155 122.731 85.7912 122.645 85.7912C122.558 85.7912 122.482 85.7155 122.482 85.6289C122.482 85.5207 122.374 85.4667 122.158 85.4667C121.941 85.4667 121.833 85.4126 121.833 85.3044C121.833 85.1962 121.725 85.1421 121.509 85.1421C121.292 85.1421 121.184 85.088 121.184 84.9798C121.184 84.8716 121.065 84.8175 120.805 84.8175C120.546 84.8175 120.427 84.7634 120.427 84.6553C120.427 84.5471 120.319 84.493 120.102 84.493C119.886 84.493 119.778 84.4389 119.778 84.3307C119.778 84.2225 119.67 84.1684 119.453 84.1684C119.237 84.1684 119.129 84.1143 119.129 84.0061C119.129 83.8871 118.999 83.8439 118.653 83.8439C118.328 83.8439 118.155 83.898 118.112 84.0061C118.079 84.0927 117.939 84.1684 117.787 84.1684C117.646 84.1684 117.506 84.2442 117.463 84.3307C117.43 84.4173 117.279 84.493 117.127 84.493C116.965 84.493 116.77 84.5687 116.684 84.6553C116.586 84.7418 116.424 84.8175 116.305 84.8175C116.197 84.8175 116.099 84.8933 116.099 84.9798C116.099 85.0988 115.98 85.1421 115.667 85.1421C115.353 85.1421 115.234 85.1854 115.234 85.3044C115.234 85.4126 115.126 85.4667 114.909 85.4667C114.693 85.4667 114.585 85.5207 114.585 85.6289C114.585 85.7371 114.477 85.7912 114.26 85.7912C114.055 85.7912 113.936 85.8453 113.936 85.9427C113.936 86.0292 113.773 86.1266 113.557 86.159C113.351 86.2023 113.178 86.278 113.178 86.3321C113.178 86.3971 113.038 86.4403 112.854 86.4403C112.648 86.4403 112.529 86.4944 112.529 86.5918C112.529 86.6783 112.389 86.7757 112.205 86.819C112.032 86.8622 111.88 86.938 111.88 86.9921C111.88 87.0462 111.74 87.0894 111.556 87.0894C111.35 87.0894 111.231 87.1435 111.231 87.2409C111.231 87.3274 111.058 87.414 110.777 87.4465C110.517 87.4789 110.301 87.5546 110.279 87.6195C110.257 87.6845 110.073 87.7602 109.868 87.8035C109.662 87.8359 109.5 87.9116 109.5 87.9549C109.5 87.9982 109.295 88.0631 109.046 88.1064C108.797 88.1497 108.559 88.2254 108.516 88.2903C108.483 88.3444 108.267 88.4201 108.029 88.4634C107.802 88.4959 107.585 88.5716 107.553 88.6149C107.52 88.6581 107.358 88.7339 107.196 88.7663L106.904 88.842V81.691C106.904 75.6218 106.925 74.5399 107.055 74.5399C107.174 74.5399 107.217 74.2911 107.25 73.4364C107.271 72.6791 107.326 72.3221 107.423 72.2896C107.509 72.268 107.553 72.03 107.553 71.6081C107.553 71.1321 107.596 70.9481 107.715 70.9049C107.823 70.8616 107.877 70.6885 107.877 70.3748C107.877 70.1043 107.942 69.8338 108.04 69.7365C108.126 69.6499 108.202 69.3903 108.202 69.1414C108.202 68.8926 108.267 68.6762 108.343 68.6222C108.429 68.5789 108.526 68.3409 108.559 68.1137C108.602 67.8757 108.667 67.6593 108.721 67.6268C108.775 67.5944 108.851 67.3672 108.883 67.14C108.927 66.902 109.002 66.6856 109.057 66.6532C109.111 66.6099 109.197 66.4476 109.23 66.2853C109.273 66.1231 109.349 65.9932 109.392 65.9932C109.446 65.9932 109.511 65.8418 109.554 65.6687C109.597 65.4848 109.673 65.3441 109.716 65.3441C109.771 65.3441 109.846 65.171 109.89 64.9655C109.922 64.7599 109.998 64.5868 110.041 64.5868C110.084 64.5868 110.16 64.457 110.203 64.2947C110.236 64.1324 110.333 63.9594 110.398 63.9161C110.495 63.8512 110.485 63.7971 110.366 63.7213C110.257 63.6564 97.6105 63.6132 74.1018 63.6132H37.9894V74.5399V85.4667H37.6648C37.4485 85.4667 37.3403 85.5207 37.3403 85.6289C37.3403 85.7371 37.2321 85.7912 37.0157 85.7912C36.7993 85.7912 36.6912 85.8453 36.6912 85.9535C36.6912 86.0617 36.583 86.1158 36.3666 86.1158C36.1719 86.1158 36.0096 86.1807 35.9771 86.278C35.9339 86.3754 35.7716 86.4403 35.5985 86.4403C35.3929 86.4403 35.2847 86.4944 35.2847 86.6026C35.2847 86.7108 35.1766 86.7649 34.9602 86.7649C34.7546 86.7649 34.6356 86.819 34.6356 86.9163C34.6356 87.0029 34.4625 87.0786 34.1921 87.1219C33.9432 87.1544 33.7052 87.2301 33.6728 87.2842C33.6403 87.3491 33.4672 87.4356 33.3049 87.4681C33.1427 87.5114 33.0128 87.5871 33.0128 87.6304C33.0128 87.6845 32.7965 87.7602 32.526 87.8035C32.2555 87.8359 32.0392 87.9116 32.0392 87.9549C32.0392 88.009 31.8769 88.0847 31.693 88.1172C31.4982 88.1605 31.3035 88.247 31.2711 88.3011C31.2386 88.3552 31.0222 88.4201 30.7842 88.4634C30.557 88.4959 30.3298 88.5716 30.2974 88.6257C30.2649 88.6798 30.0269 88.7555 29.7781 88.788C29.5401 88.8204 29.3345 88.8853 29.3345 88.9286C29.3345 88.9719 29.0533 89.0476 28.7179 89.0909C28.3717 89.1341 28.0579 89.2207 28.0147 89.2856C27.9714 89.3505 27.6144 89.4262 27.2033 89.4479C26.803 89.4803 26.4352 89.5561 26.3919 89.621C26.3486 89.6859 25.9051 89.7616 25.3641 89.7833C24.8124 89.8049 24.3796 89.8698 24.3364 89.9455C24.2931 90.0105 23.8279 90.0754 23.168 90.097C22.2376 90.1295 22.0861 90.1186 22.0861 89.9672C22.0861 89.8698 22.0104 89.7941 21.9238 89.7941C21.7832 89.7941 21.7615 87.3707 21.7615 68.6438V47.4935H25.8726H29.9836V42.7333V37.9732H26.1214C23.9902 37.9732 22.1402 37.9407 22.0104 37.9082L21.7615 37.8433V29.9999C21.7615 22.2538 21.7615 22.1564 21.9779 22.1023C22.0969 22.0699 22.1943 22.005 22.1943 21.9509C22.1943 21.8968 36.3558 21.8535 55.6236 21.8535C77.8342 21.8535 89.053 21.886 89.053 21.9617ZM41.8732 88.2578C41.9057 88.3228 42.0788 88.4093 42.2411 88.4418C42.4034 88.485 42.5332 88.5608 42.5332 88.604C42.5332 88.6581 42.6846 88.723 42.8577 88.7663C43.0417 88.8096 43.1823 88.8745 43.1823 88.9286C43.1823 88.9827 43.3338 89.0476 43.5069 89.0909C43.6908 89.1341 43.8314 89.1991 43.8314 89.2532C43.8314 89.3072 43.9829 89.383 44.1776 89.4154C44.3615 89.4587 44.5887 89.5669 44.6753 89.6426C44.751 89.7292 44.9133 89.7941 45.0323 89.7941C45.1405 89.7941 45.2378 89.8698 45.2378 89.9564C45.2378 90.0645 45.346 90.1186 45.5624 90.1186C45.7463 90.1186 45.8869 90.1619 45.8869 90.2268C45.8869 90.2809 46.0168 90.3675 46.1899 90.3999C46.3521 90.4432 46.5144 90.5189 46.5469 90.573C46.5793 90.6271 46.8173 90.7028 47.0662 90.7353C47.3366 90.7786 47.5097 90.8543 47.5097 90.9408C47.5097 91.0382 47.6287 91.0923 47.8343 91.0923C48.0506 91.0923 48.1588 91.1464 48.1588 91.2546C48.1588 91.3736 48.2887 91.4169 48.6457 91.4169C49.0027 91.4169 49.1325 91.4601 49.1325 91.5791C49.1325 91.6873 49.2515 91.7414 49.5112 91.7414C49.7708 91.7414 49.8898 91.7955 49.8898 91.9037C49.8898 92.0227 50.0196 92.066 50.3766 92.066C50.7337 92.066 50.8635 92.1093 50.8635 92.2283C50.8635 92.3473 50.9933 92.3905 51.3395 92.3905C51.6208 92.3905 51.8912 92.4554 51.9886 92.5528C52.086 92.6502 52.3456 92.7151 52.6377 92.7151C53.0056 92.7151 53.1354 92.7584 53.1354 92.8774C53.1354 93.0072 53.276 93.0396 53.7845 93.0396C54.2713 93.0396 54.4552 93.0829 54.4985 93.2019C54.5526 93.3209 54.7473 93.3642 55.3099 93.3642C55.8184 93.3642 56.0672 93.4075 56.1321 93.5157C56.197 93.6239 56.5865 93.6779 57.6251 93.7104C58.5338 93.7429 59.0315 93.8078 59.0639 93.8943C59.1289 94.0782 62.2987 94.0674 62.3528 93.8727C62.3852 93.7861 62.7855 93.732 63.6835 93.7104C64.6031 93.6779 65.0033 93.6239 65.1115 93.5157C65.2197 93.4183 65.5118 93.3642 65.9662 93.3642C66.5071 93.3642 66.6586 93.3317 66.6586 93.2019C66.6586 93.0721 66.7992 93.0396 67.2969 93.0396C67.7621 93.0396 67.946 92.9964 68.0001 92.8774C68.0434 92.7584 68.2273 92.7151 68.66 92.7151C69.1144 92.7151 69.255 92.6826 69.255 92.5528C69.255 92.4338 69.3849 92.3905 69.796 92.3905C70.2071 92.3905 70.3369 92.3473 70.3369 92.2283C70.3369 92.1093 70.4667 92.066 70.8237 92.066C71.1807 92.066 71.3106 92.0227 71.3106 91.9037C71.3106 91.7847 71.4404 91.7414 71.7974 91.7414C72.1544 91.7414 72.2842 91.6981 72.2842 91.5791C72.2842 91.471 72.3924 91.4169 72.6088 91.4169C72.8252 91.4169 72.9333 91.3628 72.9333 91.2546C72.9333 91.1356 73.0632 91.0923 73.4202 91.0923C73.7772 91.0923 73.907 91.049 73.907 90.93C73.907 90.8218 74.0152 90.7678 74.2316 90.7678C74.4371 90.7678 74.5561 90.7137 74.5561 90.6163C74.5561 90.5297 74.7292 90.454 74.9997 90.4107C75.2485 90.3783 75.4865 90.3026 75.519 90.2485C75.5514 90.1835 75.7245 90.097 75.8868 90.0645C76.0491 90.0213 76.1789 89.9455 76.1789 89.9023C76.1789 89.8482 76.3304 89.7833 76.5035 89.74C76.6874 89.6967 76.828 89.6318 76.828 89.5777C76.828 89.5236 76.9687 89.4587 77.1418 89.4154C77.3149 89.383 77.488 89.2748 77.5204 89.1882C77.5529 89.1017 77.726 89.0368 77.9099 89.0368C78.1263 89.0368 78.2344 88.9827 78.2344 88.8745C78.2344 88.7771 78.3426 88.7122 78.5157 88.7122C78.6672 88.7122 78.8619 88.6365 78.9485 88.5499C79.0458 88.4634 79.2081 88.3877 79.3271 88.3877C79.4461 88.3877 79.5327 88.3119 79.5327 88.2146C79.5327 88.0631 79.6192 88.0415 79.9762 88.0956C80.2251 88.128 80.4631 88.2038 80.4955 88.2578C80.528 88.3228 80.7011 88.4093 80.8634 88.4418C81.0256 88.485 81.1555 88.5608 81.1555 88.604C81.1555 88.6581 81.3069 88.723 81.48 88.7663C81.6639 88.8096 81.8046 88.8853 81.8046 88.9394C81.8046 88.9935 81.9019 89.0368 82.0101 89.0368C82.1291 89.0368 82.2914 89.1125 82.378 89.1991C82.4645 89.2748 82.6592 89.383 82.8215 89.4262C82.973 89.4587 83.1028 89.5344 83.1028 89.5885C83.1028 89.6318 83.2759 89.7075 83.4814 89.7508C83.6978 89.7833 83.8601 89.8806 83.8601 89.9672C83.8601 90.0645 83.9791 90.1186 84.1847 90.1186C84.3686 90.1186 84.5092 90.1619 84.5092 90.2268C84.5092 90.2809 84.639 90.3675 84.8121 90.3999C84.9744 90.4432 85.1367 90.5189 85.1691 90.573C85.2016 90.6271 85.4396 90.7028 85.6884 90.7353C85.9589 90.7786 86.132 90.8543 86.132 90.9408C86.132 91.0382 86.251 91.0923 86.4565 91.0923C86.6729 91.0923 86.7811 91.1464 86.7811 91.2546C86.7811 91.3736 86.9109 91.4169 87.2679 91.4169C87.625 91.4169 87.7548 91.4601 87.7548 91.5791C87.7548 91.6873 87.8738 91.7414 88.1334 91.7414C88.3931 91.7414 88.5121 91.7955 88.5121 91.9037C88.5121 92.0335 88.6527 92.066 89.1071 92.066C89.5615 92.066 89.7021 92.0984 89.7021 92.2283C89.7021 92.3364 89.8103 92.3905 90.0699 92.3905C90.2755 92.3905 90.5135 92.4663 90.6109 92.5528C90.7082 92.6502 90.9679 92.7151 91.26 92.7151C91.617 92.7151 91.7576 92.7584 91.7576 92.8666C91.7576 92.9747 91.9632 93.0288 92.5258 93.0613C92.9369 93.0829 93.3155 93.1587 93.3588 93.2236C93.4021 93.2885 93.7699 93.3534 94.1702 93.3858C94.5813 93.4075 94.9383 93.4832 94.9816 93.5481C95.0249 93.613 95.6199 93.6779 96.3555 93.7104C97.1669 93.7537 97.6646 93.8186 97.6862 93.8943C97.7511 94.0782 100.921 94.0566 100.975 93.8727C101.008 93.7861 101.408 93.732 102.306 93.7104C103.225 93.6779 103.626 93.6239 103.734 93.5157C103.842 93.4183 104.134 93.3642 104.588 93.3642C105.129 93.3642 105.281 93.3317 105.281 93.2019C105.281 93.0721 105.421 93.0396 105.941 93.0396C106.374 93.0396 106.644 92.9856 106.752 92.8774C106.85 92.78 107.12 92.7151 107.401 92.7151C107.747 92.7151 107.877 92.6718 107.877 92.5528C107.877 92.4338 108.007 92.3905 108.418 92.3905C108.829 92.3905 108.959 92.3473 108.959 92.2283C108.959 92.1093 109.089 92.066 109.446 92.066C109.803 92.066 109.933 92.0227 109.933 91.9037C109.933 91.7847 110.063 91.7414 110.42 91.7414C110.777 91.7414 110.907 91.6981 110.907 91.5791C110.907 91.471 111.015 91.4169 111.231 91.4169C111.447 91.4169 111.556 91.3628 111.556 91.2546C111.556 91.1356 111.685 91.0923 112.042 91.0923C112.399 91.0923 112.529 91.049 112.529 90.93C112.529 90.8218 112.637 90.7678 112.854 90.7678C113.059 90.7678 113.178 90.7137 113.178 90.6163C113.178 90.5297 113.351 90.454 113.622 90.4107C113.871 90.3783 114.109 90.3026 114.141 90.2485C114.174 90.1835 114.347 90.097 114.509 90.0645C114.671 90.0213 114.801 89.9455 114.801 89.9023C114.801 89.8482 114.953 89.7833 115.126 89.74C115.31 89.6967 115.45 89.6318 115.45 89.5777C115.45 89.5236 115.602 89.4587 115.775 89.4154C115.959 89.3722 116.099 89.3072 116.099 89.2532C116.099 89.1991 116.251 89.1341 116.424 89.0909C116.608 89.0476 116.749 88.9827 116.749 88.9286C116.749 88.8745 116.9 88.7988 117.095 88.7663C117.279 88.723 117.506 88.6149 117.592 88.5391C117.668 88.4526 117.83 88.3877 117.949 88.3877C118.068 88.3877 118.155 88.3119 118.155 88.2146C118.155 88.0631 118.241 88.0415 118.599 88.0956C118.847 88.128 119.085 88.2038 119.118 88.2578C119.15 88.3228 119.323 88.4093 119.486 88.4418C119.648 88.485 119.778 88.5608 119.778 88.604C119.778 88.6581 119.929 88.723 120.102 88.7663C120.286 88.8096 120.427 88.8853 120.427 88.9394C120.427 88.9935 120.524 89.0368 120.632 89.0368C120.751 89.0368 120.914 89.1125 121 89.1991C121.087 89.2748 121.292 89.383 121.465 89.4262C121.639 89.4695 121.844 89.5669 121.92 89.6534C121.996 89.7292 122.158 89.7941 122.277 89.7941C122.385 89.7941 122.482 89.8374 122.482 89.9023C122.482 89.9564 122.612 90.0429 122.774 90.0754C122.937 90.1186 123.142 90.216 123.218 90.3026C123.294 90.3783 123.456 90.4432 123.564 90.4432C123.672 90.4432 123.781 90.4973 123.802 90.5622C123.824 90.6163 124.04 90.7028 124.3 90.7353C124.581 90.7678 124.754 90.8543 124.754 90.9408C124.754 91.0382 124.873 91.0923 125.079 91.0923C125.295 91.0923 125.403 91.1464 125.403 91.2546C125.403 91.3736 125.533 91.4169 125.89 91.4169C126.247 91.4169 126.377 91.4601 126.377 91.5791C126.377 91.6981 126.507 91.7414 126.864 91.7414C127.221 91.7414 127.351 91.7847 127.351 91.9037C127.351 92.0227 127.481 92.066 127.838 92.066C128.195 92.066 128.324 92.1093 128.324 92.2283C128.324 92.3473 128.454 92.3905 128.811 92.3905C129.168 92.3905 129.298 92.4338 129.298 92.5528C129.298 92.6718 129.428 92.7151 129.828 92.7151C130.131 92.7151 130.423 92.78 130.51 92.8666C130.596 92.9423 130.942 93.0288 131.289 93.0613C131.635 93.0937 131.949 93.1587 131.981 93.2236C132.024 93.2885 132.392 93.3534 132.792 93.3858C133.204 93.4075 133.561 93.4832 133.604 93.5481C133.647 93.613 134.242 93.6779 134.978 93.7104C135.789 93.7537 136.287 93.8186 136.308 93.8943C136.33 93.97 136.655 94.0133 137.152 94.0133H137.953V101.976V109.927L135.519 109.895C133.831 109.873 133.052 109.819 132.998 109.744C132.955 109.668 132.5 109.603 131.851 109.581C131.116 109.549 130.759 109.495 130.726 109.397C130.704 109.311 130.456 109.267 130.001 109.267C129.558 109.267 129.255 109.213 129.168 109.116C129.071 109.029 128.703 108.954 128.227 108.921C127.794 108.9 127.416 108.824 127.372 108.759C127.329 108.694 127.037 108.608 126.734 108.564C126.42 108.521 126.161 108.456 126.161 108.402C126.161 108.359 125.933 108.294 125.663 108.261C125.382 108.24 125.133 108.164 125.09 108.11C125.057 108.045 124.754 107.969 124.43 107.926C124.105 107.883 123.813 107.796 123.77 107.742C123.737 107.677 123.499 107.601 123.25 107.569C123.012 107.537 122.807 107.472 122.807 107.418C122.807 107.374 122.591 107.299 122.331 107.266C122.06 107.223 121.822 107.125 121.79 107.039C121.758 106.952 121.584 106.887 121.411 106.887C121.238 106.887 121.076 106.833 121.054 106.779C121.033 106.714 120.827 106.639 120.589 106.595C120.351 106.563 120.124 106.487 120.091 106.433C120.059 106.379 119.821 106.303 119.572 106.271C119.302 106.227 119.129 106.152 119.129 106.065C119.129 105.849 118.112 105.86 117.895 106.076C117.809 106.163 117.614 106.238 117.463 106.238C117.3 106.238 117.181 106.303 117.181 106.39C117.181 106.476 117.008 106.552 116.738 106.595C116.489 106.628 116.251 106.703 116.218 106.758C116.186 106.812 115.959 106.887 115.732 106.92C115.494 106.963 115.277 107.028 115.245 107.082C115.212 107.136 115.018 107.223 114.834 107.266C114.639 107.299 114.477 107.374 114.477 107.428C114.477 107.472 114.206 107.547 113.882 107.591C113.557 107.623 113.287 107.699 113.287 107.753C113.287 107.807 113.059 107.883 112.778 107.926C112.486 107.969 112.226 108.045 112.194 108.099C112.151 108.164 111.902 108.24 111.621 108.261C111.35 108.294 111.123 108.359 111.123 108.413C111.123 108.456 110.842 108.532 110.506 108.575C110.16 108.618 109.846 108.694 109.803 108.759C109.76 108.824 109.403 108.9 109.002 108.921C108.581 108.954 108.202 109.029 108.115 109.116C108.029 109.213 107.726 109.267 107.282 109.267C106.828 109.267 106.579 109.311 106.557 109.397C106.525 109.495 106.168 109.549 105.432 109.581C104.783 109.603 104.329 109.668 104.286 109.744C104.231 109.83 102.879 109.863 99.3306 109.863C95.7822 109.863 94.4298 109.83 94.3757 109.744C94.3325 109.668 93.8781 109.603 93.2398 109.581C92.6123 109.549 92.1471 109.484 92.1038 109.419C92.0606 109.343 91.6711 109.278 91.2384 109.246C90.8056 109.224 90.4161 109.148 90.3729 109.084C90.3296 109.019 89.9618 108.954 89.5615 108.921C89.1504 108.9 88.7934 108.824 88.7501 108.77C88.7068 108.705 88.4147 108.618 88.0902 108.586C87.7656 108.543 87.4735 108.467 87.441 108.413C87.4086 108.359 87.0948 108.283 86.7595 108.24C86.4133 108.196 86.132 108.121 86.132 108.077C86.132 108.034 85.9264 107.969 85.6884 107.937C85.4396 107.904 85.2016 107.818 85.1583 107.753C85.115 107.688 84.877 107.601 84.6282 107.569C84.3902 107.537 84.1847 107.472 84.1847 107.418C84.1847 107.374 83.9683 107.299 83.7086 107.266C83.4382 107.223 83.2002 107.125 83.1677 107.039C83.1353 106.942 82.9513 106.887 82.6809 106.887C82.4104 106.887 82.2373 106.833 82.194 106.725C82.1616 106.628 81.9993 106.563 81.8154 106.563C81.6423 106.563 81.48 106.509 81.4584 106.444C81.4367 106.39 81.2204 106.303 80.9607 106.271C80.6578 106.227 80.5063 106.152 80.5063 106.044C80.5063 105.914 80.3873 105.892 79.8897 105.935C79.5543 105.968 79.2514 106.044 79.2297 106.108C79.2081 106.184 79.0458 106.238 78.8727 106.238C78.6996 106.238 78.5265 106.303 78.4941 106.39C78.4616 106.465 78.2453 106.563 78.0073 106.606C77.7801 106.639 77.5853 106.714 77.5853 106.768C77.5853 106.822 77.3798 106.887 77.1418 106.92C76.8929 106.952 76.6549 107.028 76.6225 107.093C76.5792 107.147 76.3412 107.234 76.0924 107.277C75.8435 107.32 75.638 107.385 75.638 107.439C75.638 107.482 75.4216 107.558 75.1512 107.601C74.8807 107.634 74.6643 107.71 74.6643 107.764C74.6643 107.807 74.4371 107.883 74.1558 107.926C73.8637 107.969 73.6041 108.045 73.5716 108.099C73.5284 108.164 73.2795 108.24 72.9983 108.261C72.7278 108.294 72.5006 108.359 72.5006 108.413C72.5006 108.456 72.2193 108.532 71.8839 108.575C71.5378 108.618 71.224 108.694 71.1807 108.759C71.1375 108.824 70.7805 108.9 70.3693 108.921C69.9691 108.954 69.6012 109.019 69.558 109.084C69.5147 109.148 69.1577 109.224 68.7466 109.246C68.3463 109.278 67.9784 109.354 67.9352 109.419C67.8919 109.484 67.4267 109.549 66.7992 109.581C66.1609 109.603 65.7065 109.668 65.6633 109.744C65.5551 109.917 55.6453 109.917 55.5371 109.744C55.4938 109.668 55.0611 109.603 54.5093 109.581C53.9684 109.56 53.5248 109.484 53.4816 109.419C53.4383 109.343 53.0488 109.278 52.6161 109.246C52.1833 109.224 51.7939 109.148 51.7506 109.084C51.7073 109.019 51.3395 108.954 50.9392 108.921C50.5281 108.9 50.1711 108.824 50.1278 108.77C50.0845 108.705 49.7924 108.618 49.4679 108.586C49.1433 108.543 48.8512 108.467 48.8188 108.413C48.7863 108.359 48.4726 108.283 48.1372 108.24C47.791 108.196 47.5097 108.121 47.5097 108.077C47.5097 108.034 47.3042 107.969 47.0662 107.937C46.8173 107.904 46.5793 107.818 46.5361 107.753C46.4928 107.688 46.2548 107.601 46.0059 107.569C45.7679 107.537 45.5624 107.472 45.5624 107.418C45.5624 107.374 45.346 107.299 45.0864 107.266C44.8159 107.223 44.5779 107.125 44.5454 107.039C44.513 106.942 44.3291 106.887 44.0586 106.887C43.7881 106.887 43.615 106.833 43.5718 106.725C43.5393 106.628 43.377 106.563 43.1931 106.563C43.02 106.563 42.8577 106.509 42.8361 106.444C42.8145 106.39 42.5981 106.303 42.3384 106.271C42.0572 106.238 41.8841 106.152 41.8841 106.065C41.8841 105.957 41.711 105.914 41.235 105.914C40.7265 105.914 40.5858 105.946 40.5858 106.076C40.5858 106.184 40.4777 106.238 40.2613 106.238C40.0665 106.238 39.9043 106.303 39.8718 106.401C39.8285 106.487 39.6771 106.563 39.504 106.563C39.3309 106.563 39.1253 106.628 39.0496 106.703C38.9739 106.79 38.7142 106.877 38.487 106.92C38.249 106.952 38.0327 107.039 38.0002 107.093C37.9569 107.158 37.7189 107.234 37.4701 107.277C37.2213 107.32 37.0157 107.385 37.0157 107.439C37.0157 107.482 36.7885 107.558 36.5072 107.601C36.2151 107.645 35.9555 107.72 35.923 107.775C35.8906 107.829 35.6742 107.894 35.4362 107.937C35.209 107.969 34.9818 108.056 34.9494 108.11C34.9061 108.164 34.614 108.24 34.3003 108.272C33.9757 108.305 33.6836 108.37 33.6511 108.434C33.6079 108.489 33.3158 108.564 33.002 108.597C32.6775 108.629 32.3746 108.716 32.3313 108.791C32.2772 108.889 32.0284 108.943 31.6064 108.943C31.217 108.943 30.9573 108.997 30.9357 109.073C30.9032 109.148 30.5895 109.224 30.1351 109.246C29.724 109.278 29.3562 109.354 29.3129 109.419C29.2696 109.484 28.8044 109.549 28.1769 109.581C27.5387 109.603 27.0843 109.668 27.041 109.744C26.9869 109.83 26.1647 109.873 24.358 109.895L21.7615 109.927V102.041V94.1431L22.0104 94.0782C22.1402 94.0458 22.5297 94.0133 22.865 94.0133C23.2437 94.0133 23.4925 93.9592 23.5141 93.8835C23.5466 93.7969 24.001 93.7429 24.953 93.7104C25.9375 93.6779 26.3919 93.613 26.5001 93.5157C26.5866 93.4183 26.9004 93.3642 27.3439 93.3642C27.8848 93.3642 28.0363 93.3317 28.0363 93.2019C28.0363 93.0721 28.1769 93.0396 28.6746 93.0396C29.1398 93.0396 29.3237 92.9964 29.3778 92.8774C29.4211 92.7584 29.605 92.7151 30.0377 92.7151C30.4921 92.7151 30.6328 92.6826 30.6328 92.5528C30.6328 92.4338 30.7626 92.3905 31.1737 92.3905C31.5848 92.3905 31.7146 92.3473 31.7146 92.2283C31.7146 92.1093 31.8444 92.066 32.2015 92.066C32.5585 92.066 32.6883 92.0227 32.6883 91.9037C32.6883 91.7847 32.8181 91.7414 33.1751 91.7414C33.5321 91.7414 33.662 91.6981 33.662 91.5791C33.662 91.471 33.7701 91.4169 33.9865 91.4169C34.2029 91.4169 34.3111 91.3628 34.3111 91.2546C34.3111 91.1356 34.4409 91.0923 34.7979 91.0923C35.1549 91.0923 35.2847 91.049 35.2847 90.93C35.2847 90.8218 35.3929 90.7678 35.6093 90.7678C35.8257 90.7678 35.9339 90.7137 35.9339 90.6055C35.9339 90.4973 36.042 90.4432 36.2584 90.4432C36.4531 90.4432 36.6154 90.3783 36.6479 90.2809C36.6912 90.1944 36.8318 90.1186 36.9724 90.1186C37.1239 90.1186 37.2645 90.0537 37.297 89.9672C37.3295 89.8914 37.5458 89.7941 37.7838 89.7508C38.011 89.7183 38.2058 89.6426 38.2058 89.5885C38.2058 89.5344 38.3464 89.4587 38.5195 89.4154C38.6926 89.383 38.8657 89.2748 38.8981 89.1882C38.9306 89.1017 39.0712 89.0368 39.2227 89.0368C39.3633 89.0368 39.504 88.9611 39.5473 88.8745C39.5797 88.7771 39.742 88.7122 39.9367 88.7122C40.1531 88.7122 40.2613 88.6581 40.2613 88.5499C40.2613 88.4418 40.3695 88.3877 40.5858 88.3877C40.813 88.3877 40.9104 88.3336 40.9104 88.2146C40.9104 88.0631 40.9969 88.0415 41.354 88.0956C41.6028 88.128 41.8408 88.2038 41.8732 88.2578Z" fill="#0086FF"/>
<path d="M46.2112 42.732V47.4922H55.7315H65.2519V42.8943C65.2519 39.8976 65.2194 38.2964 65.1437 38.2964C65.0896 38.2964 65.0355 38.2207 65.0355 38.1341C65.0355 37.9935 63.9212 37.9719 55.6233 37.9719H46.2112V42.732Z" fill="#0086FF"/>
<path d="M210.429 42.2153V57.0547H233.489V70.849H210.429V86.9423H236.51V101.259H193.21V27.8985H236.51V42.2153H210.429Z" fill="#0086FF"/>
<path d="M301.562 51.516C301.562 55.7658 300.623 59.6672 298.743 63.2203C296.863 66.7037 293.977 69.5253 290.083 71.685C286.189 73.8447 281.356 74.9245 275.582 74.9245H264.908V101.259H247.689V27.8985H275.582C281.221 27.8985 285.988 28.9087 289.882 30.9291C293.775 32.9495 296.695 35.7362 298.642 39.2893C300.589 42.8424 301.562 46.9179 301.562 51.516ZM274.273 60.7122C277.563 60.7122 280.013 59.9111 281.624 58.3087C283.235 56.7063 284.041 54.4421 284.041 51.516C284.041 48.59 283.235 46.3258 281.624 44.7234C280.013 43.121 277.563 42.3198 274.273 42.3198H264.908V60.7122H274.273Z" fill="#0086FF"/>
<path d="M327.746 27.8985V101.259H310.527V27.8985H327.746Z" fill="#0086FF"/>
<path d="M403.464 101.259H386.244L357.444 56.0096V101.259H340.225V27.8985H357.444L386.244 73.357V27.8985H403.464V101.259Z" fill="#0086FF"/>
<path d="M433.165 27.8985V101.259H415.945V27.8985H433.165Z" fill="#0086FF"/>
<path d="M479.075 101.991C472.429 101.991 466.32 100.388 460.748 97.1835C455.243 93.9788 450.846 89.52 447.557 83.8072C444.334 78.0248 442.723 71.5456 442.723 64.3698C442.723 57.194 444.334 50.7497 447.557 45.0369C450.846 39.3241 455.243 34.8654 460.748 31.6606C466.32 28.4559 472.429 26.8535 479.075 26.8535C485.721 26.8535 491.797 28.4559 497.302 31.6606C502.874 34.8654 507.237 39.3241 510.392 45.0369C513.615 50.7497 515.226 57.194 515.226 64.3698C515.226 71.5456 513.615 78.0248 510.392 83.8072C507.17 89.52 502.806 93.9788 497.302 97.1835C491.797 100.388 485.721 101.991 479.075 101.991ZM479.075 85.6883C484.714 85.6883 489.212 83.7376 492.569 79.8361C495.993 75.9347 497.704 70.7793 497.704 64.3698C497.704 57.8907 495.993 52.7352 492.569 48.9035C489.212 45.0021 484.714 43.0514 479.075 43.0514C473.369 43.0514 468.804 44.9672 465.38 48.799C462.024 52.6307 460.345 57.821 460.345 64.3698C460.345 70.849 462.024 76.0392 465.38 79.9406C468.804 83.7724 473.369 85.6883 479.075 85.6883Z" fill="#0086FF"/>
</svg>
