<svg width="600" height="287" viewBox="0 0 600 287" fill="none" xmlns="http://www.w3.org/2000/svg">
<rect x="30" y="28" width="253" height="231" rx="15" fill="white" fill-opacity="0.01" stroke="#0385FF" stroke-width="2" stroke-dasharray="8 8"/>
<rect x="317" y="28" width="253" height="231" rx="15" fill="white" fill-opacity="0.01" stroke="#9898B9" stroke-width="2" stroke-dasharray="8 8"/>
<rect x="45" y="13" width="141" height="27" rx="6" fill="#0385FF"/>
<rect x="332" y="13" width="141" height="27" rx="6" fill="#9898B9"/>
<path d="M79.1657 31.1342C78.5658 31.1342 78.0289 30.9801 77.555 30.6719C77.081 30.3636 76.7065 29.9162 76.4314 29.3295C76.1563 28.7429 76.0187 28.0303 76.0187 27.1918C76.0187 26.3433 76.1579 25.6274 76.4363 25.044C76.7181 24.4574 77.0976 24.0149 77.5748 23.7166C78.0521 23.415 78.5841 23.2642 79.1707 23.2642C79.6182 23.2642 79.9861 23.3404 80.2744 23.4929C80.5628 23.642 80.7915 23.8227 80.9605 24.0348C81.1295 24.2436 81.2604 24.4408 81.3532 24.6264H81.4278V20.8182H83.2325V31H81.4626V29.7969H81.3532C81.2604 29.9825 81.1262 30.1797 80.9506 30.3885C80.7749 30.594 80.5429 30.7696 80.2545 30.9155C79.9662 31.0613 79.6032 31.1342 79.1657 31.1342ZM79.6679 29.6577C80.049 29.6577 80.3738 29.5549 80.6423 29.3494C80.9108 29.1406 81.1146 28.8506 81.2538 28.4794C81.393 28.1082 81.4626 27.6757 81.4626 27.1818C81.4626 26.688 81.393 26.2588 81.2538 25.8942C81.1179 25.5296 80.9157 25.2462 80.6473 25.044C80.3821 24.8419 80.0557 24.7408 79.6679 24.7408C79.2668 24.7408 78.9321 24.8452 78.6636 25.054C78.3952 25.2628 78.193 25.5511 78.0571 25.919C77.9212 26.2869 77.8532 26.7079 77.8532 27.1818C77.8532 27.6591 77.9212 28.085 78.0571 28.4595C78.1963 28.8307 78.4001 29.1241 78.6686 29.3395C78.9404 29.5516 79.2735 29.6577 79.6679 29.6577ZM88.531 31.1491C87.7654 31.1491 87.1041 30.9901 86.5473 30.6719C85.9938 30.3504 85.5679 29.8963 85.2696 29.3097C84.9713 28.7197 84.8222 28.0253 84.8222 27.2266C84.8222 26.4411 84.9713 25.7517 85.2696 25.1584C85.5712 24.5618 85.9922 24.0978 86.5324 23.7663C87.0727 23.4316 87.7074 23.2642 88.4365 23.2642C88.9072 23.2642 89.3513 23.3404 89.7689 23.4929C90.1898 23.642 90.5611 23.8741 90.8825 24.1889C91.2074 24.5038 91.4626 24.9048 91.6482 25.392C91.8338 25.8759 91.9266 26.4527 91.9266 27.1222V27.674H85.6673V26.4609H90.2014C90.1981 26.1162 90.1236 25.8097 89.9777 25.5412C89.8319 25.2694 89.628 25.0556 89.3662 24.8999C89.1077 24.7441 88.8061 24.6662 88.4614 24.6662C88.0935 24.6662 87.7703 24.7557 87.4919 24.9347C87.2135 25.1103 86.9964 25.3423 86.8406 25.6307C86.6882 25.9157 86.6103 26.2289 86.607 26.5703V27.6293C86.607 28.0734 86.6882 28.4545 86.8506 28.7727C87.013 29.0876 87.24 29.3295 87.5317 29.4986C87.8234 29.6643 88.1647 29.7472 88.5558 29.7472C88.8177 29.7472 89.0547 29.7107 89.2668 29.6378C89.4789 29.5616 89.6628 29.4505 89.8186 29.3047C89.9744 29.1589 90.0921 28.9782 90.1716 28.7628L91.852 28.9517C91.7459 29.3958 91.5438 29.7836 91.2455 30.1151C90.9505 30.4432 90.5727 30.6984 90.1119 30.8807C89.6512 31.0597 89.1243 31.1491 88.531 31.1491ZM100.051 23.3636L97.3319 31H95.3433L92.6238 23.3636H94.5429L96.2979 29.0362H96.3774L98.1373 23.3636H100.051ZM105.925 26.0185V27.5H101.342V26.0185H105.925ZM111.631 23.3636V24.7557H107.242V23.3636H111.631ZM108.325 21.5341H110.125V28.7031C110.125 28.9451 110.162 29.1307 110.234 29.2599C110.311 29.3859 110.41 29.4721 110.533 29.5185C110.655 29.5649 110.791 29.5881 110.94 29.5881C111.053 29.5881 111.156 29.5798 111.249 29.5632C111.345 29.5466 111.418 29.5317 111.467 29.5185L111.771 30.9254C111.675 30.9586 111.537 30.995 111.358 31.0348C111.182 31.0746 110.967 31.0978 110.712 31.1044C110.261 31.1177 109.855 31.0497 109.494 30.9006C109.132 30.7481 108.846 30.5128 108.634 30.1946C108.425 29.8764 108.322 29.4787 108.325 29.0014V21.5341ZM116.435 31.1491C115.67 31.1491 115.008 30.9901 114.452 30.6719C113.898 30.3504 113.472 29.8963 113.174 29.3097C112.876 28.7197 112.726 28.0253 112.726 27.2266C112.726 26.4411 112.876 25.7517 113.174 25.1584C113.476 24.5618 113.896 24.0978 114.437 23.7663C114.977 23.4316 115.612 23.2642 116.341 23.2642C116.811 23.2642 117.256 23.3404 117.673 23.4929C118.094 23.642 118.465 23.8741 118.787 24.1889C119.112 24.5038 119.367 24.9048 119.552 25.392C119.738 25.8759 119.831 26.4527 119.831 27.1222V27.674H113.572V26.4609H118.106C118.102 26.1162 118.028 25.8097 117.882 25.5412C117.736 25.2694 117.532 25.0556 117.271 24.8999C117.012 24.7441 116.71 24.6662 116.366 24.6662C115.998 24.6662 115.675 24.7557 115.396 24.9347C115.118 25.1103 114.901 25.3423 114.745 25.6307C114.592 25.9157 114.515 26.2289 114.511 26.5703V27.6293C114.511 28.0734 114.592 28.4545 114.755 28.7727C114.917 29.0876 115.144 29.3295 115.436 29.4986C115.728 29.6643 116.069 29.7472 116.46 29.7472C116.722 29.7472 116.959 29.7107 117.171 29.6378C117.383 29.5616 117.567 29.4505 117.723 29.3047C117.879 29.1589 117.996 28.9782 118.076 28.7628L119.756 28.9517C119.65 29.3958 119.448 29.7836 119.15 30.1151C118.855 30.4432 118.477 30.6984 118.016 30.8807C117.556 31.0597 117.029 31.1491 116.435 31.1491ZM123.551 31.1541C123.067 31.1541 122.631 31.0679 122.243 30.8956C121.859 30.7199 121.554 30.4614 121.329 30.12C121.107 29.7786 120.995 29.3577 120.995 28.8572C120.995 28.4264 121.075 28.0701 121.234 27.7884C121.393 27.5066 121.61 27.2812 121.885 27.1122C122.16 26.9432 122.47 26.8156 122.815 26.7294C123.163 26.6399 123.523 26.5753 123.894 26.5355C124.341 26.4891 124.704 26.4477 124.983 26.4112C125.261 26.3714 125.463 26.3118 125.589 26.2322C125.718 26.1494 125.783 26.0218 125.783 25.8494V25.8196C125.783 25.4451 125.672 25.1551 125.45 24.9496C125.228 24.7441 124.908 24.6413 124.491 24.6413C124.05 24.6413 123.7 24.7375 123.441 24.9297C123.186 25.1219 123.014 25.349 122.924 25.6108L121.244 25.3722C121.377 24.9081 121.595 24.5204 121.9 24.2088C122.205 23.8939 122.578 23.6586 123.019 23.5028C123.46 23.3438 123.947 23.2642 124.481 23.2642C124.848 23.2642 125.215 23.3073 125.579 23.3935C125.944 23.4796 126.277 23.6222 126.579 23.821C126.88 24.0166 127.122 24.2834 127.304 24.6214C127.49 24.9595 127.583 25.3821 127.583 25.8892V31H125.853V29.951H125.793C125.684 30.1631 125.53 30.362 125.331 30.5476C125.135 30.7299 124.888 30.8774 124.59 30.9901C124.295 31.0994 123.949 31.1541 123.551 31.1541ZM124.018 29.8317C124.379 29.8317 124.693 29.7604 124.958 29.6179C125.223 29.4721 125.427 29.2798 125.569 29.0412C125.715 28.8026 125.788 28.5424 125.788 28.2607V27.3608C125.732 27.4072 125.636 27.4503 125.5 27.4901C125.367 27.5298 125.218 27.5646 125.052 27.5945C124.887 27.6243 124.723 27.6508 124.56 27.674C124.398 27.6972 124.257 27.7171 124.138 27.7337C123.869 27.7701 123.629 27.8298 123.417 27.9126C123.205 27.9955 123.037 28.1115 122.915 28.2607C122.792 28.4065 122.731 28.5954 122.731 28.8274C122.731 29.1589 122.852 29.4091 123.093 29.5781C123.335 29.7472 123.644 29.8317 124.018 29.8317ZM129.392 31V23.3636H131.113V24.6612H131.202C131.361 24.2237 131.625 23.8823 131.993 23.6371C132.361 23.3885 132.8 23.2642 133.31 23.2642C133.827 23.2642 134.263 23.3902 134.618 23.642C134.976 23.8906 135.227 24.2304 135.373 24.6612H135.453C135.622 24.237 135.907 23.8989 136.308 23.647C136.712 23.3918 137.191 23.2642 137.745 23.2642C138.447 23.2642 139.021 23.4863 139.465 23.9304C139.909 24.3745 140.131 25.0225 140.131 25.8743V31H138.326V26.1527C138.326 25.6787 138.2 25.3324 137.949 25.1136C137.697 24.8916 137.388 24.7805 137.024 24.7805C136.59 24.7805 136.25 24.9164 136.005 25.1882C135.763 25.4567 135.642 25.8063 135.642 26.2372V31H133.877V26.0781C133.877 25.6837 133.758 25.3688 133.519 25.1335C133.284 24.8982 132.975 24.7805 132.594 24.7805C132.336 24.7805 132.1 24.8468 131.888 24.9794C131.676 25.1087 131.507 25.2926 131.381 25.5312C131.255 25.7666 131.192 26.0417 131.192 26.3565V31H129.392ZM146.585 26.0185V27.5H142.002V26.0185H146.585ZM150.676 31.1541C150.192 31.1541 149.756 31.0679 149.368 30.8956C148.984 30.7199 148.679 30.4614 148.454 30.12C148.232 29.7786 148.12 29.3577 148.12 28.8572C148.12 28.4264 148.2 28.0701 148.359 27.7884C148.518 27.5066 148.735 27.2812 149.01 27.1122C149.285 26.9432 149.595 26.8156 149.94 26.7294C150.288 26.6399 150.648 26.5753 151.019 26.5355C151.466 26.4891 151.829 26.4477 152.108 26.4112C152.386 26.3714 152.588 26.3118 152.714 26.2322C152.843 26.1494 152.908 26.0218 152.908 25.8494V25.8196C152.908 25.4451 152.797 25.1551 152.575 24.9496C152.353 24.7441 152.033 24.6413 151.616 24.6413C151.175 24.6413 150.825 24.7375 150.566 24.9297C150.311 25.1219 150.139 25.349 150.049 25.6108L148.369 25.3722C148.502 24.9081 148.72 24.5204 149.025 24.2088C149.33 23.8939 149.703 23.6586 150.144 23.5028C150.585 23.3438 151.072 23.2642 151.606 23.2642C151.973 23.2642 152.34 23.3073 152.704 23.3935C153.069 23.4796 153.402 23.6222 153.704 23.821C154.005 24.0166 154.247 24.2834 154.429 24.6214C154.615 24.9595 154.708 25.3821 154.708 25.8892V31H152.978V29.951H152.918C152.809 30.1631 152.655 30.362 152.456 30.5476C152.26 30.7299 152.013 30.8774 151.715 30.9901C151.42 31.0994 151.074 31.1541 150.676 31.1541ZM151.143 29.8317C151.504 29.8317 151.818 29.7604 152.083 29.6179C152.348 29.4721 152.552 29.2798 152.694 29.0412C152.84 28.8026 152.913 28.5424 152.913 28.2607V27.3608C152.857 27.4072 152.761 27.4503 152.625 27.4901C152.492 27.5298 152.343 27.5646 152.177 27.5945C152.012 27.6243 151.848 27.6508 151.685 27.674C151.523 27.6972 151.382 27.7171 151.263 27.7337C150.994 27.7701 150.754 27.8298 150.542 27.9126C150.33 27.9955 150.162 28.1115 150.04 28.2607C149.917 28.4065 149.856 28.5954 149.856 28.8274C149.856 29.1589 149.977 29.4091 150.218 29.5781C150.46 29.7472 150.769 29.8317 151.143 29.8317Z" fill="white"/>
<path d="M365.776 31.1342C365.176 31.1342 364.639 30.9801 364.165 30.6719C363.691 30.3636 363.317 29.9162 363.042 29.3295C362.767 28.7429 362.629 28.0303 362.629 27.1918C362.629 26.3433 362.768 25.6274 363.047 25.044C363.328 24.4574 363.708 24.0149 364.185 23.7166C364.662 23.415 365.194 23.2642 365.781 23.2642C366.229 23.2642 366.596 23.3404 366.885 23.4929C367.173 23.642 367.402 23.8227 367.571 24.0348C367.74 24.2436 367.871 24.4408 367.964 24.6264H368.038V20.8182H369.843V31H368.073V29.7969H367.964C367.871 29.9825 367.737 30.1797 367.561 30.3885C367.385 30.594 367.153 30.7696 366.865 30.9155C366.577 31.0613 366.214 31.1342 365.776 31.1342ZM366.278 29.6577C366.659 29.6577 366.984 29.5549 367.253 29.3494C367.521 29.1406 367.725 28.8506 367.864 28.4794C368.003 28.1082 368.073 27.6757 368.073 27.1818C368.073 26.688 368.003 26.2588 367.864 25.8942C367.728 25.5296 367.526 25.2462 367.258 25.044C366.992 24.8419 366.666 24.7408 366.278 24.7408C365.877 24.7408 365.542 24.8452 365.274 25.054C365.006 25.2628 364.803 25.5511 364.667 25.919C364.532 26.2869 364.464 26.7079 364.464 27.1818C364.464 27.6591 364.532 28.085 364.667 28.4595C364.807 28.8307 365.01 29.1241 365.279 29.3395C365.551 29.5516 365.884 29.6577 366.278 29.6577ZM375.141 31.1491C374.376 31.1491 373.714 30.9901 373.158 30.6719C372.604 30.3504 372.178 29.8963 371.88 29.3097C371.582 28.7197 371.433 28.0253 371.433 27.2266C371.433 26.4411 371.582 25.7517 371.88 25.1584C372.182 24.5618 372.603 24.0978 373.143 23.7663C373.683 23.4316 374.318 23.2642 375.047 23.2642C375.518 23.2642 375.962 23.3404 376.379 23.4929C376.8 23.642 377.171 23.8741 377.493 24.1889C377.818 24.5038 378.073 24.9048 378.259 25.392C378.444 25.8759 378.537 26.4527 378.537 27.1222V27.674H372.278V26.4609H376.812C376.808 26.1162 376.734 25.8097 376.588 25.5412C376.442 25.2694 376.238 25.0556 375.977 24.8999C375.718 24.7441 375.416 24.6662 375.072 24.6662C374.704 24.6662 374.381 24.7557 374.102 24.9347C373.824 25.1103 373.607 25.3423 373.451 25.6307C373.299 25.9157 373.221 26.2289 373.217 26.5703V27.6293C373.217 28.0734 373.299 28.4545 373.461 28.7727C373.623 29.0876 373.85 29.3295 374.142 29.4986C374.434 29.6643 374.775 29.7472 375.166 29.7472C375.428 29.7472 375.665 29.7107 375.877 29.6378C376.089 29.5616 376.273 29.4505 376.429 29.3047C376.585 29.1589 376.702 28.9782 376.782 28.7628L378.462 28.9517C378.356 29.3958 378.154 29.7836 377.856 30.1151C377.561 30.4432 377.183 30.6984 376.722 30.8807C376.262 31.0597 375.735 31.1491 375.141 31.1491ZM386.662 23.3636L383.942 31H381.954L379.234 23.3636H381.153L382.908 29.0362H382.988L384.748 23.3636H386.662ZM392.536 26.0185V27.5H387.952V26.0185H392.536ZM398.242 23.3636V24.7557H393.852V23.3636H398.242ZM394.936 21.5341H396.735V28.7031C396.735 28.9451 396.772 29.1307 396.845 29.2599C396.921 29.3859 397.02 29.4721 397.143 29.5185C397.266 29.5649 397.402 29.5881 397.551 29.5881C397.663 29.5881 397.766 29.5798 397.859 29.5632C397.955 29.5466 398.028 29.5317 398.078 29.5185L398.381 30.9254C398.285 30.9586 398.147 30.995 397.968 31.0348C397.793 31.0746 397.577 31.0978 397.322 31.1044C396.871 31.1177 396.465 31.0497 396.104 30.9006C395.743 30.7481 395.456 30.5128 395.244 30.1946C395.035 29.8764 394.932 29.4787 394.936 29.0014V21.5341ZM403.046 31.1491C402.28 31.1491 401.619 30.9901 401.062 30.6719C400.508 30.3504 400.083 29.8963 399.784 29.3097C399.486 28.7197 399.337 28.0253 399.337 27.2266C399.337 26.4411 399.486 25.7517 399.784 25.1584C400.086 24.5618 400.507 24.0978 401.047 23.7663C401.587 23.4316 402.222 23.2642 402.951 23.2642C403.422 23.2642 403.866 23.3404 404.284 23.4929C404.704 23.642 405.076 23.8741 405.397 24.1889C405.722 24.5038 405.977 24.9048 406.163 25.392C406.348 25.8759 406.441 26.4527 406.441 27.1222V27.674H400.182V26.4609H404.716C404.713 26.1162 404.638 25.8097 404.492 25.5412C404.347 25.2694 404.143 25.0556 403.881 24.8999C403.622 24.7441 403.321 24.6662 402.976 24.6662C402.608 24.6662 402.285 24.7557 402.007 24.9347C401.728 25.1103 401.511 25.3423 401.355 25.6307C401.203 25.9157 401.125 26.2289 401.122 26.5703V27.6293C401.122 28.0734 401.203 28.4545 401.365 28.7727C401.528 29.0876 401.755 29.3295 402.046 29.4986C402.338 29.6643 402.679 29.7472 403.07 29.7472C403.332 29.7472 403.569 29.7107 403.781 29.6378C403.994 29.5616 404.177 29.4505 404.333 29.3047C404.489 29.1589 404.607 28.9782 404.686 28.7628L406.367 28.9517C406.261 29.3958 406.058 29.7836 405.76 30.1151C405.465 30.4432 405.087 30.6984 404.627 30.8807C404.166 31.0597 403.639 31.1491 403.046 31.1491ZM410.161 31.1541C409.677 31.1541 409.241 31.0679 408.854 30.8956C408.469 30.7199 408.164 30.4614 407.939 30.12C407.717 29.7786 407.606 29.3577 407.606 28.8572C407.606 28.4264 407.685 28.0701 407.844 27.7884C408.004 27.5066 408.221 27.2812 408.496 27.1122C408.771 26.9432 409.081 26.8156 409.425 26.7294C409.773 26.6399 410.133 26.5753 410.504 26.5355C410.952 26.4891 411.315 26.4477 411.593 26.4112C411.871 26.3714 412.074 26.3118 412.2 26.2322C412.329 26.1494 412.393 26.0218 412.393 25.8494V25.8196C412.393 25.4451 412.282 25.1551 412.06 24.9496C411.838 24.7441 411.518 24.6413 411.101 24.6413C410.66 24.6413 410.31 24.7375 410.052 24.9297C409.797 25.1219 409.624 25.349 409.535 25.6108L407.854 25.3722C407.987 24.9081 408.206 24.5204 408.511 24.2088C408.816 23.8939 409.188 23.6586 409.629 23.5028C410.07 23.3438 410.557 23.2642 411.091 23.2642C411.459 23.2642 411.825 23.3073 412.19 23.3935C412.554 23.4796 412.887 23.6222 413.189 23.821C413.491 24.0166 413.732 24.2834 413.915 24.6214C414.1 24.9595 414.193 25.3821 414.193 25.8892V31H412.463V29.951H412.403C412.294 30.1631 412.14 30.362 411.941 30.5476C411.746 30.7299 411.499 30.8774 411.2 30.9901C410.905 31.0994 410.559 31.1541 410.161 31.1541ZM410.629 29.8317C410.99 29.8317 411.303 29.7604 411.568 29.6179C411.833 29.4721 412.037 29.2798 412.18 29.0412C412.326 28.8026 412.398 28.5424 412.398 28.2607V27.3608C412.342 27.4072 412.246 27.4503 412.11 27.4901C411.978 27.5298 411.828 27.5646 411.663 27.5945C411.497 27.6243 411.333 27.6508 411.17 27.674C411.008 27.6972 410.867 27.7171 410.748 27.7337C410.479 27.7701 410.239 27.8298 410.027 27.9126C409.815 27.9955 409.647 28.1115 409.525 28.2607C409.402 28.4065 409.341 28.5954 409.341 28.8274C409.341 29.1589 409.462 29.4091 409.704 29.5781C409.946 29.7472 410.254 29.8317 410.629 29.8317ZM416.003 31V23.3636H417.723V24.6612H417.812C417.972 24.2237 418.235 23.8823 418.603 23.6371C418.971 23.3885 419.41 23.2642 419.92 23.2642C420.438 23.2642 420.873 23.3902 421.228 23.642C421.586 23.8906 421.838 24.2304 421.984 24.6612H422.063C422.232 24.237 422.517 23.8989 422.918 23.647C423.323 23.3918 423.802 23.2642 424.355 23.2642C425.058 23.2642 425.631 23.4863 426.075 23.9304C426.519 24.3745 426.741 25.0225 426.741 25.8743V31H424.937V26.1527C424.937 25.6787 424.811 25.3324 424.559 25.1136C424.307 24.8916 423.999 24.7805 423.634 24.7805C423.2 24.7805 422.86 24.9164 422.615 25.1882C422.373 25.4567 422.252 25.8063 422.252 26.2372V31H420.487V26.0781C420.487 25.6837 420.368 25.3688 420.129 25.1335C419.894 24.8982 419.586 24.7805 419.205 24.7805C418.946 24.7805 418.711 24.8468 418.499 24.9794C418.286 25.1087 418.117 25.2926 417.991 25.5312C417.866 25.7666 417.803 26.0417 417.803 26.3565V31H416.003ZM433.196 26.0185V27.5H428.612V26.0185H433.196ZM435.168 31V20.8182H436.968V24.6264H437.043C437.135 24.4408 437.266 24.2436 437.435 24.0348C437.604 23.8227 437.833 23.642 438.121 23.4929C438.41 23.3404 438.778 23.2642 439.225 23.2642C439.815 23.2642 440.347 23.415 440.821 23.7166C441.298 24.0149 441.676 24.4574 441.955 25.044C442.236 25.6274 442.377 26.3433 442.377 27.1918C442.377 28.0303 442.24 28.7429 441.964 29.3295C441.689 29.9162 441.315 30.3636 440.841 30.6719C440.367 30.9801 439.83 31.1342 439.23 31.1342C438.793 31.1342 438.43 31.0613 438.141 30.9155C437.853 30.7696 437.621 30.594 437.445 30.3885C437.273 30.1797 437.139 29.9825 437.043 29.7969H436.938V31H435.168ZM436.933 27.1818C436.933 27.6757 437.003 28.1082 437.142 28.4794C437.285 28.8506 437.488 29.1406 437.754 29.3494C438.022 29.5549 438.347 29.6577 438.728 29.6577C439.126 29.6577 439.459 29.5516 439.727 29.3395C439.996 29.1241 440.198 28.8307 440.334 28.4595C440.473 28.085 440.543 27.6591 440.543 27.1818C440.543 26.7079 440.475 26.2869 440.339 25.919C440.203 25.5511 440.001 25.2628 439.732 25.054C439.464 24.8452 439.129 24.7408 438.728 24.7408C438.344 24.7408 438.017 24.8419 437.749 25.044C437.48 25.2462 437.276 25.5296 437.137 25.8942C437.001 26.2588 436.933 26.688 436.933 27.1818Z" fill="white"/>
<rect x="45" y="52" width="103" height="88" rx="8" fill="#B9DEFF"/>
<rect x="332" y="52" width="103" height="88" rx="8" fill="#CBCBE0"/>
<rect x="45.5" y="156.5" width="222" height="87" rx="7.5" fill="#EAF4FF" stroke="#0385FF"/>
<rect x="451" y="52" width="104" height="88" rx="8" fill="#CBCBE0"/>
<rect x="332.5" y="156.5" width="222" height="87" rx="7.5" fill="#EEEEF6" stroke="#9898B9"/>
<path d="M124.366 224V212.364H126.423V216.716H126.509C126.615 216.504 126.764 216.278 126.957 216.04C127.151 215.797 127.412 215.591 127.741 215.42C128.071 215.246 128.491 215.159 129.003 215.159C129.677 215.159 130.285 215.331 130.827 215.676C131.372 216.017 131.804 216.523 132.122 217.193C132.444 217.86 132.605 218.678 132.605 219.648C132.605 220.606 132.448 221.42 132.134 222.091C131.819 222.761 131.391 223.273 130.849 223.625C130.308 223.977 129.694 224.153 129.009 224.153C128.509 224.153 128.094 224.07 127.764 223.903C127.435 223.737 127.17 223.536 126.969 223.301C126.772 223.062 126.618 222.837 126.509 222.625H126.389V224H124.366ZM126.384 219.636C126.384 220.201 126.463 220.695 126.622 221.119C126.785 221.544 127.018 221.875 127.321 222.114C127.628 222.348 127.999 222.466 128.435 222.466C128.889 222.466 129.27 222.345 129.577 222.102C129.884 221.856 130.115 221.521 130.27 221.097C130.429 220.669 130.509 220.182 130.509 219.636C130.509 219.095 130.431 218.614 130.276 218.193C130.12 217.773 129.889 217.443 129.582 217.205C129.276 216.966 128.893 216.847 128.435 216.847C127.995 216.847 127.622 216.962 127.315 217.193C127.009 217.424 126.776 217.748 126.616 218.165C126.461 218.581 126.384 219.072 126.384 219.636ZM136.865 224.176C136.312 224.176 135.814 224.078 135.371 223.881C134.931 223.68 134.583 223.384 134.325 222.994C134.071 222.604 133.945 222.123 133.945 221.551C133.945 221.059 134.036 220.652 134.217 220.33C134.399 220.008 134.647 219.75 134.962 219.557C135.276 219.364 135.63 219.218 136.024 219.119C136.422 219.017 136.833 218.943 137.257 218.898C137.768 218.845 138.183 218.797 138.501 218.756C138.82 218.71 139.051 218.642 139.195 218.551C139.342 218.456 139.416 218.311 139.416 218.114V218.08C139.416 217.652 139.289 217.32 139.036 217.085C138.782 216.85 138.416 216.733 137.939 216.733C137.435 216.733 137.036 216.843 136.74 217.062C136.448 217.282 136.251 217.542 136.149 217.841L134.229 217.568C134.38 217.038 134.63 216.595 134.979 216.239C135.327 215.879 135.753 215.61 136.257 215.432C136.761 215.25 137.318 215.159 137.928 215.159C138.348 215.159 138.767 215.208 139.183 215.307C139.6 215.405 139.981 215.568 140.325 215.795C140.67 216.019 140.946 216.324 141.155 216.71C141.367 217.097 141.473 217.58 141.473 218.159V224H139.496V222.801H139.428C139.303 223.044 139.126 223.271 138.899 223.483C138.676 223.691 138.393 223.86 138.053 223.989C137.715 224.114 137.32 224.176 136.865 224.176ZM137.399 222.665C137.812 222.665 138.17 222.583 138.473 222.42C138.776 222.254 139.009 222.034 139.172 221.761C139.339 221.489 139.422 221.191 139.422 220.869V219.841C139.357 219.894 139.248 219.943 139.092 219.989C138.941 220.034 138.77 220.074 138.581 220.108C138.392 220.142 138.204 220.172 138.018 220.199C137.833 220.225 137.672 220.248 137.536 220.267C137.229 220.309 136.954 220.377 136.712 220.472C136.469 220.566 136.278 220.699 136.138 220.869C135.998 221.036 135.928 221.252 135.928 221.517C135.928 221.896 136.066 222.182 136.342 222.375C136.619 222.568 136.971 222.665 137.399 222.665ZM147.348 224.17C146.477 224.17 145.729 223.979 145.104 223.597C144.482 223.214 144.003 222.686 143.666 222.011C143.333 221.333 143.166 220.553 143.166 219.67C143.166 218.784 143.337 218.002 143.678 217.324C144.018 216.642 144.5 216.112 145.121 215.733C145.746 215.35 146.484 215.159 147.337 215.159C148.045 215.159 148.672 215.29 149.217 215.551C149.767 215.809 150.204 216.174 150.53 216.648C150.856 217.117 151.041 217.667 151.087 218.295H149.121C149.041 217.875 148.852 217.525 148.553 217.244C148.257 216.96 147.861 216.818 147.365 216.818C146.945 216.818 146.575 216.932 146.257 217.159C145.939 217.383 145.691 217.705 145.513 218.125C145.339 218.545 145.251 219.049 145.251 219.636C145.251 220.231 145.339 220.742 145.513 221.17C145.687 221.595 145.931 221.922 146.246 222.153C146.564 222.381 146.937 222.494 147.365 222.494C147.668 222.494 147.939 222.437 148.178 222.324C148.42 222.206 148.623 222.038 148.786 221.818C148.948 221.598 149.06 221.331 149.121 221.017H151.087C151.037 221.634 150.856 222.182 150.541 222.659C150.227 223.133 149.799 223.504 149.257 223.773C148.715 224.038 148.079 224.17 147.348 224.17ZM154.651 221.261L154.645 218.778H154.974L158.111 215.273H160.514L156.656 219.568H156.23L154.651 221.261ZM152.776 224V212.364H154.832V224H152.776ZM158.253 224L155.412 220.028L156.798 218.58L160.713 224H158.253ZM165.389 224.17C164.514 224.17 163.759 223.989 163.122 223.625C162.49 223.258 162.003 222.739 161.662 222.068C161.321 221.394 161.151 220.6 161.151 219.688C161.151 218.79 161.321 218.002 161.662 217.324C162.007 216.642 162.488 216.112 163.105 215.733C163.723 215.35 164.448 215.159 165.281 215.159C165.819 215.159 166.327 215.246 166.804 215.42C167.285 215.591 167.709 215.856 168.077 216.216C168.448 216.576 168.74 217.034 168.952 217.591C169.164 218.144 169.27 218.803 169.27 219.568V220.199H162.116V218.812H167.298C167.295 218.419 167.209 218.068 167.043 217.761C166.876 217.451 166.643 217.206 166.344 217.028C166.048 216.85 165.704 216.761 165.31 216.761C164.889 216.761 164.52 216.864 164.202 217.068C163.884 217.269 163.635 217.534 163.457 217.864C163.283 218.189 163.194 218.547 163.19 218.938V220.148C163.19 220.655 163.283 221.091 163.469 221.455C163.654 221.814 163.914 222.091 164.247 222.284C164.58 222.473 164.971 222.568 165.418 222.568C165.717 222.568 165.988 222.527 166.23 222.443C166.473 222.356 166.683 222.229 166.861 222.062C167.039 221.896 167.173 221.689 167.264 221.443L169.185 221.659C169.063 222.167 168.832 222.61 168.491 222.989C168.154 223.364 167.723 223.655 167.196 223.864C166.67 224.068 166.067 224.17 165.389 224.17ZM173.067 218.886V224H171.01V215.273H172.976V216.756H173.078C173.279 216.267 173.599 215.879 174.038 215.591C174.482 215.303 175.029 215.159 175.68 215.159C176.283 215.159 176.807 215.288 177.254 215.545C177.705 215.803 178.054 216.176 178.3 216.665C178.55 217.153 178.673 217.746 178.669 218.443V224H176.612V218.761C176.612 218.178 176.461 217.722 176.158 217.392C175.858 217.062 175.444 216.898 174.913 216.898C174.554 216.898 174.233 216.977 173.953 217.136C173.677 217.292 173.459 217.517 173.3 217.812C173.144 218.108 173.067 218.466 173.067 218.886ZM183.999 224.153C183.313 224.153 182.699 223.977 182.158 223.625C181.616 223.273 181.188 222.761 180.874 222.091C180.559 221.42 180.402 220.606 180.402 219.648C180.402 218.678 180.561 217.86 180.879 217.193C181.201 216.523 181.635 216.017 182.18 215.676C182.726 215.331 183.334 215.159 184.004 215.159C184.516 215.159 184.936 215.246 185.266 215.42C185.595 215.591 185.857 215.797 186.05 216.04C186.243 216.278 186.393 216.504 186.499 216.716H186.584V212.364H188.646V224H186.624V222.625H186.499C186.393 222.837 186.239 223.062 186.038 223.301C185.838 223.536 185.572 223.737 185.243 223.903C184.913 224.07 184.499 224.153 183.999 224.153ZM184.572 222.466C185.008 222.466 185.379 222.348 185.686 222.114C185.993 221.875 186.226 221.544 186.385 221.119C186.544 220.695 186.624 220.201 186.624 219.636C186.624 219.072 186.544 218.581 186.385 218.165C186.23 217.748 185.999 217.424 185.692 217.193C185.389 216.962 185.016 216.847 184.572 216.847C184.114 216.847 183.732 216.966 183.425 217.205C183.118 217.443 182.887 217.773 182.732 218.193C182.576 218.614 182.499 219.095 182.499 219.636C182.499 220.182 182.576 220.669 182.732 221.097C182.891 221.521 183.124 221.856 183.43 222.102C183.741 222.345 184.122 222.466 184.572 222.466Z" fill="#005481"/>
<path d="M77.9041 118.176C77.3511 118.176 76.853 118.078 76.4098 117.881C75.9704 117.68 75.6219 117.384 75.3643 116.994C75.1106 116.604 74.9837 116.123 74.9837 115.551C74.9837 115.059 75.0746 114.652 75.2564 114.33C75.4382 114.008 75.6863 113.75 76.0007 113.557C76.3151 113.364 76.6693 113.218 77.0632 113.119C77.4609 113.017 77.8719 112.943 78.2962 112.898C78.8075 112.845 79.2223 112.797 79.5405 112.756C79.8587 112.71 80.0897 112.642 80.2337 112.551C80.3814 112.456 80.4553 112.311 80.4553 112.114V112.08C80.4553 111.652 80.3284 111.32 80.0746 111.085C79.8208 110.85 79.4553 110.733 78.978 110.733C78.4742 110.733 78.0746 110.843 77.7791 111.062C77.4875 111.282 77.2905 111.542 77.1882 111.841L75.2678 111.568C75.4193 111.038 75.6693 110.595 76.0178 110.239C76.3662 109.879 76.7924 109.61 77.2962 109.432C77.8 109.25 78.3568 109.159 78.9666 109.159C79.3871 109.159 79.8056 109.208 80.2223 109.307C80.639 109.405 81.0196 109.568 81.3643 109.795C81.709 110.019 81.9856 110.324 82.1939 110.71C82.406 111.097 82.5121 111.58 82.5121 112.159V118H80.5348V116.801H80.4666C80.3416 117.044 80.1655 117.271 79.9382 117.483C79.7147 117.691 79.4325 117.86 79.0916 117.989C78.7545 118.114 78.3587 118.176 77.9041 118.176ZM78.4382 116.665C78.8511 116.665 79.209 116.583 79.5121 116.42C79.8151 116.254 80.0481 116.034 80.2109 115.761C80.3776 115.489 80.4609 115.191 80.4609 114.869V113.841C80.3965 113.894 80.2867 113.943 80.1314 113.989C79.9799 114.034 79.8094 114.074 79.62 114.108C79.4306 114.142 79.2431 114.172 79.0575 114.199C78.8719 114.225 78.7109 114.248 78.5746 114.267C78.2678 114.309 77.9931 114.377 77.7507 114.472C77.5083 114.566 77.317 114.699 77.1768 114.869C77.0367 115.036 76.9666 115.252 76.9666 115.517C76.9666 115.896 77.1049 116.182 77.3814 116.375C77.6579 116.568 78.0102 116.665 78.4382 116.665ZM84.5803 121.273V109.273H86.603V110.716H86.7223C86.8284 110.504 86.978 110.278 87.1712 110.04C87.3643 109.797 87.6257 109.591 87.9553 109.42C88.2848 109.246 88.7053 109.159 89.2166 109.159C89.8909 109.159 90.4988 109.331 91.0405 109.676C91.5859 110.017 92.0178 110.523 92.3359 111.193C92.6579 111.86 92.8189 112.678 92.8189 113.648C92.8189 114.606 92.6617 115.42 92.3473 116.091C92.0329 116.761 91.6049 117.273 91.0632 117.625C90.5215 117.977 89.9079 118.153 89.2223 118.153C88.7223 118.153 88.3075 118.07 87.978 117.903C87.6484 117.737 87.3833 117.536 87.1825 117.301C86.9856 117.062 86.8321 116.837 86.7223 116.625H86.6371V121.273H84.5803ZM86.5973 113.636C86.5973 114.201 86.6768 114.695 86.8359 115.119C86.9988 115.544 87.2318 115.875 87.5348 116.114C87.8416 116.348 88.2128 116.466 88.6484 116.466C89.103 116.466 89.4837 116.345 89.7905 116.102C90.0973 115.856 90.3284 115.521 90.4837 115.097C90.6428 114.669 90.7223 114.182 90.7223 113.636C90.7223 113.095 90.6446 112.614 90.4893 112.193C90.334 111.773 90.103 111.443 89.7962 111.205C89.4893 110.966 89.1068 110.847 88.6484 110.847C88.209 110.847 87.8359 110.962 87.5291 111.193C87.2223 111.424 86.9893 111.748 86.8303 112.165C86.675 112.581 86.5973 113.072 86.5973 113.636ZM94.5803 121.273V109.273H96.603V110.716H96.7223C96.8284 110.504 96.978 110.278 97.1712 110.04C97.3643 109.797 97.6257 109.591 97.9553 109.42C98.2848 109.246 98.7053 109.159 99.2166 109.159C99.8909 109.159 100.499 109.331 101.04 109.676C101.586 110.017 102.018 110.523 102.336 111.193C102.658 111.86 102.819 112.678 102.819 113.648C102.819 114.606 102.662 115.42 102.347 116.091C102.033 116.761 101.605 117.273 101.063 117.625C100.522 117.977 99.9079 118.153 99.2223 118.153C98.7223 118.153 98.3075 118.07 97.978 117.903C97.6484 117.737 97.3833 117.536 97.1825 117.301C96.9856 117.062 96.8321 116.837 96.7223 116.625H96.6371V121.273H94.5803ZM96.5973 113.636C96.5973 114.201 96.6768 114.695 96.8359 115.119C96.9988 115.544 97.2318 115.875 97.5348 116.114C97.8416 116.348 98.2128 116.466 98.6484 116.466C99.103 116.466 99.4837 116.345 99.7905 116.102C100.097 115.856 100.328 115.521 100.484 115.097C100.643 114.669 100.722 114.182 100.722 113.636C100.722 113.095 100.645 112.614 100.489 112.193C100.334 111.773 100.103 111.443 99.7962 111.205C99.4893 110.966 99.1068 110.847 98.6484 110.847C98.209 110.847 97.8359 110.962 97.5291 111.193C97.2223 111.424 96.9893 111.748 96.8303 112.165C96.675 112.581 96.5973 113.072 96.5973 113.636ZM109.87 112.307V114H104.631V112.307H109.87ZM116.744 106.364V118H114.636V108.415H114.567L111.846 110.153V108.222L114.738 106.364H116.744Z" fill="#005481"/>
<path d="M363.982 118.176C363.429 118.176 362.931 118.078 362.488 117.881C362.049 117.68 361.7 117.384 361.442 116.994C361.189 116.604 361.062 116.123 361.062 115.551C361.062 115.059 361.153 114.652 361.335 114.33C361.516 114.008 361.764 113.75 362.079 113.557C362.393 113.364 362.747 113.218 363.141 113.119C363.539 113.017 363.95 112.943 364.374 112.898C364.886 112.845 365.3 112.797 365.619 112.756C365.937 112.71 366.168 112.642 366.312 112.551C366.46 112.456 366.533 112.311 366.533 112.114V112.08C366.533 111.652 366.406 111.32 366.153 111.085C365.899 110.85 365.533 110.733 365.056 110.733C364.552 110.733 364.153 110.843 363.857 111.062C363.566 111.282 363.369 111.542 363.266 111.841L361.346 111.568C361.497 111.038 361.747 110.595 362.096 110.239C362.444 109.879 362.871 109.61 363.374 109.432C363.878 109.25 364.435 109.159 365.045 109.159C365.465 109.159 365.884 109.208 366.3 109.307C366.717 109.405 367.098 109.568 367.442 109.795C367.787 110.019 368.064 110.324 368.272 110.71C368.484 111.097 368.59 111.58 368.59 112.159V118H366.613V116.801H366.545C366.42 117.044 366.244 117.271 366.016 117.483C365.793 117.691 365.511 117.86 365.17 117.989C364.833 118.114 364.437 118.176 363.982 118.176ZM364.516 116.665C364.929 116.665 365.287 116.583 365.59 116.42C365.893 116.254 366.126 116.034 366.289 115.761C366.456 115.489 366.539 115.191 366.539 114.869V113.841C366.475 113.894 366.365 113.943 366.21 113.989C366.058 114.034 365.888 114.074 365.698 114.108C365.509 114.142 365.321 114.172 365.136 114.199C364.95 114.225 364.789 114.248 364.653 114.267C364.346 114.309 364.071 114.377 363.829 114.472C363.586 114.566 363.395 114.699 363.255 114.869C363.115 115.036 363.045 115.252 363.045 115.517C363.045 115.896 363.183 116.182 363.46 116.375C363.736 116.568 364.088 116.665 364.516 116.665ZM370.658 121.273V109.273H372.681V110.716H372.8C372.906 110.504 373.056 110.278 373.249 110.04C373.442 109.797 373.704 109.591 374.033 109.42C374.363 109.246 374.783 109.159 375.295 109.159C375.969 109.159 376.577 109.331 377.119 109.676C377.664 110.017 378.096 110.523 378.414 111.193C378.736 111.86 378.897 112.678 378.897 113.648C378.897 114.606 378.74 115.42 378.425 116.091C378.111 116.761 377.683 117.273 377.141 117.625C376.6 117.977 375.986 118.153 375.3 118.153C374.8 118.153 374.386 118.07 374.056 117.903C373.727 117.737 373.461 117.536 373.261 117.301C373.064 117.062 372.91 116.837 372.8 116.625H372.715V121.273H370.658ZM372.675 113.636C372.675 114.201 372.755 114.695 372.914 115.119C373.077 115.544 373.31 115.875 373.613 116.114C373.92 116.348 374.291 116.466 374.727 116.466C375.181 116.466 375.562 116.345 375.869 116.102C376.175 115.856 376.406 115.521 376.562 115.097C376.721 114.669 376.8 114.182 376.8 113.636C376.8 113.095 376.723 112.614 376.567 112.193C376.412 111.773 376.181 111.443 375.874 111.205C375.567 110.966 375.185 110.847 374.727 110.847C374.287 110.847 373.914 110.962 373.607 111.193C373.3 111.424 373.067 111.748 372.908 112.165C372.753 112.581 372.675 113.072 372.675 113.636ZM380.658 121.273V109.273H382.681V110.716H382.8C382.906 110.504 383.056 110.278 383.249 110.04C383.442 109.797 383.704 109.591 384.033 109.42C384.363 109.246 384.783 109.159 385.295 109.159C385.969 109.159 386.577 109.331 387.119 109.676C387.664 110.017 388.096 110.523 388.414 111.193C388.736 111.86 388.897 112.678 388.897 113.648C388.897 114.606 388.74 115.42 388.425 116.091C388.111 116.761 387.683 117.273 387.141 117.625C386.6 117.977 385.986 118.153 385.3 118.153C384.8 118.153 384.386 118.07 384.056 117.903C383.727 117.737 383.461 117.536 383.261 117.301C383.064 117.062 382.91 116.837 382.8 116.625H382.715V121.273H380.658ZM382.675 113.636C382.675 114.201 382.755 114.695 382.914 115.119C383.077 115.544 383.31 115.875 383.613 116.114C383.92 116.348 384.291 116.466 384.727 116.466C385.181 116.466 385.562 116.345 385.869 116.102C386.175 115.856 386.406 115.521 386.562 115.097C386.721 114.669 386.8 114.182 386.8 113.636C386.8 113.095 386.723 112.614 386.567 112.193C386.412 111.773 386.181 111.443 385.874 111.205C385.567 110.966 385.185 110.847 384.727 110.847C384.287 110.847 383.914 110.962 383.607 111.193C383.3 111.424 383.067 111.748 382.908 112.165C382.753 112.581 382.675 113.072 382.675 113.636ZM395.948 112.307V114H390.71V112.307H395.948ZM397.683 118V116.477L401.722 112.517C402.109 112.127 402.431 111.78 402.688 111.477C402.946 111.174 403.139 110.881 403.268 110.597C403.397 110.312 403.461 110.009 403.461 109.688C403.461 109.32 403.378 109.006 403.211 108.744C403.044 108.479 402.815 108.275 402.523 108.131C402.232 107.987 401.9 107.915 401.529 107.915C401.147 107.915 400.811 107.994 400.523 108.153C400.236 108.309 400.012 108.53 399.853 108.818C399.698 109.106 399.62 109.449 399.62 109.847H397.614C397.614 109.108 397.783 108.466 398.12 107.92C398.457 107.375 398.921 106.953 399.512 106.653C400.107 106.354 400.789 106.205 401.558 106.205C402.338 106.205 403.023 106.35 403.614 106.642C404.205 106.934 404.664 107.333 404.989 107.841C405.319 108.348 405.484 108.928 405.484 109.58C405.484 110.015 405.4 110.443 405.234 110.864C405.067 111.284 404.773 111.75 404.353 112.261C403.936 112.773 403.351 113.392 402.597 114.119L400.592 116.159V116.239H405.66V118H397.683Z" fill="#5A5A82"/>
<path d="M482.592 118.176C482.039 118.176 481.54 118.078 481.097 117.881C480.658 117.68 480.309 117.384 480.052 116.994C479.798 116.604 479.671 116.123 479.671 115.551C479.671 115.059 479.762 114.652 479.944 114.33C480.126 114.008 480.374 113.75 480.688 113.557C481.003 113.364 481.357 113.218 481.751 113.119C482.148 113.017 482.559 112.943 482.984 112.898C483.495 112.845 483.91 112.797 484.228 112.756C484.546 112.71 484.777 112.642 484.921 112.551C485.069 112.456 485.143 112.311 485.143 112.114V112.08C485.143 111.652 485.016 111.32 484.762 111.085C484.508 110.85 484.143 110.733 483.665 110.733C483.162 110.733 482.762 110.843 482.467 111.062C482.175 111.282 481.978 111.542 481.876 111.841L479.955 111.568C480.107 111.038 480.357 110.595 480.705 110.239C481.054 109.879 481.48 109.61 481.984 109.432C482.487 109.25 483.044 109.159 483.654 109.159C484.075 109.159 484.493 109.208 484.91 109.307C485.326 109.405 485.707 109.568 486.052 109.795C486.397 110.019 486.673 110.324 486.881 110.71C487.094 111.097 487.2 111.58 487.2 112.159V118H485.222V116.801H485.154C485.029 117.044 484.853 117.271 484.626 117.483C484.402 117.691 484.12 117.86 483.779 117.989C483.442 118.114 483.046 118.176 482.592 118.176ZM483.126 116.665C483.539 116.665 483.897 116.583 484.2 116.42C484.503 116.254 484.736 116.034 484.898 115.761C485.065 115.489 485.148 115.191 485.148 114.869V113.841C485.084 113.894 484.974 113.943 484.819 113.989C484.667 114.034 484.497 114.074 484.308 114.108C484.118 114.142 483.931 114.172 483.745 114.199C483.559 114.225 483.398 114.248 483.262 114.267C482.955 114.309 482.681 114.377 482.438 114.472C482.196 114.566 482.004 114.699 481.864 114.869C481.724 115.036 481.654 115.252 481.654 115.517C481.654 115.896 481.792 116.182 482.069 116.375C482.345 116.568 482.698 116.665 483.126 116.665ZM489.268 121.273V109.273H491.29V110.716H491.41C491.516 110.504 491.665 110.278 491.859 110.04C492.052 109.797 492.313 109.591 492.643 109.42C492.972 109.246 493.393 109.159 493.904 109.159C494.578 109.159 495.186 109.331 495.728 109.676C496.273 110.017 496.705 110.523 497.023 111.193C497.345 111.86 497.506 112.678 497.506 113.648C497.506 114.606 497.349 115.42 497.035 116.091C496.72 116.761 496.292 117.273 495.751 117.625C495.209 117.977 494.595 118.153 493.91 118.153C493.41 118.153 492.995 118.07 492.665 117.903C492.336 117.737 492.071 117.536 491.87 117.301C491.673 117.062 491.52 116.837 491.41 116.625H491.325V121.273H489.268ZM491.285 113.636C491.285 114.201 491.364 114.695 491.523 115.119C491.686 115.544 491.919 115.875 492.222 116.114C492.529 116.348 492.9 116.466 493.336 116.466C493.79 116.466 494.171 116.345 494.478 116.102C494.785 115.856 495.016 115.521 495.171 115.097C495.33 114.669 495.41 114.182 495.41 113.636C495.41 113.095 495.332 112.614 495.177 112.193C495.022 111.773 494.79 111.443 494.484 111.205C494.177 110.966 493.794 110.847 493.336 110.847C492.897 110.847 492.523 110.962 492.217 111.193C491.91 111.424 491.677 111.748 491.518 112.165C491.362 112.581 491.285 113.072 491.285 113.636ZM499.268 121.273V109.273H501.29V110.716H501.41C501.516 110.504 501.665 110.278 501.859 110.04C502.052 109.797 502.313 109.591 502.643 109.42C502.972 109.246 503.393 109.159 503.904 109.159C504.578 109.159 505.186 109.331 505.728 109.676C506.273 110.017 506.705 110.523 507.023 111.193C507.345 111.86 507.506 112.678 507.506 113.648C507.506 114.606 507.349 115.42 507.035 116.091C506.72 116.761 506.292 117.273 505.751 117.625C505.209 117.977 504.595 118.153 503.91 118.153C503.41 118.153 502.995 118.07 502.665 117.903C502.336 117.737 502.071 117.536 501.87 117.301C501.673 117.062 501.52 116.837 501.41 116.625H501.325V121.273H499.268ZM501.285 113.636C501.285 114.201 501.364 114.695 501.523 115.119C501.686 115.544 501.919 115.875 502.222 116.114C502.529 116.348 502.9 116.466 503.336 116.466C503.79 116.466 504.171 116.345 504.478 116.102C504.785 115.856 505.016 115.521 505.171 115.097C505.33 114.669 505.41 114.182 505.41 113.636C505.41 113.095 505.332 112.614 505.177 112.193C505.022 111.773 504.79 111.443 504.484 111.205C504.177 110.966 503.794 110.847 503.336 110.847C502.897 110.847 502.523 110.962 502.217 111.193C501.91 111.424 501.677 111.748 501.518 112.165C501.362 112.581 501.285 113.072 501.285 113.636ZM514.558 112.307V114H509.319V112.307H514.558ZM520.765 118.159C519.947 118.159 519.219 118.019 518.583 117.739C517.951 117.458 517.451 117.068 517.083 116.568C516.716 116.068 516.521 115.491 516.498 114.835H518.634C518.653 115.15 518.757 115.424 518.947 115.659C519.136 115.89 519.388 116.07 519.702 116.199C520.017 116.328 520.369 116.392 520.759 116.392C521.176 116.392 521.545 116.32 521.867 116.176C522.189 116.028 522.441 115.824 522.623 115.562C522.805 115.301 522.894 115 522.89 114.659C522.894 114.307 522.803 113.996 522.617 113.727C522.432 113.458 522.163 113.248 521.81 113.097C521.462 112.945 521.041 112.869 520.549 112.869H519.521V111.244H520.549C520.954 111.244 521.308 111.174 521.612 111.034C521.918 110.894 522.159 110.697 522.333 110.443C522.507 110.186 522.593 109.888 522.589 109.551C522.593 109.222 522.519 108.936 522.367 108.693C522.219 108.447 522.009 108.256 521.737 108.119C521.468 107.983 521.151 107.915 520.788 107.915C520.432 107.915 520.102 107.979 519.799 108.108C519.496 108.237 519.252 108.42 519.066 108.659C518.88 108.894 518.782 109.174 518.771 109.5H516.742C516.757 108.848 516.945 108.277 517.305 107.784C517.668 107.288 518.153 106.902 518.759 106.625C519.365 106.345 520.045 106.205 520.799 106.205C521.576 106.205 522.25 106.35 522.822 106.642C523.397 106.93 523.843 107.318 524.157 107.807C524.471 108.295 524.629 108.835 524.629 109.426C524.632 110.081 524.439 110.631 524.049 111.074C523.663 111.517 523.155 111.807 522.526 111.943V112.034C523.344 112.148 523.971 112.451 524.407 112.943C524.846 113.432 525.064 114.04 525.06 114.767C525.06 115.419 524.875 116.002 524.504 116.517C524.136 117.028 523.629 117.43 522.981 117.722C522.337 118.013 521.598 118.159 520.765 118.159Z" fill="#5A5A82"/>
<path d="M411.366 224V212.364H413.423V216.716H413.509C413.615 216.504 413.764 216.278 413.957 216.04C414.151 215.797 414.412 215.591 414.741 215.42C415.071 215.246 415.491 215.159 416.003 215.159C416.677 215.159 417.285 215.331 417.827 215.676C418.372 216.017 418.804 216.523 419.122 217.193C419.444 217.86 419.605 218.678 419.605 219.648C419.605 220.606 419.448 221.42 419.134 222.091C418.819 222.761 418.391 223.273 417.849 223.625C417.308 223.977 416.694 224.153 416.009 224.153C415.509 224.153 415.094 224.07 414.764 223.903C414.435 223.737 414.17 223.536 413.969 223.301C413.772 223.062 413.618 222.837 413.509 222.625H413.389V224H411.366ZM413.384 219.636C413.384 220.201 413.463 220.695 413.622 221.119C413.785 221.544 414.018 221.875 414.321 222.114C414.628 222.348 414.999 222.466 415.435 222.466C415.889 222.466 416.27 222.345 416.577 222.102C416.884 221.856 417.115 221.521 417.27 221.097C417.429 220.669 417.509 220.182 417.509 219.636C417.509 219.095 417.431 218.614 417.276 218.193C417.12 217.773 416.889 217.443 416.582 217.205C416.276 216.966 415.893 216.847 415.435 216.847C414.995 216.847 414.622 216.962 414.315 217.193C414.009 217.424 413.776 217.748 413.616 218.165C413.461 218.581 413.384 219.072 413.384 219.636ZM423.865 224.176C423.312 224.176 422.814 224.078 422.371 223.881C421.931 223.68 421.583 223.384 421.325 222.994C421.071 222.604 420.945 222.123 420.945 221.551C420.945 221.059 421.036 220.652 421.217 220.33C421.399 220.008 421.647 219.75 421.962 219.557C422.276 219.364 422.63 219.218 423.024 219.119C423.422 219.017 423.833 218.943 424.257 218.898C424.768 218.845 425.183 218.797 425.501 218.756C425.82 218.71 426.051 218.642 426.195 218.551C426.342 218.456 426.416 218.311 426.416 218.114V218.08C426.416 217.652 426.289 217.32 426.036 217.085C425.782 216.85 425.416 216.733 424.939 216.733C424.435 216.733 424.036 216.843 423.74 217.062C423.448 217.282 423.251 217.542 423.149 217.841L421.229 217.568C421.38 217.038 421.63 216.595 421.979 216.239C422.327 215.879 422.753 215.61 423.257 215.432C423.761 215.25 424.318 215.159 424.928 215.159C425.348 215.159 425.767 215.208 426.183 215.307C426.6 215.405 426.981 215.568 427.325 215.795C427.67 216.019 427.946 216.324 428.155 216.71C428.367 217.097 428.473 217.58 428.473 218.159V224H426.496V222.801H426.428C426.303 223.044 426.126 223.271 425.899 223.483C425.676 223.691 425.393 223.86 425.053 223.989C424.715 224.114 424.32 224.176 423.865 224.176ZM424.399 222.665C424.812 222.665 425.17 222.583 425.473 222.42C425.776 222.254 426.009 222.034 426.172 221.761C426.339 221.489 426.422 221.191 426.422 220.869V219.841C426.357 219.894 426.248 219.943 426.092 219.989C425.941 220.034 425.77 220.074 425.581 220.108C425.392 220.142 425.204 220.172 425.018 220.199C424.833 220.225 424.672 220.248 424.536 220.267C424.229 220.309 423.954 220.377 423.712 220.472C423.469 220.566 423.278 220.699 423.138 220.869C422.998 221.036 422.928 221.252 422.928 221.517C422.928 221.896 423.066 222.182 423.342 222.375C423.619 222.568 423.971 222.665 424.399 222.665ZM434.348 224.17C433.477 224.17 432.729 223.979 432.104 223.597C431.482 223.214 431.003 222.686 430.666 222.011C430.333 221.333 430.166 220.553 430.166 219.67C430.166 218.784 430.337 218.002 430.678 217.324C431.018 216.642 431.5 216.112 432.121 215.733C432.746 215.35 433.484 215.159 434.337 215.159C435.045 215.159 435.672 215.29 436.217 215.551C436.767 215.809 437.204 216.174 437.53 216.648C437.856 217.117 438.041 217.667 438.087 218.295H436.121C436.041 217.875 435.852 217.525 435.553 217.244C435.257 216.96 434.861 216.818 434.365 216.818C433.945 216.818 433.575 216.932 433.257 217.159C432.939 217.383 432.691 217.705 432.513 218.125C432.339 218.545 432.251 219.049 432.251 219.636C432.251 220.231 432.339 220.742 432.513 221.17C432.687 221.595 432.931 221.922 433.246 222.153C433.564 222.381 433.937 222.494 434.365 222.494C434.668 222.494 434.939 222.437 435.178 222.324C435.42 222.206 435.623 222.038 435.786 221.818C435.948 221.598 436.06 221.331 436.121 221.017H438.087C438.037 221.634 437.856 222.182 437.541 222.659C437.227 223.133 436.799 223.504 436.257 223.773C435.715 224.038 435.079 224.17 434.348 224.17ZM441.651 221.261L441.645 218.778H441.974L445.111 215.273H447.514L443.656 219.568H443.23L441.651 221.261ZM439.776 224V212.364H441.832V224H439.776ZM445.253 224L442.412 220.028L443.798 218.58L447.713 224H445.253ZM452.389 224.17C451.514 224.17 450.759 223.989 450.122 223.625C449.49 223.258 449.003 222.739 448.662 222.068C448.321 221.394 448.151 220.6 448.151 219.688C448.151 218.79 448.321 218.002 448.662 217.324C449.007 216.642 449.488 216.112 450.105 215.733C450.723 215.35 451.448 215.159 452.281 215.159C452.819 215.159 453.327 215.246 453.804 215.42C454.285 215.591 454.709 215.856 455.077 216.216C455.448 216.576 455.74 217.034 455.952 217.591C456.164 218.144 456.27 218.803 456.27 219.568V220.199H449.116V218.812H454.298C454.295 218.419 454.209 218.068 454.043 217.761C453.876 217.451 453.643 217.206 453.344 217.028C453.048 216.85 452.704 216.761 452.31 216.761C451.889 216.761 451.52 216.864 451.202 217.068C450.884 217.269 450.635 217.534 450.457 217.864C450.283 218.189 450.194 218.547 450.19 218.938V220.148C450.19 220.655 450.283 221.091 450.469 221.455C450.654 221.814 450.914 222.091 451.247 222.284C451.58 222.473 451.971 222.568 452.418 222.568C452.717 222.568 452.988 222.527 453.23 222.443C453.473 222.356 453.683 222.229 453.861 222.062C454.039 221.896 454.173 221.689 454.264 221.443L456.185 221.659C456.063 222.167 455.832 222.61 455.491 222.989C455.154 223.364 454.723 223.655 454.196 223.864C453.67 224.068 453.067 224.17 452.389 224.17ZM460.067 218.886V224H458.01V215.273H459.976V216.756H460.078C460.279 216.267 460.599 215.879 461.038 215.591C461.482 215.303 462.029 215.159 462.68 215.159C463.283 215.159 463.807 215.288 464.254 215.545C464.705 215.803 465.054 216.176 465.3 216.665C465.55 217.153 465.673 217.746 465.669 218.443V224H463.612V218.761C463.612 218.178 463.461 217.722 463.158 217.392C462.858 217.062 462.444 216.898 461.913 216.898C461.554 216.898 461.233 216.977 460.953 217.136C460.677 217.292 460.459 217.517 460.3 217.812C460.144 218.108 460.067 218.466 460.067 218.886ZM470.999 224.153C470.313 224.153 469.699 223.977 469.158 223.625C468.616 223.273 468.188 222.761 467.874 222.091C467.559 221.42 467.402 220.606 467.402 219.648C467.402 218.678 467.561 217.86 467.879 217.193C468.201 216.523 468.635 216.017 469.18 215.676C469.726 215.331 470.334 215.159 471.004 215.159C471.516 215.159 471.936 215.246 472.266 215.42C472.595 215.591 472.857 215.797 473.05 216.04C473.243 216.278 473.393 216.504 473.499 216.716H473.584V212.364H475.646V224H473.624V222.625H473.499C473.393 222.837 473.239 223.062 473.038 223.301C472.838 223.536 472.572 223.737 472.243 223.903C471.913 224.07 471.499 224.153 470.999 224.153ZM471.572 222.466C472.008 222.466 472.379 222.348 472.686 222.114C472.993 221.875 473.226 221.544 473.385 221.119C473.544 220.695 473.624 220.201 473.624 219.636C473.624 219.072 473.544 218.581 473.385 218.165C473.23 217.748 472.999 217.424 472.692 217.193C472.389 216.962 472.016 216.847 471.572 216.847C471.114 216.847 470.732 216.966 470.425 217.205C470.118 217.443 469.887 217.773 469.732 218.193C469.576 218.614 469.499 219.095 469.499 219.636C469.499 220.182 469.576 220.669 469.732 221.097C469.891 221.521 470.124 221.856 470.43 222.102C470.741 222.345 471.122 222.466 471.572 222.466Z" fill="#5A5A82"/>
<path opacity="0.4" d="M78.5 82.5H114.5V91.5C114.5 93.982 112.482 96 110 96H83C80.518 96 78.5 93.982 78.5 91.5V82.5Z" fill="#005481"/>
<path d="M78.5 73.5C78.5 71.018 80.518 69 83 69H110C112.482 69 114.5 71.018 114.5 73.5V82.5H78.5V73.5ZM87.5 75.75C87.5 74.5055 86.4945 73.5 85.25 73.5C84.0055 73.5 83 74.5055 83 75.75C83 76.9945 84.0055 78 85.25 78C86.4945 78 87.5 76.9945 87.5 75.75ZM91.4375 74.0625C90.5023 74.0625 89.75 74.8148 89.75 75.75C89.75 76.6852 90.5023 77.4375 91.4375 77.4375H108.312C109.248 77.4375 110 76.6852 110 75.75C110 74.8148 109.248 74.0625 108.312 74.0625H91.4375Z" fill="#005481"/>
<path opacity="0.4" d="M365.5 82.5H401.5V91.5C401.5 93.982 399.482 96 397 96H370C367.518 96 365.5 93.982 365.5 91.5V82.5Z" fill="#5A5A82"/>
<path d="M365.5 73.5C365.5 71.018 367.518 69 370 69H397C399.482 69 401.5 71.018 401.5 73.5V82.5H365.5V73.5ZM374.5 75.75C374.5 74.5055 373.495 73.5 372.25 73.5C371.005 73.5 370 74.5055 370 75.75C370 76.9945 371.005 78 372.25 78C373.495 78 374.5 76.9945 374.5 75.75ZM378.438 74.0625C377.502 74.0625 376.75 74.8148 376.75 75.75C376.75 76.6852 377.502 77.4375 378.438 77.4375H395.312C396.248 77.4375 397 76.6852 397 75.75C397 74.8148 396.248 74.0625 395.312 74.0625H378.438Z" fill="#5A5A82"/>
<path opacity="0.4" d="M484.5 82.5H520.5V91.5C520.5 93.982 518.482 96 516 96H489C486.518 96 484.5 93.982 484.5 91.5V82.5Z" fill="#5A5A82"/>
<path d="M484.5 73.5C484.5 71.018 486.518 69 489 69H516C518.482 69 520.5 71.018 520.5 73.5V82.5H484.5V73.5ZM493.5 75.75C493.5 74.5055 492.495 73.5 491.25 73.5C490.005 73.5 489 74.5055 489 75.75C489 76.9945 490.005 78 491.25 78C492.495 78 493.5 76.9945 493.5 75.75ZM497.438 74.0625C496.502 74.0625 495.75 74.8148 495.75 75.75C495.75 76.6852 496.502 77.4375 497.438 77.4375H514.312C515.248 77.4375 516 76.6852 516 75.75C516 74.8148 515.248 74.0625 514.312 74.0625H497.438Z" fill="#5A5A82"/>
<path opacity="0.4" d="M138.4 174V191.6C138.4 194.027 140.373 196 142.8 196H152.7L151.6 199.3H146.65C145.736 199.3 145 200.036 145 200.95C145 201.864 145.736 202.6 146.65 202.6H165.35C166.264 202.6 167 201.864 167 200.95C167 200.036 166.264 199.3 165.35 199.3H160.4L159.3 196H169.2C171.627 196 173.6 194.027 173.6 191.6V174C173.6 171.573 171.627 169.6 169.2 169.6H142.8C140.373 169.6 138.4 171.573 138.4 174ZM142.8 174H169.2V191.6H142.8V174Z" fill="#005481"/>
<path d="M169.2 174H142.8V191.6H169.2V174ZM153.319 180.669L151.188 182.8L153.319 184.931C153.965 185.578 153.965 186.622 153.319 187.262C152.673 187.901 151.628 187.908 150.988 187.262L147.688 183.962C147.042 183.316 147.042 182.271 147.688 181.631L150.988 178.331C151.634 177.685 152.679 177.685 153.319 178.331C153.958 178.977 153.965 180.022 153.319 180.662V180.669ZM161.019 178.331L164.319 181.631C164.965 182.278 164.965 183.323 164.319 183.962L161.019 187.262C160.373 187.908 159.328 187.908 158.688 187.262C158.049 186.616 158.042 185.571 158.688 184.931L160.819 182.8L158.688 180.669C158.042 180.023 158.042 178.978 158.688 178.338C159.334 177.699 160.379 177.692 161.019 178.338V178.331Z" fill="#005481"/>
<path opacity="0.4" d="M426.4 174V191.6C426.4 194.027 428.373 196 430.8 196H440.7L439.6 199.3H434.65C433.736 199.3 433 200.036 433 200.95C433 201.864 433.736 202.6 434.65 202.6H453.35C454.264 202.6 455 201.864 455 200.95C455 200.036 454.264 199.3 453.35 199.3H448.4L447.3 196H457.2C459.627 196 461.6 194.027 461.6 191.6V174C461.6 171.573 459.627 169.6 457.2 169.6H430.8C428.373 169.6 426.4 171.573 426.4 174ZM430.8 174H457.2V191.6H430.8V174Z" fill="#5A5A82"/>
<path d="M457.2 174H430.8V191.6H457.2V174ZM441.319 180.669L439.188 182.8L441.319 184.931C441.965 185.578 441.965 186.622 441.319 187.262C440.673 187.901 439.628 187.908 438.988 187.262L435.688 183.962C435.042 183.316 435.042 182.271 435.688 181.631L438.988 178.331C439.634 177.685 440.679 177.685 441.319 178.331C441.958 178.977 441.965 180.022 441.319 180.662V180.669ZM449.019 178.331L452.319 181.631C452.965 182.278 452.965 183.323 452.319 183.962L449.019 187.262C448.373 187.908 447.328 187.908 446.688 187.262C446.049 186.616 446.042 185.571 446.688 184.931L448.819 182.8L446.688 180.669C446.042 180.023 446.042 178.978 446.688 178.338C447.334 177.699 448.379 177.692 449.019 178.338V178.331Z" fill="#5A5A82"/>
</svg>
